G04 #@! TF.GenerationSoftware,KiCad,Pcbnew,6.0.7-f9a2dced07~116~ubuntu22.04.1*
G04 #@! TF.CreationDate,2022-09-29T06:22:25-04:00*
G04 #@! TF.ProjectId,hackrf-one,6861636b-7266-42d6-9f6e-652e6b696361,r8*
G04 #@! TF.SameCoordinates,Original*
G04 #@! TF.FileFunction,Legend,Top*
G04 #@! TF.FilePolarity,Positive*
%FSLAX46Y46*%
G04 Gerber Fmt 4.6, Leading zero omitted, Abs format (unit mm)*
G04 Created by KiCad (PCBNEW 6.0.7-f9a2dced07~116~ubuntu22.04.1) date 2022-09-29 06:22:25*
%MOMM*%
%LPD*%
G01*
G04 APERTURE LIST*
%ADD10C,0.304800*%
%ADD11C,0.203200*%
%ADD12C,0.190500*%
%ADD13C,0.101600*%
%ADD14C,0.177800*%
%ADD15C,0.381000*%
%ADD16C,0.127000*%
%ADD17R,1.524000X1.524000*%
%ADD18C,1.524000*%
G04 APERTURE END LIST*
D10*
X97104523Y-104504333D02*
X97104523Y-103319000D01*
X97104523Y-103657666D02*
X97165000Y-103488333D01*
X97225476Y-103403666D01*
X97346428Y-103319000D01*
X97467380Y-103319000D01*
X98072142Y-103488333D02*
X97951190Y-103403666D01*
X97890714Y-103319000D01*
X97830238Y-103149666D01*
X97830238Y-103065000D01*
X97890714Y-102895666D01*
X97951190Y-102811000D01*
X98072142Y-102726333D01*
X98314047Y-102726333D01*
X98435000Y-102811000D01*
X98495476Y-102895666D01*
X98555952Y-103065000D01*
X98555952Y-103149666D01*
X98495476Y-103319000D01*
X98435000Y-103403666D01*
X98314047Y-103488333D01*
X98072142Y-103488333D01*
X97951190Y-103573000D01*
X97890714Y-103657666D01*
X97830238Y-103827000D01*
X97830238Y-104165666D01*
X97890714Y-104335000D01*
X97951190Y-104419666D01*
X98072142Y-104504333D01*
X98314047Y-104504333D01*
X98435000Y-104419666D01*
X98495476Y-104335000D01*
X98555952Y-104165666D01*
X98555952Y-103827000D01*
X98495476Y-103657666D01*
X98435000Y-103573000D01*
X98314047Y-103488333D01*
D11*
X125400000Y-165200000D02*
G75*
G03*
X125400000Y-165200000I-200000J0D01*
G01*
X95600000Y-155000000D02*
G75*
G03*
X95600000Y-155000000I-200000J0D01*
G01*
X105600000Y-145200000D02*
G75*
G03*
X105600000Y-145200000I-200000J0D01*
G01*
X99400000Y-116200000D02*
G75*
G03*
X99400000Y-116200000I-200000J0D01*
G01*
D10*
X77173666Y-123897571D02*
X77089000Y-123837095D01*
X77004333Y-123716142D01*
X77004333Y-123413761D01*
X77089000Y-123292809D01*
X77173666Y-123232333D01*
X77343000Y-123171857D01*
X77512333Y-123171857D01*
X77766333Y-123232333D01*
X78782333Y-123958047D01*
X78782333Y-123171857D01*
X77766333Y-122446142D02*
X77681666Y-122567095D01*
X77597000Y-122627571D01*
X77427666Y-122688047D01*
X77343000Y-122688047D01*
X77173666Y-122627571D01*
X77089000Y-122567095D01*
X77004333Y-122446142D01*
X77004333Y-122204238D01*
X77089000Y-122083285D01*
X77173666Y-122022809D01*
X77343000Y-121962333D01*
X77427666Y-121962333D01*
X77597000Y-122022809D01*
X77681666Y-122083285D01*
X77766333Y-122204238D01*
X77766333Y-122446142D01*
X77851000Y-122567095D01*
X77935666Y-122627571D01*
X78105000Y-122688047D01*
X78443666Y-122688047D01*
X78613000Y-122627571D01*
X78697666Y-122567095D01*
X78782333Y-122446142D01*
X78782333Y-122204238D01*
X78697666Y-122083285D01*
X78613000Y-122022809D01*
X78443666Y-121962333D01*
X78105000Y-121962333D01*
X77935666Y-122022809D01*
X77851000Y-122083285D01*
X77766333Y-122204238D01*
X78697666Y-120510904D02*
X78782333Y-120329476D01*
X78782333Y-120027095D01*
X78697666Y-119906142D01*
X78613000Y-119845666D01*
X78443666Y-119785190D01*
X78274333Y-119785190D01*
X78105000Y-119845666D01*
X78020333Y-119906142D01*
X77935666Y-120027095D01*
X77851000Y-120269000D01*
X77766333Y-120389952D01*
X77681666Y-120450428D01*
X77512333Y-120510904D01*
X77343000Y-120510904D01*
X77173666Y-120450428D01*
X77089000Y-120389952D01*
X77004333Y-120269000D01*
X77004333Y-119966619D01*
X77089000Y-119785190D01*
X78697666Y-118757095D02*
X78782333Y-118878047D01*
X78782333Y-119119952D01*
X78697666Y-119240904D01*
X78528333Y-119301380D01*
X77851000Y-119301380D01*
X77681666Y-119240904D01*
X77597000Y-119119952D01*
X77597000Y-118878047D01*
X77681666Y-118757095D01*
X77851000Y-118696619D01*
X78020333Y-118696619D01*
X78189666Y-119301380D01*
X77597000Y-118152333D02*
X79375000Y-118152333D01*
X77681666Y-118152333D02*
X77597000Y-118031380D01*
X77597000Y-117789476D01*
X77681666Y-117668523D01*
X77766333Y-117608047D01*
X77935666Y-117547571D01*
X78443666Y-117547571D01*
X78613000Y-117608047D01*
X78697666Y-117668523D01*
X78782333Y-117789476D01*
X78782333Y-118031380D01*
X78697666Y-118152333D01*
X77597000Y-117184714D02*
X77597000Y-116700904D01*
X77004333Y-117003285D02*
X78528333Y-117003285D01*
X78697666Y-116942809D01*
X78782333Y-116821857D01*
X78782333Y-116700904D01*
X78697666Y-115793761D02*
X78782333Y-115914714D01*
X78782333Y-116156619D01*
X78697666Y-116277571D01*
X78528333Y-116338047D01*
X77851000Y-116338047D01*
X77681666Y-116277571D01*
X77597000Y-116156619D01*
X77597000Y-115914714D01*
X77681666Y-115793761D01*
X77851000Y-115733285D01*
X78020333Y-115733285D01*
X78189666Y-116338047D01*
X78782333Y-115189000D02*
X77597000Y-115189000D01*
X77766333Y-115189000D02*
X77681666Y-115128523D01*
X77597000Y-115007571D01*
X77597000Y-114826142D01*
X77681666Y-114705190D01*
X77851000Y-114644714D01*
X78782333Y-114644714D01*
X77851000Y-114644714D02*
X77681666Y-114584238D01*
X77597000Y-114463285D01*
X77597000Y-114281857D01*
X77681666Y-114160904D01*
X77851000Y-114100428D01*
X78782333Y-114100428D01*
X78782333Y-113495666D02*
X77004333Y-113495666D01*
X77681666Y-113495666D02*
X77597000Y-113374714D01*
X77597000Y-113132809D01*
X77681666Y-113011857D01*
X77766333Y-112951380D01*
X77935666Y-112890904D01*
X78443666Y-112890904D01*
X78613000Y-112951380D01*
X78697666Y-113011857D01*
X78782333Y-113132809D01*
X78782333Y-113374714D01*
X78697666Y-113495666D01*
X78697666Y-111862809D02*
X78782333Y-111983761D01*
X78782333Y-112225666D01*
X78697666Y-112346619D01*
X78528333Y-112407095D01*
X77851000Y-112407095D01*
X77681666Y-112346619D01*
X77597000Y-112225666D01*
X77597000Y-111983761D01*
X77681666Y-111862809D01*
X77851000Y-111802333D01*
X78020333Y-111802333D01*
X78189666Y-112407095D01*
X78782333Y-111258047D02*
X77597000Y-111258047D01*
X77935666Y-111258047D02*
X77766333Y-111197571D01*
X77681666Y-111137095D01*
X77597000Y-111016142D01*
X77597000Y-110895190D01*
X77173666Y-109564714D02*
X77089000Y-109504238D01*
X77004333Y-109383285D01*
X77004333Y-109080904D01*
X77089000Y-108959952D01*
X77173666Y-108899476D01*
X77343000Y-108839000D01*
X77512333Y-108839000D01*
X77766333Y-108899476D01*
X78782333Y-109625190D01*
X78782333Y-108839000D01*
X77004333Y-108052809D02*
X77004333Y-107931857D01*
X77089000Y-107810904D01*
X77173666Y-107750428D01*
X77343000Y-107689952D01*
X77681666Y-107629476D01*
X78105000Y-107629476D01*
X78443666Y-107689952D01*
X78613000Y-107750428D01*
X78697666Y-107810904D01*
X78782333Y-107931857D01*
X78782333Y-108052809D01*
X78697666Y-108173761D01*
X78613000Y-108234238D01*
X78443666Y-108294714D01*
X78105000Y-108355190D01*
X77681666Y-108355190D01*
X77343000Y-108294714D01*
X77173666Y-108234238D01*
X77089000Y-108173761D01*
X77004333Y-108052809D01*
X77173666Y-107145666D02*
X77089000Y-107085190D01*
X77004333Y-106964238D01*
X77004333Y-106661857D01*
X77089000Y-106540904D01*
X77173666Y-106480428D01*
X77343000Y-106419952D01*
X77512333Y-106419952D01*
X77766333Y-106480428D01*
X78782333Y-107206142D01*
X78782333Y-106419952D01*
X78782333Y-105210428D02*
X78782333Y-105936142D01*
X78782333Y-105573285D02*
X77004333Y-105573285D01*
X77258333Y-105694238D01*
X77427666Y-105815190D01*
X77512333Y-105936142D01*
D12*
X97537571Y-125929619D02*
X97537571Y-124913619D01*
X97827857Y-124913619D01*
X97900428Y-124962000D01*
X97936714Y-125010380D01*
X97973000Y-125107142D01*
X97973000Y-125252285D01*
X97936714Y-125349047D01*
X97900428Y-125397428D01*
X97827857Y-125445809D01*
X97537571Y-125445809D01*
X98335857Y-125929619D02*
X98481000Y-125929619D01*
X98553571Y-125881238D01*
X98589857Y-125832857D01*
X98662428Y-125687714D01*
X98698714Y-125494190D01*
X98698714Y-125107142D01*
X98662428Y-125010380D01*
X98626142Y-124962000D01*
X98553571Y-124913619D01*
X98408428Y-124913619D01*
X98335857Y-124962000D01*
X98299571Y-125010380D01*
X98263285Y-125107142D01*
X98263285Y-125349047D01*
X98299571Y-125445809D01*
X98335857Y-125494190D01*
X98408428Y-125542571D01*
X98553571Y-125542571D01*
X98626142Y-125494190D01*
X98662428Y-125445809D01*
X98698714Y-125349047D01*
X116304542Y-128525739D02*
X116304542Y-129251453D01*
X116268257Y-129396596D01*
X116195685Y-129493358D01*
X116086828Y-129541739D01*
X116014257Y-129541739D01*
X117066542Y-129541739D02*
X116631114Y-129541739D01*
X116848828Y-129541739D02*
X116848828Y-128525739D01*
X116776257Y-128670881D01*
X116703685Y-128767643D01*
X116631114Y-128816024D01*
X117538257Y-128525739D02*
X117610828Y-128525739D01*
X117683400Y-128574120D01*
X117719685Y-128622500D01*
X117755971Y-128719262D01*
X117792257Y-128912786D01*
X117792257Y-129154691D01*
X117755971Y-129348215D01*
X117719685Y-129444977D01*
X117683400Y-129493358D01*
X117610828Y-129541739D01*
X117538257Y-129541739D01*
X117465685Y-129493358D01*
X117429400Y-129444977D01*
X117393114Y-129348215D01*
X117356828Y-129154691D01*
X117356828Y-128912786D01*
X117393114Y-128719262D01*
X117429400Y-128622500D01*
X117465685Y-128574120D01*
X117538257Y-128525739D01*
X116340828Y-130209880D02*
X116268257Y-130161499D01*
X116159400Y-130161499D01*
X116050542Y-130209880D01*
X115977971Y-130306641D01*
X115941685Y-130403403D01*
X115905400Y-130596927D01*
X115905400Y-130742070D01*
X115941685Y-130935594D01*
X115977971Y-131032356D01*
X116050542Y-131129118D01*
X116159400Y-131177499D01*
X116231971Y-131177499D01*
X116340828Y-131129118D01*
X116377114Y-131080737D01*
X116377114Y-130742070D01*
X116231971Y-130742070D01*
X116703685Y-131177499D02*
X116703685Y-130161499D01*
X117139114Y-131177499D01*
X117139114Y-130161499D01*
X117501971Y-131177499D02*
X117501971Y-130161499D01*
X117683400Y-130161499D01*
X117792257Y-130209880D01*
X117864828Y-130306641D01*
X117901114Y-130403403D01*
X117937400Y-130596927D01*
X117937400Y-130742070D01*
X117901114Y-130935594D01*
X117864828Y-131032356D01*
X117792257Y-131129118D01*
X117683400Y-131177499D01*
X117501971Y-131177499D01*
X176309019Y-135089342D02*
X175293019Y-135089342D01*
X175293019Y-134799057D01*
X175341400Y-134726485D01*
X175389780Y-134690200D01*
X175486542Y-134653914D01*
X175631685Y-134653914D01*
X175728447Y-134690200D01*
X175776828Y-134726485D01*
X175825209Y-134799057D01*
X175825209Y-135089342D01*
X175728447Y-134218485D02*
X175680066Y-134291057D01*
X175631685Y-134327342D01*
X175534923Y-134363628D01*
X175486542Y-134363628D01*
X175389780Y-134327342D01*
X175341400Y-134291057D01*
X175293019Y-134218485D01*
X175293019Y-134073342D01*
X175341400Y-134000771D01*
X175389780Y-133964485D01*
X175486542Y-133928200D01*
X175534923Y-133928200D01*
X175631685Y-133964485D01*
X175680066Y-134000771D01*
X175728447Y-134073342D01*
X175728447Y-134218485D01*
X175776828Y-134291057D01*
X175825209Y-134327342D01*
X175921971Y-134363628D01*
X176115495Y-134363628D01*
X176212257Y-134327342D01*
X176260638Y-134291057D01*
X176309019Y-134218485D01*
X176309019Y-134073342D01*
X176260638Y-134000771D01*
X176212257Y-133964485D01*
X176115495Y-133928200D01*
X175921971Y-133928200D01*
X175825209Y-133964485D01*
X175776828Y-134000771D01*
X175728447Y-134073342D01*
X175293019Y-133456485D02*
X175293019Y-133383914D01*
X175341400Y-133311342D01*
X175389780Y-133275057D01*
X175486542Y-133238771D01*
X175680066Y-133202485D01*
X175921971Y-133202485D01*
X176115495Y-133238771D01*
X176212257Y-133275057D01*
X176260638Y-133311342D01*
X176309019Y-133383914D01*
X176309019Y-133456485D01*
X176260638Y-133529057D01*
X176212257Y-133565342D01*
X176115495Y-133601628D01*
X175921971Y-133637914D01*
X175680066Y-133637914D01*
X175486542Y-133601628D01*
X175389780Y-133565342D01*
X175341400Y-133529057D01*
X175293019Y-133456485D01*
X176260638Y-132331628D02*
X176309019Y-132222771D01*
X176309019Y-132041342D01*
X176260638Y-131968771D01*
X176212257Y-131932485D01*
X176115495Y-131896200D01*
X176018733Y-131896200D01*
X175921971Y-131932485D01*
X175873590Y-131968771D01*
X175825209Y-132041342D01*
X175776828Y-132186485D01*
X175728447Y-132259057D01*
X175680066Y-132295342D01*
X175583304Y-132331628D01*
X175486542Y-132331628D01*
X175389780Y-132295342D01*
X175341400Y-132259057D01*
X175293019Y-132186485D01*
X175293019Y-132005057D01*
X175341400Y-131896200D01*
X176309019Y-131569628D02*
X175293019Y-131569628D01*
X175776828Y-131569628D02*
X175776828Y-131134200D01*
X176309019Y-131134200D02*
X175293019Y-131134200D01*
X176309019Y-130771342D02*
X175293019Y-130771342D01*
X175776828Y-130408485D02*
X175776828Y-130154485D01*
X176309019Y-130045628D02*
X176309019Y-130408485D01*
X175293019Y-130408485D01*
X175293019Y-130045628D01*
X176309019Y-129356200D02*
X176309019Y-129719057D01*
X175293019Y-129719057D01*
X176309019Y-129102200D02*
X175293019Y-129102200D01*
X175293019Y-128920771D01*
X175341400Y-128811914D01*
X175438161Y-128739342D01*
X175534923Y-128703057D01*
X175728447Y-128666771D01*
X175873590Y-128666771D01*
X176067114Y-128703057D01*
X176163876Y-128739342D01*
X176260638Y-128811914D01*
X176309019Y-128920771D01*
X176309019Y-129102200D01*
X88647571Y-110765819D02*
X88647571Y-109749819D01*
X88937857Y-109749819D01*
X89010428Y-109798200D01*
X89046714Y-109846580D01*
X89083000Y-109943342D01*
X89083000Y-110088485D01*
X89046714Y-110185247D01*
X89010428Y-110233628D01*
X88937857Y-110282009D01*
X88647571Y-110282009D01*
X89772428Y-109749819D02*
X89409571Y-109749819D01*
X89373285Y-110233628D01*
X89409571Y-110185247D01*
X89482142Y-110136866D01*
X89663571Y-110136866D01*
X89736142Y-110185247D01*
X89772428Y-110233628D01*
X89808714Y-110330390D01*
X89808714Y-110572295D01*
X89772428Y-110669057D01*
X89736142Y-110717438D01*
X89663571Y-110765819D01*
X89482142Y-110765819D01*
X89409571Y-110717438D01*
X89373285Y-110669057D01*
X67159619Y-112506714D02*
X66675809Y-112760714D01*
X67159619Y-112942142D02*
X66143619Y-112942142D01*
X66143619Y-112651857D01*
X66192000Y-112579285D01*
X66240380Y-112543000D01*
X66337142Y-112506714D01*
X66482285Y-112506714D01*
X66579047Y-112543000D01*
X66627428Y-112579285D01*
X66675809Y-112651857D01*
X66675809Y-112942142D01*
X66627428Y-112180142D02*
X66627428Y-111926142D01*
X67159619Y-111817285D02*
X67159619Y-112180142D01*
X66143619Y-112180142D01*
X66143619Y-111817285D01*
X67111238Y-111527000D02*
X67159619Y-111418142D01*
X67159619Y-111236714D01*
X67111238Y-111164142D01*
X67062857Y-111127857D01*
X66966095Y-111091571D01*
X66869333Y-111091571D01*
X66772571Y-111127857D01*
X66724190Y-111164142D01*
X66675809Y-111236714D01*
X66627428Y-111381857D01*
X66579047Y-111454428D01*
X66530666Y-111490714D01*
X66433904Y-111527000D01*
X66337142Y-111527000D01*
X66240380Y-111490714D01*
X66192000Y-111454428D01*
X66143619Y-111381857D01*
X66143619Y-111200428D01*
X66192000Y-111091571D01*
X66627428Y-110765000D02*
X66627428Y-110511000D01*
X67159619Y-110402142D02*
X67159619Y-110765000D01*
X66143619Y-110765000D01*
X66143619Y-110402142D01*
X66143619Y-110184428D02*
X66143619Y-109749000D01*
X67159619Y-109966714D02*
X66143619Y-109966714D01*
X67159619Y-125325285D02*
X66143619Y-125325285D01*
X66143619Y-125143857D01*
X66192000Y-125035000D01*
X66288761Y-124962428D01*
X66385523Y-124926142D01*
X66579047Y-124889857D01*
X66724190Y-124889857D01*
X66917714Y-124926142D01*
X67014476Y-124962428D01*
X67111238Y-125035000D01*
X67159619Y-125143857D01*
X67159619Y-125325285D01*
X66627428Y-124309285D02*
X66627428Y-124563285D01*
X67159619Y-124563285D02*
X66143619Y-124563285D01*
X66143619Y-124200428D01*
X66143619Y-123910142D02*
X66966095Y-123910142D01*
X67062857Y-123873857D01*
X67111238Y-123837571D01*
X67159619Y-123765000D01*
X67159619Y-123619857D01*
X67111238Y-123547285D01*
X67062857Y-123511000D01*
X66966095Y-123474714D01*
X66143619Y-123474714D01*
D13*
X72521809Y-111635428D02*
X72521809Y-111345142D01*
X73029809Y-111490285D02*
X72521809Y-111490285D01*
X73029809Y-111175809D02*
X72521809Y-111175809D01*
X72884666Y-111006476D01*
X72521809Y-110837142D01*
X73029809Y-110837142D01*
D12*
X65539619Y-135720714D02*
X65055809Y-135974714D01*
X65539619Y-136156142D02*
X64523619Y-136156142D01*
X64523619Y-135865857D01*
X64572000Y-135793285D01*
X64620380Y-135757000D01*
X64717142Y-135720714D01*
X64862285Y-135720714D01*
X64959047Y-135757000D01*
X65007428Y-135793285D01*
X65055809Y-135865857D01*
X65055809Y-136156142D01*
X65007428Y-135140142D02*
X65007428Y-135394142D01*
X65539619Y-135394142D02*
X64523619Y-135394142D01*
X64523619Y-135031285D01*
D10*
X74774333Y-123038857D02*
X72996333Y-123038857D01*
X73843000Y-123038857D02*
X73843000Y-122313142D01*
X74774333Y-122313142D02*
X72996333Y-122313142D01*
X74774333Y-121164095D02*
X73843000Y-121164095D01*
X73673666Y-121224571D01*
X73589000Y-121345523D01*
X73589000Y-121587428D01*
X73673666Y-121708380D01*
X74689666Y-121164095D02*
X74774333Y-121285047D01*
X74774333Y-121587428D01*
X74689666Y-121708380D01*
X74520333Y-121768857D01*
X74351000Y-121768857D01*
X74181666Y-121708380D01*
X74097000Y-121587428D01*
X74097000Y-121285047D01*
X74012333Y-121164095D01*
X74689666Y-120015047D02*
X74774333Y-120136000D01*
X74774333Y-120377904D01*
X74689666Y-120498857D01*
X74605000Y-120559333D01*
X74435666Y-120619809D01*
X73927666Y-120619809D01*
X73758333Y-120559333D01*
X73673666Y-120498857D01*
X73589000Y-120377904D01*
X73589000Y-120136000D01*
X73673666Y-120015047D01*
X74774333Y-119470761D02*
X72996333Y-119470761D01*
X74097000Y-119349809D02*
X74774333Y-118986952D01*
X73589000Y-118986952D02*
X74266333Y-119470761D01*
X74774333Y-117716952D02*
X73927666Y-118140285D01*
X74774333Y-118442666D02*
X72996333Y-118442666D01*
X72996333Y-117958857D01*
X73081000Y-117837904D01*
X73165666Y-117777428D01*
X73335000Y-117716952D01*
X73589000Y-117716952D01*
X73758333Y-117777428D01*
X73843000Y-117837904D01*
X73927666Y-117958857D01*
X73927666Y-118442666D01*
X73843000Y-116749333D02*
X73843000Y-117172666D01*
X74774333Y-117172666D02*
X72996333Y-117172666D01*
X72996333Y-116567904D01*
X72996333Y-114874571D02*
X72996333Y-114632666D01*
X73081000Y-114511714D01*
X73250333Y-114390761D01*
X73589000Y-114330285D01*
X74181666Y-114330285D01*
X74520333Y-114390761D01*
X74689666Y-114511714D01*
X74774333Y-114632666D01*
X74774333Y-114874571D01*
X74689666Y-114995523D01*
X74520333Y-115116476D01*
X74181666Y-115176952D01*
X73589000Y-115176952D01*
X73250333Y-115116476D01*
X73081000Y-114995523D01*
X72996333Y-114874571D01*
X73589000Y-113786000D02*
X74774333Y-113786000D01*
X73758333Y-113786000D02*
X73673666Y-113725523D01*
X73589000Y-113604571D01*
X73589000Y-113423142D01*
X73673666Y-113302190D01*
X73843000Y-113241714D01*
X74774333Y-113241714D01*
X74689666Y-112153142D02*
X74774333Y-112274095D01*
X74774333Y-112516000D01*
X74689666Y-112636952D01*
X74520333Y-112697428D01*
X73843000Y-112697428D01*
X73673666Y-112636952D01*
X73589000Y-112516000D01*
X73589000Y-112274095D01*
X73673666Y-112153142D01*
X73843000Y-112092666D01*
X74012333Y-112092666D01*
X74181666Y-112697428D01*
D11*
X149936200Y-114579400D02*
X148412200Y-114579400D01*
X149936200Y-114579400D02*
X149428200Y-115087400D01*
X149936200Y-114579400D02*
X149428200Y-114071400D01*
D12*
X65539619Y-131275714D02*
X65539619Y-131711142D01*
X65539619Y-131493428D02*
X64523619Y-131493428D01*
X64668761Y-131566000D01*
X64765523Y-131638571D01*
X64813904Y-131711142D01*
X64523619Y-131058000D02*
X65539619Y-130804000D01*
X64523619Y-130550000D01*
X64959047Y-130187142D02*
X64910666Y-130259714D01*
X64862285Y-130296000D01*
X64765523Y-130332285D01*
X64717142Y-130332285D01*
X64620380Y-130296000D01*
X64572000Y-130259714D01*
X64523619Y-130187142D01*
X64523619Y-130042000D01*
X64572000Y-129969428D01*
X64620380Y-129933142D01*
X64717142Y-129896857D01*
X64765523Y-129896857D01*
X64862285Y-129933142D01*
X64910666Y-129969428D01*
X64959047Y-130042000D01*
X64959047Y-130187142D01*
X65007428Y-130259714D01*
X65055809Y-130296000D01*
X65152571Y-130332285D01*
X65346095Y-130332285D01*
X65442857Y-130296000D01*
X65491238Y-130259714D01*
X65539619Y-130187142D01*
X65539619Y-130042000D01*
X65491238Y-129969428D01*
X65442857Y-129933142D01*
X65346095Y-129896857D01*
X65152571Y-129896857D01*
X65055809Y-129933142D01*
X65007428Y-129969428D01*
X64959047Y-130042000D01*
X64523619Y-118793428D02*
X64523619Y-118321714D01*
X64910666Y-118575714D01*
X64910666Y-118466857D01*
X64959047Y-118394285D01*
X65007428Y-118358000D01*
X65104190Y-118321714D01*
X65346095Y-118321714D01*
X65442857Y-118358000D01*
X65491238Y-118394285D01*
X65539619Y-118466857D01*
X65539619Y-118684571D01*
X65491238Y-118757142D01*
X65442857Y-118793428D01*
X64523619Y-118104000D02*
X65539619Y-117850000D01*
X64523619Y-117596000D01*
X64523619Y-117414571D02*
X64523619Y-116942857D01*
X64910666Y-117196857D01*
X64910666Y-117088000D01*
X64959047Y-117015428D01*
X65007428Y-116979142D01*
X65104190Y-116942857D01*
X65346095Y-116942857D01*
X65442857Y-116979142D01*
X65491238Y-117015428D01*
X65539619Y-117088000D01*
X65539619Y-117305714D01*
X65491238Y-117378285D01*
X65442857Y-117414571D01*
X64523619Y-140909571D02*
X65346095Y-140909571D01*
X65442857Y-140873285D01*
X65491238Y-140837000D01*
X65539619Y-140764428D01*
X65539619Y-140619285D01*
X65491238Y-140546714D01*
X65442857Y-140510428D01*
X65346095Y-140474142D01*
X64523619Y-140474142D01*
X65491238Y-140147571D02*
X65539619Y-140038714D01*
X65539619Y-139857285D01*
X65491238Y-139784714D01*
X65442857Y-139748428D01*
X65346095Y-139712142D01*
X65249333Y-139712142D01*
X65152571Y-139748428D01*
X65104190Y-139784714D01*
X65055809Y-139857285D01*
X65007428Y-140002428D01*
X64959047Y-140075000D01*
X64910666Y-140111285D01*
X64813904Y-140147571D01*
X64717142Y-140147571D01*
X64620380Y-140111285D01*
X64572000Y-140075000D01*
X64523619Y-140002428D01*
X64523619Y-139821000D01*
X64572000Y-139712142D01*
X65007428Y-139131571D02*
X65055809Y-139022714D01*
X65104190Y-138986428D01*
X65200952Y-138950142D01*
X65346095Y-138950142D01*
X65442857Y-138986428D01*
X65491238Y-139022714D01*
X65539619Y-139095285D01*
X65539619Y-139385571D01*
X64523619Y-139385571D01*
X64523619Y-139131571D01*
X64572000Y-139059000D01*
X64620380Y-139022714D01*
X64717142Y-138986428D01*
X64813904Y-138986428D01*
X64910666Y-139022714D01*
X64959047Y-139059000D01*
X65007428Y-139131571D01*
X65007428Y-139385571D01*
X65539619Y-144647000D02*
X65055809Y-144901000D01*
X65539619Y-145082428D02*
X64523619Y-145082428D01*
X64523619Y-144792142D01*
X64572000Y-144719571D01*
X64620380Y-144683285D01*
X64717142Y-144647000D01*
X64862285Y-144647000D01*
X64959047Y-144683285D01*
X65007428Y-144719571D01*
X65055809Y-144792142D01*
X65055809Y-145082428D01*
X64523619Y-144393000D02*
X65539619Y-143885000D01*
X64523619Y-143885000D02*
X65539619Y-144393000D01*
X64523619Y-149672571D02*
X64523619Y-149237142D01*
X65539619Y-149454857D02*
X64523619Y-149454857D01*
X64523619Y-149055714D02*
X65539619Y-148547714D01*
X64523619Y-148547714D02*
X65539619Y-149055714D01*
X140829142Y-111241739D02*
X140829142Y-110225739D01*
X141264571Y-111241739D01*
X141264571Y-110225739D01*
X141518571Y-110225739D02*
X141954000Y-110225739D01*
X141736285Y-111241739D02*
X141736285Y-110225739D01*
X142607142Y-111241739D02*
X142171714Y-111241739D01*
X142389428Y-111241739D02*
X142389428Y-110225739D01*
X142316857Y-110370881D01*
X142244285Y-110467643D01*
X142171714Y-110516024D01*
X141228285Y-112877499D02*
X140792857Y-112877499D01*
X141010571Y-112877499D02*
X141010571Y-111861499D01*
X140938000Y-112006641D01*
X140865428Y-112103403D01*
X140792857Y-112151784D01*
X141446000Y-111861499D02*
X141700000Y-112877499D01*
X141954000Y-111861499D01*
X142316857Y-112296927D02*
X142244285Y-112248546D01*
X142208000Y-112200165D01*
X142171714Y-112103403D01*
X142171714Y-112055022D01*
X142208000Y-111958260D01*
X142244285Y-111909880D01*
X142316857Y-111861499D01*
X142462000Y-111861499D01*
X142534571Y-111909880D01*
X142570857Y-111958260D01*
X142607142Y-112055022D01*
X142607142Y-112103403D01*
X142570857Y-112200165D01*
X142534571Y-112248546D01*
X142462000Y-112296927D01*
X142316857Y-112296927D01*
X142244285Y-112345308D01*
X142208000Y-112393689D01*
X142171714Y-112490451D01*
X142171714Y-112683975D01*
X142208000Y-112780737D01*
X142244285Y-112829118D01*
X142316857Y-112877499D01*
X142462000Y-112877499D01*
X142534571Y-112829118D01*
X142570857Y-112780737D01*
X142607142Y-112683975D01*
X142607142Y-112490451D01*
X142570857Y-112393689D01*
X142534571Y-112345308D01*
X142462000Y-112296927D01*
X153388542Y-110633739D02*
X153388542Y-109617739D01*
X153823971Y-110633739D01*
X153823971Y-109617739D01*
X154077971Y-109617739D02*
X154513400Y-109617739D01*
X154295685Y-110633739D02*
X154295685Y-109617739D01*
X154731114Y-109714500D02*
X154767400Y-109666120D01*
X154839971Y-109617739D01*
X155021400Y-109617739D01*
X155093971Y-109666120D01*
X155130257Y-109714500D01*
X155166542Y-109811262D01*
X155166542Y-109908024D01*
X155130257Y-110053167D01*
X154694828Y-110633739D01*
X155166542Y-110633739D01*
X153243400Y-111253499D02*
X153497400Y-112269499D01*
X153751400Y-111253499D01*
X154440828Y-112172737D02*
X154404542Y-112221118D01*
X154295685Y-112269499D01*
X154223114Y-112269499D01*
X154114257Y-112221118D01*
X154041685Y-112124356D01*
X154005400Y-112027594D01*
X153969114Y-111834070D01*
X153969114Y-111688927D01*
X154005400Y-111495403D01*
X154041685Y-111398641D01*
X154114257Y-111301880D01*
X154223114Y-111253499D01*
X154295685Y-111253499D01*
X154404542Y-111301880D01*
X154440828Y-111350260D01*
X155202828Y-112172737D02*
X155166542Y-112221118D01*
X155057685Y-112269499D01*
X154985114Y-112269499D01*
X154876257Y-112221118D01*
X154803685Y-112124356D01*
X154767400Y-112027594D01*
X154731114Y-111834070D01*
X154731114Y-111688927D01*
X154767400Y-111495403D01*
X154803685Y-111398641D01*
X154876257Y-111301880D01*
X154985114Y-111253499D01*
X155057685Y-111253499D01*
X155166542Y-111301880D01*
X155202828Y-111350260D01*
X168257219Y-145470685D02*
X167241219Y-145470685D01*
X167241219Y-145180400D01*
X167289600Y-145107828D01*
X167337980Y-145071542D01*
X167434742Y-145035257D01*
X167579885Y-145035257D01*
X167676647Y-145071542D01*
X167725028Y-145107828D01*
X167773409Y-145180400D01*
X167773409Y-145470685D01*
X167337980Y-144744971D02*
X167289600Y-144708685D01*
X167241219Y-144636114D01*
X167241219Y-144454685D01*
X167289600Y-144382114D01*
X167337980Y-144345828D01*
X167434742Y-144309542D01*
X167531504Y-144309542D01*
X167676647Y-144345828D01*
X168257219Y-144781257D01*
X168257219Y-144309542D01*
X167241219Y-143837828D02*
X167241219Y-143765257D01*
X167289600Y-143692685D01*
X167337980Y-143656400D01*
X167434742Y-143620114D01*
X167628266Y-143583828D01*
X167870171Y-143583828D01*
X168063695Y-143620114D01*
X168160457Y-143656400D01*
X168208838Y-143692685D01*
X168257219Y-143765257D01*
X168257219Y-143837828D01*
X168208838Y-143910400D01*
X168160457Y-143946685D01*
X168063695Y-143982971D01*
X167870171Y-144019257D01*
X167628266Y-144019257D01*
X167434742Y-143982971D01*
X167337980Y-143946685D01*
X167289600Y-143910400D01*
X167241219Y-143837828D01*
X151835514Y-169211219D02*
X151835514Y-168195219D01*
X152125800Y-168195219D01*
X152198371Y-168243600D01*
X152234657Y-168291980D01*
X152270942Y-168388742D01*
X152270942Y-168533885D01*
X152234657Y-168630647D01*
X152198371Y-168679028D01*
X152125800Y-168727409D01*
X151835514Y-168727409D01*
X152561228Y-168291980D02*
X152597514Y-168243600D01*
X152670085Y-168195219D01*
X152851514Y-168195219D01*
X152924085Y-168243600D01*
X152960371Y-168291980D01*
X152996657Y-168388742D01*
X152996657Y-168485504D01*
X152960371Y-168630647D01*
X152524942Y-169211219D01*
X152996657Y-169211219D01*
X153286942Y-168291980D02*
X153323228Y-168243600D01*
X153395800Y-168195219D01*
X153577228Y-168195219D01*
X153649800Y-168243600D01*
X153686085Y-168291980D01*
X153722371Y-168388742D01*
X153722371Y-168485504D01*
X153686085Y-168630647D01*
X153250657Y-169211219D01*
X153722371Y-169211219D01*
X140383742Y-161286419D02*
X140383742Y-160270419D01*
X140674028Y-160270419D01*
X140746600Y-160318800D01*
X140782885Y-160367180D01*
X140819171Y-160463942D01*
X140819171Y-160609085D01*
X140782885Y-160705847D01*
X140746600Y-160754228D01*
X140674028Y-160802609D01*
X140383742Y-160802609D01*
X141109457Y-160367180D02*
X141145742Y-160318800D01*
X141218314Y-160270419D01*
X141399742Y-160270419D01*
X141472314Y-160318800D01*
X141508600Y-160367180D01*
X141544885Y-160463942D01*
X141544885Y-160560704D01*
X141508600Y-160705847D01*
X141073171Y-161286419D01*
X141544885Y-161286419D01*
X142234314Y-160270419D02*
X141871457Y-160270419D01*
X141835171Y-160754228D01*
X141871457Y-160705847D01*
X141944028Y-160657466D01*
X142125457Y-160657466D01*
X142198028Y-160705847D01*
X142234314Y-160754228D01*
X142270600Y-160850990D01*
X142270600Y-161092895D01*
X142234314Y-161189657D01*
X142198028Y-161238038D01*
X142125457Y-161286419D01*
X141944028Y-161286419D01*
X141871457Y-161238038D01*
X141835171Y-161189657D01*
X144121171Y-161286419D02*
X143758314Y-161286419D01*
X143758314Y-160270419D01*
X144375171Y-161286419D02*
X144375171Y-160270419D01*
X144665457Y-160270419D01*
X144738028Y-160318800D01*
X144774314Y-160367180D01*
X144810600Y-160463942D01*
X144810600Y-160609085D01*
X144774314Y-160705847D01*
X144738028Y-160754228D01*
X144665457Y-160802609D01*
X144375171Y-160802609D01*
X145572600Y-161189657D02*
X145536314Y-161238038D01*
X145427457Y-161286419D01*
X145354885Y-161286419D01*
X145246028Y-161238038D01*
X145173457Y-161141276D01*
X145137171Y-161044514D01*
X145100885Y-160850990D01*
X145100885Y-160705847D01*
X145137171Y-160512323D01*
X145173457Y-160415561D01*
X145246028Y-160318800D01*
X145354885Y-160270419D01*
X145427457Y-160270419D01*
X145536314Y-160318800D01*
X145572600Y-160367180D01*
X145717742Y-161383180D02*
X146298314Y-161383180D01*
X146479742Y-161286419D02*
X146479742Y-160270419D01*
X146806314Y-161238038D02*
X146915171Y-161286419D01*
X147096600Y-161286419D01*
X147169171Y-161238038D01*
X147205457Y-161189657D01*
X147241742Y-161092895D01*
X147241742Y-160996133D01*
X147205457Y-160899371D01*
X147169171Y-160850990D01*
X147096600Y-160802609D01*
X146951457Y-160754228D01*
X146878885Y-160705847D01*
X146842600Y-160657466D01*
X146806314Y-160560704D01*
X146806314Y-160463942D01*
X146842600Y-160367180D01*
X146878885Y-160318800D01*
X146951457Y-160270419D01*
X147132885Y-160270419D01*
X147241742Y-160318800D01*
X147568314Y-161286419D02*
X147568314Y-160270419D01*
X147858600Y-160270419D01*
X147931171Y-160318800D01*
X147967457Y-160367180D01*
X148003742Y-160463942D01*
X148003742Y-160609085D01*
X147967457Y-160705847D01*
X147931171Y-160754228D01*
X147858600Y-160802609D01*
X147568314Y-160802609D01*
X127668019Y-145521485D02*
X126652019Y-145521485D01*
X126652019Y-145231200D01*
X126700400Y-145158628D01*
X126748780Y-145122342D01*
X126845542Y-145086057D01*
X126990685Y-145086057D01*
X127087447Y-145122342D01*
X127135828Y-145158628D01*
X127184209Y-145231200D01*
X127184209Y-145521485D01*
X126748780Y-144795771D02*
X126700400Y-144759485D01*
X126652019Y-144686914D01*
X126652019Y-144505485D01*
X126700400Y-144432914D01*
X126748780Y-144396628D01*
X126845542Y-144360342D01*
X126942304Y-144360342D01*
X127087447Y-144396628D01*
X127668019Y-144832057D01*
X127668019Y-144360342D01*
X127087447Y-143924914D02*
X127039066Y-143997485D01*
X126990685Y-144033771D01*
X126893923Y-144070057D01*
X126845542Y-144070057D01*
X126748780Y-144033771D01*
X126700400Y-143997485D01*
X126652019Y-143924914D01*
X126652019Y-143779771D01*
X126700400Y-143707200D01*
X126748780Y-143670914D01*
X126845542Y-143634628D01*
X126893923Y-143634628D01*
X126990685Y-143670914D01*
X127039066Y-143707200D01*
X127087447Y-143779771D01*
X127087447Y-143924914D01*
X127135828Y-143997485D01*
X127184209Y-144033771D01*
X127280971Y-144070057D01*
X127474495Y-144070057D01*
X127571257Y-144033771D01*
X127619638Y-143997485D01*
X127668019Y-143924914D01*
X127668019Y-143779771D01*
X127619638Y-143707200D01*
X127571257Y-143670914D01*
X127474495Y-143634628D01*
X127280971Y-143634628D01*
X127184209Y-143670914D01*
X127135828Y-143707200D01*
X127087447Y-143779771D01*
X148241739Y-119080085D02*
X147225739Y-119080085D01*
X147225739Y-118789800D01*
X147274120Y-118717228D01*
X147322500Y-118680942D01*
X147419262Y-118644657D01*
X147564405Y-118644657D01*
X147661167Y-118680942D01*
X147709548Y-118717228D01*
X147757929Y-118789800D01*
X147757929Y-119080085D01*
X147322500Y-118354371D02*
X147274120Y-118318085D01*
X147225739Y-118245514D01*
X147225739Y-118064085D01*
X147274120Y-117991514D01*
X147322500Y-117955228D01*
X147419262Y-117918942D01*
X147516024Y-117918942D01*
X147661167Y-117955228D01*
X148241739Y-118390657D01*
X148241739Y-117918942D01*
X147225739Y-117265800D02*
X147225739Y-117410942D01*
X147274120Y-117483514D01*
X147322500Y-117519800D01*
X147467643Y-117592371D01*
X147661167Y-117628657D01*
X148048215Y-117628657D01*
X148144977Y-117592371D01*
X148193358Y-117556085D01*
X148241739Y-117483514D01*
X148241739Y-117338371D01*
X148193358Y-117265800D01*
X148144977Y-117229514D01*
X148048215Y-117193228D01*
X147806310Y-117193228D01*
X147709548Y-117229514D01*
X147661167Y-117265800D01*
X147612786Y-117338371D01*
X147612786Y-117483514D01*
X147661167Y-117556085D01*
X147709548Y-117592371D01*
X147806310Y-117628657D01*
X149877499Y-120259371D02*
X149877499Y-120622228D01*
X148861499Y-120622228D01*
X149877499Y-120005371D02*
X148861499Y-120005371D01*
X148861499Y-119715085D01*
X148909880Y-119642514D01*
X148958260Y-119606228D01*
X149055022Y-119569942D01*
X149200165Y-119569942D01*
X149296927Y-119606228D01*
X149345308Y-119642514D01*
X149393689Y-119715085D01*
X149393689Y-120005371D01*
X149780737Y-118807942D02*
X149829118Y-118844228D01*
X149877499Y-118953085D01*
X149877499Y-119025657D01*
X149829118Y-119134514D01*
X149732356Y-119207085D01*
X149635594Y-119243371D01*
X149442070Y-119279657D01*
X149296927Y-119279657D01*
X149103403Y-119243371D01*
X149006641Y-119207085D01*
X148909880Y-119134514D01*
X148861499Y-119025657D01*
X148861499Y-118953085D01*
X148909880Y-118844228D01*
X148958260Y-118807942D01*
X149974260Y-118662800D02*
X149974260Y-118082228D01*
X148861499Y-117683085D02*
X149587213Y-117683085D01*
X149732356Y-117719371D01*
X149829118Y-117791942D01*
X149877499Y-117900800D01*
X149877499Y-117973371D01*
X148861499Y-117429085D02*
X148861499Y-116993657D01*
X149877499Y-117211371D02*
X148861499Y-117211371D01*
X149587213Y-116775942D02*
X149587213Y-116413085D01*
X149877499Y-116848514D02*
X148861499Y-116594514D01*
X149877499Y-116340514D01*
X148909880Y-115687371D02*
X148861499Y-115759942D01*
X148861499Y-115868800D01*
X148909880Y-115977657D01*
X149006641Y-116050228D01*
X149103403Y-116086514D01*
X149296927Y-116122800D01*
X149442070Y-116122800D01*
X149635594Y-116086514D01*
X149732356Y-116050228D01*
X149829118Y-115977657D01*
X149877499Y-115868800D01*
X149877499Y-115796228D01*
X149829118Y-115687371D01*
X149780737Y-115651085D01*
X149442070Y-115651085D01*
X149442070Y-115796228D01*
X141911371Y-117059939D02*
X141911371Y-116043939D01*
X142201657Y-116043939D01*
X142274228Y-116092320D01*
X142310514Y-116140700D01*
X142346800Y-116237462D01*
X142346800Y-116382605D01*
X142310514Y-116479367D01*
X142274228Y-116527748D01*
X142201657Y-116576129D01*
X141911371Y-116576129D01*
X142600800Y-116043939D02*
X143072514Y-116043939D01*
X142818514Y-116430986D01*
X142927371Y-116430986D01*
X142999942Y-116479367D01*
X143036228Y-116527748D01*
X143072514Y-116624510D01*
X143072514Y-116866415D01*
X143036228Y-116963177D01*
X142999942Y-117011558D01*
X142927371Y-117059939D01*
X142709657Y-117059939D01*
X142637085Y-117011558D01*
X142600800Y-116963177D01*
X141893228Y-117728080D02*
X141820657Y-117679699D01*
X141711800Y-117679699D01*
X141602942Y-117728080D01*
X141530371Y-117824841D01*
X141494085Y-117921603D01*
X141457800Y-118115127D01*
X141457800Y-118260270D01*
X141494085Y-118453794D01*
X141530371Y-118550556D01*
X141602942Y-118647318D01*
X141711800Y-118695699D01*
X141784371Y-118695699D01*
X141893228Y-118647318D01*
X141929514Y-118598937D01*
X141929514Y-118260270D01*
X141784371Y-118260270D01*
X142256085Y-118695699D02*
X142256085Y-117679699D01*
X142691514Y-118695699D01*
X142691514Y-117679699D01*
X143054371Y-118695699D02*
X143054371Y-117679699D01*
X143235800Y-117679699D01*
X143344657Y-117728080D01*
X143417228Y-117824841D01*
X143453514Y-117921603D01*
X143489800Y-118115127D01*
X143489800Y-118260270D01*
X143453514Y-118453794D01*
X143417228Y-118550556D01*
X143344657Y-118647318D01*
X143235800Y-118695699D01*
X143054371Y-118695699D01*
X144088514Y-102866419D02*
X144088514Y-101850419D01*
X144378800Y-101850419D01*
X144451371Y-101898800D01*
X144487657Y-101947180D01*
X144523942Y-102043942D01*
X144523942Y-102189085D01*
X144487657Y-102285847D01*
X144451371Y-102334228D01*
X144378800Y-102382609D01*
X144088514Y-102382609D01*
X144777942Y-101850419D02*
X145249657Y-101850419D01*
X144995657Y-102237466D01*
X145104514Y-102237466D01*
X145177085Y-102285847D01*
X145213371Y-102334228D01*
X145249657Y-102430990D01*
X145249657Y-102672895D01*
X145213371Y-102769657D01*
X145177085Y-102818038D01*
X145104514Y-102866419D01*
X144886800Y-102866419D01*
X144814228Y-102818038D01*
X144777942Y-102769657D01*
X145721371Y-101850419D02*
X145793942Y-101850419D01*
X145866514Y-101898800D01*
X145902800Y-101947180D01*
X145939085Y-102043942D01*
X145975371Y-102237466D01*
X145975371Y-102479371D01*
X145939085Y-102672895D01*
X145902800Y-102769657D01*
X145866514Y-102818038D01*
X145793942Y-102866419D01*
X145721371Y-102866419D01*
X145648800Y-102818038D01*
X145612514Y-102769657D01*
X145576228Y-102672895D01*
X145539942Y-102479371D01*
X145539942Y-102237466D01*
X145576228Y-102043942D01*
X145612514Y-101947180D01*
X145648800Y-101898800D01*
X145721371Y-101850419D01*
X147717085Y-102334228D02*
X147825942Y-102382609D01*
X147862228Y-102430990D01*
X147898514Y-102527752D01*
X147898514Y-102672895D01*
X147862228Y-102769657D01*
X147825942Y-102818038D01*
X147753371Y-102866419D01*
X147463085Y-102866419D01*
X147463085Y-101850419D01*
X147717085Y-101850419D01*
X147789657Y-101898800D01*
X147825942Y-101947180D01*
X147862228Y-102043942D01*
X147862228Y-102140704D01*
X147825942Y-102237466D01*
X147789657Y-102285847D01*
X147717085Y-102334228D01*
X147463085Y-102334228D01*
X148188800Y-102576133D02*
X148551657Y-102576133D01*
X148116228Y-102866419D02*
X148370228Y-101850419D01*
X148624228Y-102866419D01*
X148878228Y-102866419D02*
X148878228Y-101850419D01*
X149313657Y-102866419D01*
X149313657Y-101850419D01*
X149676514Y-102866419D02*
X149676514Y-101850419D01*
X150111942Y-102866419D02*
X149785371Y-102285847D01*
X150111942Y-101850419D02*
X149676514Y-102430990D01*
X150402228Y-101947180D02*
X150438514Y-101898800D01*
X150511085Y-101850419D01*
X150692514Y-101850419D01*
X150765085Y-101898800D01*
X150801371Y-101947180D01*
X150837657Y-102043942D01*
X150837657Y-102140704D01*
X150801371Y-102285847D01*
X150365942Y-102866419D01*
X150837657Y-102866419D01*
X150982800Y-102963180D02*
X151563371Y-102963180D01*
X151708514Y-102576133D02*
X152071371Y-102576133D01*
X151635942Y-102866419D02*
X151889942Y-101850419D01*
X152143942Y-102866419D01*
X152397942Y-101850419D02*
X152397942Y-102672895D01*
X152434228Y-102769657D01*
X152470514Y-102818038D01*
X152543085Y-102866419D01*
X152688228Y-102866419D01*
X152760800Y-102818038D01*
X152797085Y-102769657D01*
X152833371Y-102672895D01*
X152833371Y-101850419D01*
X153123657Y-101850419D02*
X153631657Y-102866419D01*
X153631657Y-101850419D02*
X153123657Y-102866419D01*
X81933142Y-131777619D02*
X81933142Y-130761619D01*
X82368571Y-131777619D01*
X82368571Y-130761619D01*
X82622571Y-130761619D02*
X83058000Y-130761619D01*
X82840285Y-131777619D02*
X82840285Y-130761619D01*
X83239428Y-130761619D02*
X83711142Y-130761619D01*
X83457142Y-131148666D01*
X83566000Y-131148666D01*
X83638571Y-131197047D01*
X83674857Y-131245428D01*
X83711142Y-131342190D01*
X83711142Y-131584095D01*
X83674857Y-131680857D01*
X83638571Y-131729238D01*
X83566000Y-131777619D01*
X83348285Y-131777619D01*
X83275714Y-131729238D01*
X83239428Y-131680857D01*
X84509428Y-130761619D02*
X84763428Y-131777619D01*
X85017428Y-130761619D01*
X85235142Y-131487333D02*
X85598000Y-131487333D01*
X85162571Y-131777619D02*
X85416571Y-130761619D01*
X85670571Y-131777619D01*
X85888285Y-131487333D02*
X86251142Y-131487333D01*
X85815714Y-131777619D02*
X86069714Y-130761619D01*
X86323714Y-131777619D01*
X175897539Y-138351428D02*
X174881539Y-138351428D01*
X174881539Y-138061142D01*
X174929920Y-137988571D01*
X174978300Y-137952285D01*
X175075062Y-137916000D01*
X175220205Y-137916000D01*
X175316967Y-137952285D01*
X175365348Y-137988571D01*
X175413729Y-138061142D01*
X175413729Y-138351428D01*
X174978300Y-137625714D02*
X174929920Y-137589428D01*
X174881539Y-137516857D01*
X174881539Y-137335428D01*
X174929920Y-137262857D01*
X174978300Y-137226571D01*
X175075062Y-137190285D01*
X175171824Y-137190285D01*
X175316967Y-137226571D01*
X175897539Y-137662000D01*
X175897539Y-137190285D01*
X177436537Y-139331142D02*
X177484918Y-139367428D01*
X177533299Y-139476285D01*
X177533299Y-139548857D01*
X177484918Y-139657714D01*
X177388156Y-139730285D01*
X177291394Y-139766571D01*
X177097870Y-139802857D01*
X176952727Y-139802857D01*
X176759203Y-139766571D01*
X176662441Y-139730285D01*
X176565680Y-139657714D01*
X176517299Y-139548857D01*
X176517299Y-139476285D01*
X176565680Y-139367428D01*
X176614060Y-139331142D01*
X177533299Y-138641714D02*
X177533299Y-139004571D01*
X176517299Y-139004571D01*
X177533299Y-138387714D02*
X176517299Y-138387714D01*
X177533299Y-137952285D02*
X176952727Y-138278857D01*
X176517299Y-137952285D02*
X177097870Y-138387714D01*
X176517299Y-137480571D02*
X176517299Y-137335428D01*
X176565680Y-137262857D01*
X176662441Y-137190285D01*
X176855965Y-137154000D01*
X177194632Y-137154000D01*
X177388156Y-137190285D01*
X177484918Y-137262857D01*
X177533299Y-137335428D01*
X177533299Y-137480571D01*
X177484918Y-137553142D01*
X177388156Y-137625714D01*
X177194632Y-137662000D01*
X176855965Y-137662000D01*
X176662441Y-137625714D01*
X176565680Y-137553142D01*
X176517299Y-137480571D01*
X176517299Y-136827428D02*
X177339775Y-136827428D01*
X177436537Y-136791142D01*
X177484918Y-136754857D01*
X177533299Y-136682285D01*
X177533299Y-136537142D01*
X177484918Y-136464571D01*
X177436537Y-136428285D01*
X177339775Y-136392000D01*
X176517299Y-136392000D01*
X176517299Y-136138000D02*
X176517299Y-135702571D01*
X177533299Y-135920285D02*
X176517299Y-135920285D01*
X129813714Y-130831819D02*
X129813714Y-129815819D01*
X130104000Y-129815819D01*
X130176571Y-129864200D01*
X130212857Y-129912580D01*
X130249142Y-130009342D01*
X130249142Y-130154485D01*
X130212857Y-130251247D01*
X130176571Y-130299628D01*
X130104000Y-130348009D01*
X129813714Y-130348009D01*
X130539428Y-129912580D02*
X130575714Y-129864200D01*
X130648285Y-129815819D01*
X130829714Y-129815819D01*
X130902285Y-129864200D01*
X130938571Y-129912580D01*
X130974857Y-130009342D01*
X130974857Y-130106104D01*
X130938571Y-130251247D01*
X130503142Y-130831819D01*
X130974857Y-130831819D01*
X131337714Y-130831819D02*
X131482857Y-130831819D01*
X131555428Y-130783438D01*
X131591714Y-130735057D01*
X131664285Y-130589914D01*
X131700571Y-130396390D01*
X131700571Y-130009342D01*
X131664285Y-129912580D01*
X131628000Y-129864200D01*
X131555428Y-129815819D01*
X131410285Y-129815819D01*
X131337714Y-129864200D01*
X131301428Y-129912580D01*
X131265142Y-130009342D01*
X131265142Y-130251247D01*
X131301428Y-130348009D01*
X131337714Y-130396390D01*
X131410285Y-130444771D01*
X131555428Y-130444771D01*
X131628000Y-130396390D01*
X131664285Y-130348009D01*
X131700571Y-130251247D01*
X176441739Y-157205485D02*
X175425739Y-157205485D01*
X175425739Y-156915200D01*
X175474120Y-156842628D01*
X175522500Y-156806342D01*
X175619262Y-156770057D01*
X175764405Y-156770057D01*
X175861167Y-156806342D01*
X175909548Y-156842628D01*
X175957929Y-156915200D01*
X175957929Y-157205485D01*
X176441739Y-156044342D02*
X176441739Y-156479771D01*
X176441739Y-156262057D02*
X175425739Y-156262057D01*
X175570881Y-156334628D01*
X175667643Y-156407200D01*
X175716024Y-156479771D01*
X175425739Y-155391200D02*
X175425739Y-155536342D01*
X175474120Y-155608914D01*
X175522500Y-155645200D01*
X175667643Y-155717771D01*
X175861167Y-155754057D01*
X176248215Y-155754057D01*
X176344977Y-155717771D01*
X176393358Y-155681485D01*
X176441739Y-155608914D01*
X176441739Y-155463771D01*
X176393358Y-155391200D01*
X176344977Y-155354914D01*
X176248215Y-155318628D01*
X176006310Y-155318628D01*
X175909548Y-155354914D01*
X175861167Y-155391200D01*
X175812786Y-155463771D01*
X175812786Y-155608914D01*
X175861167Y-155681485D01*
X175909548Y-155717771D01*
X176006310Y-155754057D01*
X177980737Y-157314342D02*
X178029118Y-157350628D01*
X178077499Y-157459485D01*
X178077499Y-157532057D01*
X178029118Y-157640914D01*
X177932356Y-157713485D01*
X177835594Y-157749771D01*
X177642070Y-157786057D01*
X177496927Y-157786057D01*
X177303403Y-157749771D01*
X177206641Y-157713485D01*
X177109880Y-157640914D01*
X177061499Y-157532057D01*
X177061499Y-157459485D01*
X177109880Y-157350628D01*
X177158260Y-157314342D01*
X178077499Y-156624914D02*
X178077499Y-156987771D01*
X177061499Y-156987771D01*
X178077499Y-156370914D02*
X177061499Y-156370914D01*
X178077499Y-155935485D02*
X177496927Y-156262057D01*
X177061499Y-155935485D02*
X177642070Y-156370914D01*
X178077499Y-155608914D02*
X177061499Y-155608914D01*
X178077499Y-155246057D02*
X177061499Y-155246057D01*
X178077499Y-154810628D01*
X177061499Y-154810628D01*
X62003939Y-153947028D02*
X60987939Y-153947028D01*
X60987939Y-153656742D01*
X61036320Y-153584171D01*
X61084700Y-153547885D01*
X61181462Y-153511600D01*
X61326605Y-153511600D01*
X61423367Y-153547885D01*
X61471748Y-153584171D01*
X61520129Y-153656742D01*
X61520129Y-153947028D01*
X61326605Y-152858457D02*
X62003939Y-152858457D01*
X60939558Y-153039885D02*
X61665272Y-153221314D01*
X61665272Y-152749600D01*
X63349413Y-155725028D02*
X63349413Y-155362171D01*
X63639699Y-155797600D02*
X62623699Y-155543600D01*
X63639699Y-155289600D01*
X63639699Y-155035600D02*
X62623699Y-155035600D01*
X63639699Y-154600171D01*
X62623699Y-154600171D01*
X62623699Y-154346171D02*
X62623699Y-153910742D01*
X63639699Y-154128457D02*
X62623699Y-154128457D01*
X63107508Y-153656742D02*
X63107508Y-153402742D01*
X63639699Y-153293885D02*
X63639699Y-153656742D01*
X62623699Y-153656742D01*
X62623699Y-153293885D01*
X63639699Y-152967314D02*
X62623699Y-152967314D01*
X63639699Y-152531885D01*
X62623699Y-152531885D01*
X63639699Y-152169028D02*
X62623699Y-152169028D01*
X63639699Y-151733600D01*
X62623699Y-151733600D01*
X63349413Y-151407028D02*
X63349413Y-151044171D01*
X63639699Y-151479600D02*
X62623699Y-151225600D01*
X63639699Y-150971600D01*
D10*
X134079704Y-172019733D02*
X134079704Y-170241733D01*
X134623990Y-172019733D02*
X134623990Y-171088400D01*
X134563514Y-170919066D01*
X134442561Y-170834400D01*
X134261133Y-170834400D01*
X134140180Y-170919066D01*
X134079704Y-171003733D01*
X135047323Y-170834400D02*
X135531133Y-170834400D01*
X135228752Y-170241733D02*
X135228752Y-171765733D01*
X135289228Y-171935066D01*
X135410180Y-172019733D01*
X135531133Y-172019733D01*
X135773038Y-170834400D02*
X136256847Y-170834400D01*
X135954466Y-170241733D02*
X135954466Y-171765733D01*
X136014942Y-171935066D01*
X136135895Y-172019733D01*
X136256847Y-172019733D01*
X136680180Y-170834400D02*
X136680180Y-172612400D01*
X136680180Y-170919066D02*
X136801133Y-170834400D01*
X137043038Y-170834400D01*
X137163990Y-170919066D01*
X137224466Y-171003733D01*
X137284942Y-171173066D01*
X137284942Y-171681066D01*
X137224466Y-171850400D01*
X137163990Y-171935066D01*
X137043038Y-172019733D01*
X136801133Y-172019733D01*
X136680180Y-171935066D01*
X137768752Y-171935066D02*
X137889704Y-172019733D01*
X138131609Y-172019733D01*
X138252561Y-171935066D01*
X138313038Y-171765733D01*
X138313038Y-171681066D01*
X138252561Y-171511733D01*
X138131609Y-171427066D01*
X137950180Y-171427066D01*
X137829228Y-171342400D01*
X137768752Y-171173066D01*
X137768752Y-171088400D01*
X137829228Y-170919066D01*
X137950180Y-170834400D01*
X138131609Y-170834400D01*
X138252561Y-170919066D01*
X138857323Y-171850400D02*
X138917800Y-171935066D01*
X138857323Y-172019733D01*
X138796847Y-171935066D01*
X138857323Y-171850400D01*
X138857323Y-172019733D01*
X138857323Y-170919066D02*
X138917800Y-171003733D01*
X138857323Y-171088400D01*
X138796847Y-171003733D01*
X138857323Y-170919066D01*
X138857323Y-171088400D01*
X140369228Y-170157066D02*
X139280657Y-172443066D01*
X141699704Y-170157066D02*
X140611133Y-172443066D01*
X142667323Y-170834400D02*
X142667323Y-172273733D01*
X142606847Y-172443066D01*
X142546371Y-172527733D01*
X142425419Y-172612400D01*
X142243990Y-172612400D01*
X142123038Y-172527733D01*
X142667323Y-171935066D02*
X142546371Y-172019733D01*
X142304466Y-172019733D01*
X142183514Y-171935066D01*
X142123038Y-171850400D01*
X142062561Y-171681066D01*
X142062561Y-171173066D01*
X142123038Y-171003733D01*
X142183514Y-170919066D01*
X142304466Y-170834400D01*
X142546371Y-170834400D01*
X142667323Y-170919066D01*
X143272085Y-172019733D02*
X143272085Y-170834400D01*
X143272085Y-171173066D02*
X143332561Y-171003733D01*
X143393038Y-170919066D01*
X143513990Y-170834400D01*
X143634942Y-170834400D01*
X144542085Y-171935066D02*
X144421133Y-172019733D01*
X144179228Y-172019733D01*
X144058276Y-171935066D01*
X143997800Y-171765733D01*
X143997800Y-171088400D01*
X144058276Y-170919066D01*
X144179228Y-170834400D01*
X144421133Y-170834400D01*
X144542085Y-170919066D01*
X144602561Y-171088400D01*
X144602561Y-171257733D01*
X143997800Y-171427066D01*
X145691133Y-172019733D02*
X145691133Y-171088400D01*
X145630657Y-170919066D01*
X145509704Y-170834400D01*
X145267800Y-170834400D01*
X145146847Y-170919066D01*
X145691133Y-171935066D02*
X145570180Y-172019733D01*
X145267800Y-172019733D01*
X145146847Y-171935066D01*
X145086371Y-171765733D01*
X145086371Y-171596400D01*
X145146847Y-171427066D01*
X145267800Y-171342400D01*
X145570180Y-171342400D01*
X145691133Y-171257733D01*
X146114466Y-170834400D02*
X146598276Y-170834400D01*
X146295895Y-170241733D02*
X146295895Y-171765733D01*
X146356371Y-171935066D01*
X146477323Y-172019733D01*
X146598276Y-172019733D01*
X146961133Y-171935066D02*
X147082085Y-172019733D01*
X147323990Y-172019733D01*
X147444942Y-171935066D01*
X147505419Y-171765733D01*
X147505419Y-171681066D01*
X147444942Y-171511733D01*
X147323990Y-171427066D01*
X147142561Y-171427066D01*
X147021609Y-171342400D01*
X146961133Y-171173066D01*
X146961133Y-171088400D01*
X147021609Y-170919066D01*
X147142561Y-170834400D01*
X147323990Y-170834400D01*
X147444942Y-170919066D01*
X148593990Y-171935066D02*
X148473038Y-172019733D01*
X148231133Y-172019733D01*
X148110180Y-171935066D01*
X148049704Y-171850400D01*
X147989228Y-171681066D01*
X147989228Y-171173066D01*
X148049704Y-171003733D01*
X148110180Y-170919066D01*
X148231133Y-170834400D01*
X148473038Y-170834400D01*
X148593990Y-170919066D01*
X149319704Y-172019733D02*
X149198752Y-171935066D01*
X149138276Y-171850400D01*
X149077800Y-171681066D01*
X149077800Y-171173066D01*
X149138276Y-171003733D01*
X149198752Y-170919066D01*
X149319704Y-170834400D01*
X149501133Y-170834400D01*
X149622085Y-170919066D01*
X149682561Y-171003733D01*
X149743038Y-171173066D01*
X149743038Y-171681066D01*
X149682561Y-171850400D01*
X149622085Y-171935066D01*
X149501133Y-172019733D01*
X149319704Y-172019733D01*
X150105895Y-170834400D02*
X150589704Y-170834400D01*
X150287323Y-170241733D02*
X150287323Y-171765733D01*
X150347800Y-171935066D01*
X150468752Y-172019733D01*
X150589704Y-172019733D01*
X150831609Y-170834400D02*
X151315419Y-170834400D01*
X151013038Y-170241733D02*
X151013038Y-171765733D01*
X151073514Y-171935066D01*
X151194466Y-172019733D01*
X151315419Y-172019733D01*
X152283038Y-170834400D02*
X152283038Y-172273733D01*
X152222561Y-172443066D01*
X152162085Y-172527733D01*
X152041133Y-172612400D01*
X151859704Y-172612400D01*
X151738752Y-172527733D01*
X152283038Y-171935066D02*
X152162085Y-172019733D01*
X151920180Y-172019733D01*
X151799228Y-171935066D01*
X151738752Y-171850400D01*
X151678276Y-171681066D01*
X151678276Y-171173066D01*
X151738752Y-171003733D01*
X151799228Y-170919066D01*
X151920180Y-170834400D01*
X152162085Y-170834400D01*
X152283038Y-170919066D01*
X153432085Y-172019733D02*
X153432085Y-171088400D01*
X153371609Y-170919066D01*
X153250657Y-170834400D01*
X153008752Y-170834400D01*
X152887800Y-170919066D01*
X153432085Y-171935066D02*
X153311133Y-172019733D01*
X153008752Y-172019733D01*
X152887800Y-171935066D01*
X152827323Y-171765733D01*
X152827323Y-171596400D01*
X152887800Y-171427066D01*
X153008752Y-171342400D01*
X153311133Y-171342400D01*
X153432085Y-171257733D01*
X154581133Y-172019733D02*
X154581133Y-170241733D01*
X154581133Y-171935066D02*
X154460180Y-172019733D01*
X154218276Y-172019733D01*
X154097323Y-171935066D01*
X154036847Y-171850400D01*
X153976371Y-171681066D01*
X153976371Y-171173066D01*
X154036847Y-171003733D01*
X154097323Y-170919066D01*
X154218276Y-170834400D01*
X154460180Y-170834400D01*
X154581133Y-170919066D01*
X155730180Y-170834400D02*
X155730180Y-172273733D01*
X155669704Y-172443066D01*
X155609228Y-172527733D01*
X155488276Y-172612400D01*
X155306847Y-172612400D01*
X155185895Y-172527733D01*
X155730180Y-171935066D02*
X155609228Y-172019733D01*
X155367323Y-172019733D01*
X155246371Y-171935066D01*
X155185895Y-171850400D01*
X155125419Y-171681066D01*
X155125419Y-171173066D01*
X155185895Y-171003733D01*
X155246371Y-170919066D01*
X155367323Y-170834400D01*
X155609228Y-170834400D01*
X155730180Y-170919066D01*
X156818752Y-171935066D02*
X156697800Y-172019733D01*
X156455895Y-172019733D01*
X156334942Y-171935066D01*
X156274466Y-171765733D01*
X156274466Y-171088400D01*
X156334942Y-170919066D01*
X156455895Y-170834400D01*
X156697800Y-170834400D01*
X156818752Y-170919066D01*
X156879228Y-171088400D01*
X156879228Y-171257733D01*
X156274466Y-171427066D01*
X157242085Y-170834400D02*
X157725895Y-170834400D01*
X157423514Y-170241733D02*
X157423514Y-171765733D01*
X157483990Y-171935066D01*
X157604942Y-172019733D01*
X157725895Y-172019733D01*
X158088752Y-171935066D02*
X158209704Y-172019733D01*
X158451609Y-172019733D01*
X158572561Y-171935066D01*
X158633038Y-171765733D01*
X158633038Y-171681066D01*
X158572561Y-171511733D01*
X158451609Y-171427066D01*
X158270180Y-171427066D01*
X158149228Y-171342400D01*
X158088752Y-171173066D01*
X158088752Y-171088400D01*
X158149228Y-170919066D01*
X158270180Y-170834400D01*
X158451609Y-170834400D01*
X158572561Y-170919066D01*
X159177323Y-171850400D02*
X159237800Y-171935066D01*
X159177323Y-172019733D01*
X159116847Y-171935066D01*
X159177323Y-171850400D01*
X159177323Y-172019733D01*
X160326371Y-171935066D02*
X160205419Y-172019733D01*
X159963514Y-172019733D01*
X159842561Y-171935066D01*
X159782085Y-171850400D01*
X159721609Y-171681066D01*
X159721609Y-171173066D01*
X159782085Y-171003733D01*
X159842561Y-170919066D01*
X159963514Y-170834400D01*
X160205419Y-170834400D01*
X160326371Y-170919066D01*
X161052085Y-172019733D02*
X160931133Y-171935066D01*
X160870657Y-171850400D01*
X160810180Y-171681066D01*
X160810180Y-171173066D01*
X160870657Y-171003733D01*
X160931133Y-170919066D01*
X161052085Y-170834400D01*
X161233514Y-170834400D01*
X161354466Y-170919066D01*
X161414942Y-171003733D01*
X161475419Y-171173066D01*
X161475419Y-171681066D01*
X161414942Y-171850400D01*
X161354466Y-171935066D01*
X161233514Y-172019733D01*
X161052085Y-172019733D01*
X162019704Y-172019733D02*
X162019704Y-170834400D01*
X162019704Y-171003733D02*
X162080180Y-170919066D01*
X162201133Y-170834400D01*
X162382561Y-170834400D01*
X162503514Y-170919066D01*
X162563990Y-171088400D01*
X162563990Y-172019733D01*
X162563990Y-171088400D02*
X162624466Y-170919066D01*
X162745419Y-170834400D01*
X162926847Y-170834400D01*
X163047800Y-170919066D01*
X163108276Y-171088400D01*
X163108276Y-172019733D01*
X164620180Y-170157066D02*
X163531609Y-172443066D01*
X165043514Y-172019733D02*
X165043514Y-170241733D01*
X165587800Y-172019733D02*
X165587800Y-171088400D01*
X165527323Y-170919066D01*
X165406371Y-170834400D01*
X165224942Y-170834400D01*
X165103990Y-170919066D01*
X165043514Y-171003733D01*
X166736847Y-172019733D02*
X166736847Y-171088400D01*
X166676371Y-170919066D01*
X166555419Y-170834400D01*
X166313514Y-170834400D01*
X166192561Y-170919066D01*
X166736847Y-171935066D02*
X166615895Y-172019733D01*
X166313514Y-172019733D01*
X166192561Y-171935066D01*
X166132085Y-171765733D01*
X166132085Y-171596400D01*
X166192561Y-171427066D01*
X166313514Y-171342400D01*
X166615895Y-171342400D01*
X166736847Y-171257733D01*
X167885895Y-171935066D02*
X167764942Y-172019733D01*
X167523038Y-172019733D01*
X167402085Y-171935066D01*
X167341609Y-171850400D01*
X167281133Y-171681066D01*
X167281133Y-171173066D01*
X167341609Y-171003733D01*
X167402085Y-170919066D01*
X167523038Y-170834400D01*
X167764942Y-170834400D01*
X167885895Y-170919066D01*
X168430180Y-172019733D02*
X168430180Y-170241733D01*
X168551133Y-171342400D02*
X168913990Y-172019733D01*
X168913990Y-170834400D02*
X168430180Y-171511733D01*
X169458276Y-172019733D02*
X169458276Y-170834400D01*
X169458276Y-171173066D02*
X169518752Y-171003733D01*
X169579228Y-170919066D01*
X169700180Y-170834400D01*
X169821133Y-170834400D01*
X170063038Y-170834400D02*
X170546847Y-170834400D01*
X170244466Y-172019733D02*
X170244466Y-170495733D01*
X170304942Y-170326400D01*
X170425895Y-170241733D01*
X170546847Y-170241733D01*
X171877323Y-170157066D02*
X170788752Y-172443066D01*
D14*
G04 #@! TO.C,U11*
X110128880Y-155774920D02*
X110128880Y-156775680D01*
X109128120Y-155774920D02*
X110128880Y-155774920D01*
X109128120Y-156775680D02*
X109128120Y-155774920D01*
X110128880Y-156775680D02*
X109128120Y-156775680D01*
X109169152Y-155675860D02*
G75*
G03*
X109169152Y-155675860I-140092J0D01*
G01*
G04 #@! TO.C,U10*
X104463020Y-157663620D02*
X105463780Y-157663620D01*
X104463020Y-158664380D02*
X104463020Y-157663620D01*
X105463780Y-158664380D02*
X104463020Y-158664380D01*
X105463780Y-157663620D02*
X105463780Y-158664380D01*
X104504052Y-158763440D02*
G75*
G03*
X104504052Y-158763440I-140092J0D01*
G01*
G04 #@! TO.C,U7*
X99470780Y-165772220D02*
X99470780Y-166772980D01*
X98470020Y-165772220D02*
X99470780Y-165772220D01*
X98470020Y-166772980D02*
X98470020Y-165772220D01*
X99470780Y-166772980D02*
X98470020Y-166772980D01*
X98511052Y-165673160D02*
G75*
G03*
X98511052Y-165673160I-140092J0D01*
G01*
G04 #@! TO.C,U6*
X84960180Y-140914580D02*
X83959420Y-140914580D01*
X84960180Y-139913820D02*
X84960180Y-140914580D01*
X83959420Y-139913820D02*
X84960180Y-139913820D01*
X83959420Y-140914580D02*
X83959420Y-139913820D01*
X85199332Y-139814760D02*
G75*
G03*
X85199332Y-139814760I-140092J0D01*
G01*
G04 #@! TO.C,U5*
X76847420Y-139913820D02*
X77848180Y-139913820D01*
X76847420Y-140914580D02*
X76847420Y-139913820D01*
X77848180Y-140914580D02*
X76847420Y-140914580D01*
X77848180Y-139913820D02*
X77848180Y-140914580D01*
X76888452Y-141013640D02*
G75*
G03*
X76888452Y-141013640I-140092J0D01*
G01*
G04 #@! TO.C,U2*
X90386180Y-144378220D02*
X90386180Y-145378980D01*
X89385420Y-144378220D02*
X90386180Y-144378220D01*
X89385420Y-145378980D02*
X89385420Y-144378220D01*
X90386180Y-145378980D02*
X89385420Y-145378980D01*
X89426452Y-144279160D02*
G75*
G03*
X89426452Y-144279160I-140092J0D01*
G01*
G04 #@! TO.C,U1*
X105933380Y-167552580D02*
X104932620Y-167552580D01*
X105933380Y-166551820D02*
X105933380Y-167552580D01*
X104932620Y-166551820D02*
X105933380Y-166551820D01*
X104932620Y-167552580D02*
X104932620Y-166551820D01*
X106172532Y-166452760D02*
G75*
G03*
X106172532Y-166452760I-140092J0D01*
G01*
D15*
G04 #@! TO.C,NT3*
X86035000Y-129915000D02*
X86035000Y-126740000D01*
X82860000Y-129280000D02*
X85400000Y-129280000D01*
X82225000Y-129915000D02*
X86035000Y-129915000D01*
X82225000Y-126740000D02*
X82225000Y-129915000D01*
X86035000Y-126740000D02*
X82225000Y-126740000D01*
X85400000Y-124200000D02*
X85400000Y-129280000D01*
X82860000Y-124200000D02*
X85400000Y-124200000D01*
X82860000Y-129280000D02*
X82860000Y-124200000D01*
G04 #@! TO.C,NT2*
X155885000Y-114675000D02*
X159060000Y-114675000D01*
X156520000Y-111500000D02*
X156520000Y-114040000D01*
X155885000Y-110865000D02*
X155885000Y-114675000D01*
X159060000Y-110865000D02*
X155885000Y-110865000D01*
X159060000Y-114675000D02*
X159060000Y-110865000D01*
X161600000Y-114040000D02*
X156520000Y-114040000D01*
X161600000Y-111500000D02*
X161600000Y-114040000D01*
X156520000Y-111500000D02*
X161600000Y-111500000D01*
G04 #@! TO.C,NT1*
X143185000Y-114675000D02*
X146360000Y-114675000D01*
X143820000Y-111500000D02*
X143820000Y-114040000D01*
X143185000Y-110865000D02*
X143185000Y-114675000D01*
X146360000Y-110865000D02*
X143185000Y-110865000D01*
X146360000Y-114675000D02*
X146360000Y-110865000D01*
X148900000Y-114040000D02*
X143820000Y-114040000D01*
X148900000Y-111500000D02*
X148900000Y-114040000D01*
X143820000Y-111500000D02*
X148900000Y-111500000D01*
D16*
G04 #@! TO.C,Q5*
X166680000Y-120034400D02*
X166680000Y-123082400D01*
X166680000Y-123082400D02*
X165918000Y-123082400D01*
X165918000Y-123082400D02*
X165918000Y-120034400D01*
X165918000Y-120034400D02*
X166680000Y-120034400D01*
G04 #@! TO.C,Q4*
X72324000Y-164581000D02*
X69276000Y-164581000D01*
X69276000Y-164581000D02*
X69276000Y-163819000D01*
X69276000Y-163819000D02*
X72324000Y-163819000D01*
X72324000Y-163819000D02*
X72324000Y-164581000D01*
G04 #@! TO.C,Q3*
X83520400Y-119297800D02*
X86568400Y-119297800D01*
X86568400Y-119297800D02*
X86568400Y-120059800D01*
X86568400Y-120059800D02*
X83520400Y-120059800D01*
X83520400Y-120059800D02*
X83520400Y-119297800D01*
G04 #@! TO.C,Q2*
X78740700Y-165771800D02*
X75692700Y-165771800D01*
X75692700Y-165771800D02*
X75692700Y-165009800D01*
X75692700Y-165009800D02*
X78740700Y-165009800D01*
X78740700Y-165009800D02*
X78740700Y-165771800D01*
G04 #@! TO.C,Q1*
X70852000Y-149999000D02*
X73900000Y-149999000D01*
X73900000Y-149999000D02*
X73900000Y-150761000D01*
X73900000Y-150761000D02*
X70852000Y-150761000D01*
X70852000Y-150761000D02*
X70852000Y-149999000D01*
D11*
G04 #@! TO.C,U19*
X129468180Y-164924980D02*
X129468180Y-164526200D01*
X129069400Y-164924980D02*
X129468180Y-164924980D01*
X129468180Y-160927020D02*
X129069400Y-160927020D01*
X129468180Y-161325800D02*
X129468180Y-160927020D01*
X125470220Y-160927020D02*
X125470220Y-161325800D01*
X125869000Y-160927020D02*
X125470220Y-160927020D01*
X125470220Y-164526200D02*
X125869000Y-164924980D01*
G04 #@! TO.C,TESTPOINT-30MIL-MASKONLY*
X89814020Y-142499080D02*
G75*
G03*
X89814020Y-142499080I-500000J0D01*
G01*
X84604600Y-151657400D02*
G75*
G03*
X84604600Y-151657400I-500000J0D01*
G01*
X76075160Y-144213580D02*
G75*
G03*
X76075160Y-144213580I-500000J0D01*
G01*
X74553700Y-146151600D02*
G75*
G03*
X74553700Y-146151600I-500000J0D01*
G01*
X94282000Y-138932000D02*
G75*
G03*
X94282000Y-138932000I-500000J0D01*
G01*
X85900000Y-161360200D02*
G75*
G03*
X85900000Y-161360200I-500000J0D01*
G01*
X75838940Y-157848300D02*
G75*
G03*
X75838940Y-157848300I-500000J0D01*
G01*
X79532100Y-151361140D02*
G75*
G03*
X79532100Y-151361140I-500000J0D01*
G01*
X114419000Y-161749740D02*
G75*
G03*
X114419000Y-161749740I-500000J0D01*
G01*
X104612060Y-168798240D02*
G75*
G03*
X104612060Y-168798240I-500000J0D01*
G01*
X104751760Y-165374320D02*
G75*
G03*
X104751760Y-165374320I-500000J0D01*
G01*
X101515800Y-166263320D02*
G75*
G03*
X101515800Y-166263320I-500000J0D01*
G01*
X80167100Y-147711160D02*
G75*
G03*
X80167100Y-147711160I-500000J0D01*
G01*
X109976540Y-159425640D02*
G75*
G03*
X109976540Y-159425640I-500000J0D01*
G01*
X99862260Y-147688300D02*
G75*
G03*
X99862260Y-147688300I-500000J0D01*
G01*
X103730680Y-154279600D02*
G75*
G03*
X103730680Y-154279600I-500000J0D01*
G01*
X113215040Y-153710640D02*
G75*
G03*
X113215040Y-153710640I-500000J0D01*
G01*
G04 #@! TO.C,MARK1MM*
X172500000Y-102000000D02*
G75*
G03*
X172500000Y-102000000I-1500000J0D01*
G01*
G04 #@! TO.C,D7*
X61700000Y-120100000D02*
X61700000Y-115700000D01*
X60300000Y-120100000D02*
X61700000Y-120100000D01*
X60300000Y-115700000D02*
X60300000Y-120100000D01*
X61700000Y-115700000D02*
X60300000Y-115700000D01*
X61000000Y-118100000D02*
X61400000Y-117700000D01*
X60600000Y-117700000D02*
X61000000Y-118100000D01*
X61400000Y-117700000D02*
X60600000Y-117700000D01*
X60000000Y-117200000D02*
X60000000Y-118600000D01*
X60000000Y-118600000D02*
X60300000Y-118900000D01*
X60000000Y-117200000D02*
X60300000Y-116900000D01*
G04 #@! TO.C,D8*
X61970000Y-132750000D02*
X61970000Y-128350000D01*
X60570000Y-132750000D02*
X61970000Y-132750000D01*
X60570000Y-128350000D02*
X60570000Y-132750000D01*
X61970000Y-128350000D02*
X60570000Y-128350000D01*
X61270000Y-130750000D02*
X61670000Y-130350000D01*
X60870000Y-130350000D02*
X61270000Y-130750000D01*
X61670000Y-130350000D02*
X60870000Y-130350000D01*
X60270000Y-129850000D02*
X60270000Y-131250000D01*
X60270000Y-131250000D02*
X60570000Y-131550000D01*
X60270000Y-129850000D02*
X60570000Y-129550000D01*
G04 #@! TO.C,D2*
X61970000Y-137322000D02*
X61970000Y-132922000D01*
X60570000Y-137322000D02*
X61970000Y-137322000D01*
X60570000Y-132922000D02*
X60570000Y-137322000D01*
X61970000Y-132922000D02*
X60570000Y-132922000D01*
X61270000Y-135322000D02*
X61670000Y-134922000D01*
X60870000Y-134922000D02*
X61270000Y-135322000D01*
X61670000Y-134922000D02*
X60870000Y-134922000D01*
X60270000Y-134422000D02*
X60270000Y-135822000D01*
X60270000Y-135822000D02*
X60570000Y-136122000D01*
X60270000Y-134422000D02*
X60570000Y-134122000D01*
G04 #@! TO.C,D4*
X61970000Y-141894000D02*
X61970000Y-137494000D01*
X60570000Y-141894000D02*
X61970000Y-141894000D01*
X60570000Y-137494000D02*
X60570000Y-141894000D01*
X61970000Y-137494000D02*
X60570000Y-137494000D01*
X61270000Y-139894000D02*
X61670000Y-139494000D01*
X60870000Y-139494000D02*
X61270000Y-139894000D01*
X61670000Y-139494000D02*
X60870000Y-139494000D01*
X60270000Y-138994000D02*
X60270000Y-140394000D01*
X60270000Y-140394000D02*
X60570000Y-140694000D01*
X60270000Y-138994000D02*
X60570000Y-138694000D01*
G04 #@! TO.C,D5*
X61970000Y-146466000D02*
X61970000Y-142066000D01*
X60570000Y-146466000D02*
X61970000Y-146466000D01*
X60570000Y-142066000D02*
X60570000Y-146466000D01*
X61970000Y-142066000D02*
X60570000Y-142066000D01*
X61270000Y-144466000D02*
X61670000Y-144066000D01*
X60870000Y-144066000D02*
X61270000Y-144466000D01*
X61670000Y-144066000D02*
X60870000Y-144066000D01*
X60270000Y-143566000D02*
X60270000Y-144966000D01*
X60270000Y-144966000D02*
X60570000Y-145266000D01*
X60270000Y-143566000D02*
X60570000Y-143266000D01*
G04 #@! TO.C,D6*
X61970000Y-151038000D02*
X61970000Y-146638000D01*
X60570000Y-151038000D02*
X61970000Y-151038000D01*
X60570000Y-146638000D02*
X60570000Y-151038000D01*
X61970000Y-146638000D02*
X60570000Y-146638000D01*
X61270000Y-149038000D02*
X61670000Y-148638000D01*
X60870000Y-148638000D02*
X61270000Y-149038000D01*
X61670000Y-148638000D02*
X60870000Y-148638000D01*
X60270000Y-148138000D02*
X60270000Y-149538000D01*
X60270000Y-149538000D02*
X60570000Y-149838000D01*
X60270000Y-148138000D02*
X60570000Y-147838000D01*
G04 #@! TO.C,C1*
X91477400Y-162157800D02*
X91477400Y-163935800D01*
X90715400Y-162157800D02*
X91477400Y-162157800D01*
X90715400Y-163935800D02*
X90715400Y-162157800D01*
X91477400Y-163935800D02*
X90715400Y-163935800D01*
G04 #@! TO.C,C2*
X90461400Y-162157800D02*
X90461400Y-163935800D01*
X89699400Y-162157800D02*
X90461400Y-162157800D01*
X89699400Y-163935800D02*
X89699400Y-162157800D01*
X90461400Y-163935800D02*
X89699400Y-163935800D01*
G04 #@! TO.C,C3*
X93509400Y-162157800D02*
X93509400Y-163935800D01*
X92747400Y-162157800D02*
X93509400Y-162157800D01*
X92747400Y-163935800D02*
X92747400Y-162157800D01*
X93509400Y-163935800D02*
X92747400Y-163935800D01*
G04 #@! TO.C,C4*
X92493400Y-162157800D02*
X92493400Y-163935800D01*
X91731400Y-162157800D02*
X92493400Y-162157800D01*
X91731400Y-163935800D02*
X91731400Y-162157800D01*
X92493400Y-163935800D02*
X91731400Y-163935800D01*
G04 #@! TO.C,C5*
X91960000Y-153217000D02*
X91960000Y-151439000D01*
X92722000Y-153217000D02*
X91960000Y-153217000D01*
X92722000Y-151439000D02*
X92722000Y-153217000D01*
X91960000Y-151439000D02*
X92722000Y-151439000D01*
G04 #@! TO.C,C6*
X92976000Y-153217000D02*
X92976000Y-151439000D01*
X93738000Y-153217000D02*
X92976000Y-153217000D01*
X93738000Y-151439000D02*
X93738000Y-153217000D01*
X92976000Y-151439000D02*
X93738000Y-151439000D01*
G04 #@! TO.C,C7*
X107973000Y-168957200D02*
X106195000Y-168957200D01*
X107973000Y-168195200D02*
X107973000Y-168957200D01*
X106195000Y-168195200D02*
X107973000Y-168195200D01*
X106195000Y-168957200D02*
X106195000Y-168195200D01*
G04 #@! TO.C,C8*
X114300000Y-154559000D02*
X114300000Y-156337000D01*
X113538000Y-154559000D02*
X114300000Y-154559000D01*
X113538000Y-156337000D02*
X113538000Y-154559000D01*
X114300000Y-156337000D02*
X113538000Y-156337000D01*
G04 #@! TO.C,C9*
X85019000Y-150057200D02*
X85019000Y-148279200D01*
X85781000Y-150057200D02*
X85019000Y-150057200D01*
X85781000Y-148279200D02*
X85781000Y-150057200D01*
X85019000Y-148279200D02*
X85781000Y-148279200D01*
G04 #@! TO.C,C10*
X87091800Y-143100600D02*
X88869800Y-143100600D01*
X87091800Y-143862600D02*
X87091800Y-143100600D01*
X88869800Y-143862600D02*
X87091800Y-143862600D01*
X88869800Y-143100600D02*
X88869800Y-143862600D01*
G04 #@! TO.C,C11*
X84332800Y-144351200D02*
X84332800Y-142573200D01*
X85094800Y-144351200D02*
X84332800Y-144351200D01*
X85094800Y-142573200D02*
X85094800Y-144351200D01*
X84332800Y-142573200D02*
X85094800Y-142573200D01*
G04 #@! TO.C,C12*
X88175400Y-152937600D02*
X88175400Y-154715600D01*
X87413400Y-152937600D02*
X88175400Y-152937600D01*
X87413400Y-154715600D02*
X87413400Y-152937600D01*
X88175400Y-154715600D02*
X87413400Y-154715600D01*
G04 #@! TO.C,C13*
X89445400Y-151286600D02*
X87667400Y-151286600D01*
X89445400Y-150524600D02*
X89445400Y-151286600D01*
X87667400Y-150524600D02*
X89445400Y-150524600D01*
X87667400Y-151286600D02*
X87667400Y-150524600D01*
G04 #@! TO.C,C14*
X89953400Y-153572600D02*
X89953400Y-151794600D01*
X90715400Y-153572600D02*
X89953400Y-153572600D01*
X90715400Y-151794600D02*
X90715400Y-153572600D01*
X89953400Y-151794600D02*
X90715400Y-151794600D01*
G04 #@! TO.C,C15*
X89953400Y-150524600D02*
X91731400Y-150524600D01*
X89953400Y-151286600D02*
X89953400Y-150524600D01*
X91731400Y-151286600D02*
X89953400Y-151286600D01*
X91731400Y-150524600D02*
X91731400Y-151286600D01*
G04 #@! TO.C,C16*
X106118800Y-165045600D02*
X106118800Y-163267600D01*
X106880800Y-165045600D02*
X106118800Y-165045600D01*
X106880800Y-163267600D02*
X106880800Y-165045600D01*
X106118800Y-163267600D02*
X106880800Y-163267600D01*
G04 #@! TO.C,C17*
X82046800Y-141557200D02*
X83824800Y-141557200D01*
X82046800Y-142319200D02*
X82046800Y-141557200D01*
X83824800Y-142319200D02*
X82046800Y-142319200D01*
X83824800Y-141557200D02*
X83824800Y-142319200D01*
G04 #@! TO.C,C18*
X77982800Y-141557200D02*
X79760800Y-141557200D01*
X77982800Y-142319200D02*
X77982800Y-141557200D01*
X79760800Y-142319200D02*
X77982800Y-142319200D01*
X79760800Y-141557200D02*
X79760800Y-142319200D01*
G04 #@! TO.C,C19*
X76712800Y-144224200D02*
X76712800Y-142446200D01*
X77474800Y-144224200D02*
X76712800Y-144224200D01*
X77474800Y-142446200D02*
X77474800Y-144224200D01*
X76712800Y-142446200D02*
X77474800Y-142446200D01*
G04 #@! TO.C,C20*
X86918800Y-141147800D02*
X88696800Y-141147800D01*
X86918800Y-141909800D02*
X86918800Y-141147800D01*
X88696800Y-141909800D02*
X86918800Y-141909800D01*
X88696800Y-141147800D02*
X88696800Y-141909800D01*
G04 #@! TO.C,C21*
X103327200Y-165760400D02*
X101549200Y-165760400D01*
X103327200Y-164998400D02*
X103327200Y-165760400D01*
X101549200Y-164998400D02*
X103327200Y-164998400D01*
X101549200Y-165760400D02*
X101549200Y-164998400D01*
G04 #@! TO.C,C22*
X95084200Y-165891600D02*
X96862200Y-165891600D01*
X95084200Y-166653600D02*
X95084200Y-165891600D01*
X96862200Y-166653600D02*
X95084200Y-166653600D01*
X96862200Y-165891600D02*
X96862200Y-166653600D01*
G04 #@! TO.C,C23*
X100888800Y-152069800D02*
X100888800Y-150291800D01*
X101650800Y-152069800D02*
X100888800Y-152069800D01*
X101650800Y-150291800D02*
X101650800Y-152069800D01*
X100888800Y-150291800D02*
X101650800Y-150291800D01*
G04 #@! TO.C,C24*
X93060800Y-142592600D02*
X93060800Y-144370600D01*
X92298800Y-142592600D02*
X93060800Y-142592600D01*
X92298800Y-144370600D02*
X92298800Y-142592600D01*
X93060800Y-144370600D02*
X92298800Y-144370600D01*
G04 #@! TO.C,C25*
X96303400Y-163351600D02*
X98081400Y-163351600D01*
X96303400Y-164113600D02*
X96303400Y-163351600D01*
X98081400Y-164113600D02*
X96303400Y-164113600D01*
X98081400Y-163351600D02*
X98081400Y-164113600D01*
G04 #@! TO.C,C26*
X79760800Y-139271200D02*
X77982800Y-139271200D01*
X79760800Y-138509200D02*
X79760800Y-139271200D01*
X77982800Y-138509200D02*
X79760800Y-138509200D01*
X77982800Y-139271200D02*
X77982800Y-138509200D01*
G04 #@! TO.C,C27*
X82046800Y-138509200D02*
X83824800Y-138509200D01*
X82046800Y-139271200D02*
X82046800Y-138509200D01*
X83824800Y-139271200D02*
X82046800Y-139271200D01*
X83824800Y-138509200D02*
X83824800Y-139271200D01*
G04 #@! TO.C,C28*
X96303400Y-164494600D02*
X98081400Y-164494600D01*
X96303400Y-165256600D02*
X96303400Y-164494600D01*
X98081400Y-165256600D02*
X96303400Y-165256600D01*
X98081400Y-164494600D02*
X98081400Y-165256600D01*
G04 #@! TO.C,C29*
X76306400Y-139093400D02*
X74528400Y-139093400D01*
X76306400Y-138331400D02*
X76306400Y-139093400D01*
X74528400Y-138331400D02*
X76306400Y-138331400D01*
X74528400Y-139093400D02*
X74528400Y-138331400D01*
G04 #@! TO.C,C30*
X85211000Y-137819000D02*
X86989000Y-137819000D01*
X85211000Y-138581000D02*
X85211000Y-137819000D01*
X86989000Y-138581000D02*
X85211000Y-138581000D01*
X86989000Y-137819000D02*
X86989000Y-138581000D01*
G04 #@! TO.C,C31*
X75214200Y-143335200D02*
X75214200Y-141557200D01*
X75976200Y-143335200D02*
X75214200Y-143335200D01*
X75976200Y-141557200D02*
X75976200Y-143335200D01*
X75214200Y-141557200D02*
X75976200Y-141557200D01*
G04 #@! TO.C,C32*
X103327200Y-169189400D02*
X101549200Y-169189400D01*
X103327200Y-168427400D02*
X103327200Y-169189400D01*
X101549200Y-168427400D02*
X103327200Y-168427400D01*
X101549200Y-169189400D02*
X101549200Y-168427400D01*
G04 #@! TO.C,C33*
X99732400Y-165028000D02*
X99732400Y-163250000D01*
X100494400Y-165028000D02*
X99732400Y-165028000D01*
X100494400Y-163250000D02*
X100494400Y-165028000D01*
X99732400Y-163250000D02*
X100494400Y-163250000D01*
G04 #@! TO.C,C34*
X97929000Y-152810600D02*
X97929000Y-151032600D01*
X98691000Y-152810600D02*
X97929000Y-152810600D01*
X98691000Y-151032600D02*
X98691000Y-152810600D01*
X97929000Y-151032600D02*
X98691000Y-151032600D01*
G04 #@! TO.C,C35*
X96786000Y-152048600D02*
X96786000Y-150270600D01*
X97548000Y-152048600D02*
X96786000Y-152048600D01*
X97548000Y-150270600D02*
X97548000Y-152048600D01*
X96786000Y-150270600D02*
X97548000Y-150270600D01*
G04 #@! TO.C,C36*
X95643000Y-151667600D02*
X95643000Y-149889600D01*
X96405000Y-151667600D02*
X95643000Y-151667600D01*
X96405000Y-149889600D02*
X96405000Y-151667600D01*
X95643000Y-149889600D02*
X96405000Y-149889600D01*
G04 #@! TO.C,C37*
X94627000Y-150296000D02*
X92849000Y-150296000D01*
X94627000Y-149534000D02*
X94627000Y-150296000D01*
X92849000Y-149534000D02*
X94627000Y-149534000D01*
X92849000Y-150296000D02*
X92849000Y-149534000D01*
G04 #@! TO.C,C38*
X71556600Y-142446200D02*
X73334600Y-142446200D01*
X71556600Y-143208200D02*
X71556600Y-142446200D01*
X73334600Y-143208200D02*
X71556600Y-143208200D01*
X73334600Y-142446200D02*
X73334600Y-143208200D01*
G04 #@! TO.C,C39*
X80924400Y-148234400D02*
X80924400Y-146456400D01*
X81686400Y-148234400D02*
X80924400Y-148234400D01*
X81686400Y-146456400D02*
X81686400Y-148234400D01*
X80924400Y-146456400D02*
X81686400Y-146456400D01*
G04 #@! TO.C,C40*
X71556600Y-143690800D02*
X73334600Y-143690800D01*
X71556600Y-144452800D02*
X71556600Y-143690800D01*
X73334600Y-144452800D02*
X71556600Y-144452800D01*
X73334600Y-143690800D02*
X73334600Y-144452800D01*
G04 #@! TO.C,C41*
X98437000Y-161446600D02*
X100215000Y-161446600D01*
X98437000Y-162208600D02*
X98437000Y-161446600D01*
X100215000Y-162208600D02*
X98437000Y-162208600D01*
X100215000Y-161446600D02*
X100215000Y-162208600D01*
G04 #@! TO.C,C42*
X98945000Y-155096600D02*
X97167000Y-155096600D01*
X98945000Y-154334600D02*
X98945000Y-155096600D01*
X97167000Y-154334600D02*
X98945000Y-154334600D01*
X97167000Y-155096600D02*
X97167000Y-154334600D01*
G04 #@! TO.C,C43*
X72898000Y-145796000D02*
X71120000Y-145796000D01*
X72898000Y-145034000D02*
X72898000Y-145796000D01*
X71120000Y-145034000D02*
X72898000Y-145034000D01*
X71120000Y-145796000D02*
X71120000Y-145034000D01*
G04 #@! TO.C,C44*
X79298800Y-150317200D02*
X79298800Y-148539200D01*
X80060800Y-150317200D02*
X79298800Y-150317200D01*
X80060800Y-148539200D02*
X80060800Y-150317200D01*
X79298800Y-148539200D02*
X80060800Y-148539200D01*
G04 #@! TO.C,C45*
X101701600Y-155270200D02*
X103479600Y-155270200D01*
X101701600Y-156032200D02*
X101701600Y-155270200D01*
X103479600Y-156032200D02*
X101701600Y-156032200D01*
X103479600Y-155270200D02*
X103479600Y-156032200D01*
G04 #@! TO.C,C46*
X103936800Y-157175200D02*
X102158800Y-157175200D01*
X103936800Y-156413200D02*
X103936800Y-157175200D01*
X102158800Y-156413200D02*
X103936800Y-156413200D01*
X102158800Y-157175200D02*
X102158800Y-156413200D01*
G04 #@! TO.C,C47*
X111785400Y-157454600D02*
X111785400Y-155676600D01*
X112547400Y-157454600D02*
X111785400Y-157454600D01*
X112547400Y-155676600D02*
X112547400Y-157454600D01*
X111785400Y-155676600D02*
X112547400Y-155676600D01*
G04 #@! TO.C,C48*
X108356400Y-154889200D02*
X108356400Y-153111200D01*
X109118400Y-154889200D02*
X108356400Y-154889200D01*
X109118400Y-153111200D02*
X109118400Y-154889200D01*
X108356400Y-153111200D02*
X109118400Y-153111200D01*
G04 #@! TO.C,C49*
X101231000Y-155350600D02*
X101231000Y-157128600D01*
X100469000Y-155350600D02*
X101231000Y-155350600D01*
X100469000Y-157128600D02*
X100469000Y-155350600D01*
X101231000Y-157128600D02*
X100469000Y-157128600D01*
G04 #@! TO.C,C50*
X74789000Y-152539000D02*
X76567000Y-152539000D01*
X74789000Y-153301000D02*
X74789000Y-152539000D01*
X76567000Y-153301000D02*
X74789000Y-153301000D01*
X76567000Y-152539000D02*
X76567000Y-153301000D01*
G04 #@! TO.C,C51*
X107630400Y-159815000D02*
X105852400Y-159815000D01*
X107630400Y-159053000D02*
X107630400Y-159815000D01*
X105852400Y-159053000D02*
X107630400Y-159053000D01*
X105852400Y-159815000D02*
X105852400Y-159053000D01*
G04 #@! TO.C,C52*
X71487000Y-153301000D02*
X69709000Y-153301000D01*
X71487000Y-152539000D02*
X71487000Y-153301000D01*
X69709000Y-152539000D02*
X71487000Y-152539000D01*
X69709000Y-153301000D02*
X69709000Y-152539000D01*
G04 #@! TO.C,C53*
X71836400Y-148380800D02*
X70058400Y-148380800D01*
X71836400Y-147618800D02*
X71836400Y-148380800D01*
X70058400Y-147618800D02*
X71836400Y-147618800D01*
X70058400Y-148380800D02*
X70058400Y-147618800D01*
G04 #@! TO.C,C54*
X104013000Y-160045400D02*
X102235000Y-160045400D01*
X104013000Y-159283400D02*
X104013000Y-160045400D01*
X102235000Y-159283400D02*
X104013000Y-159283400D01*
X102235000Y-160045400D02*
X102235000Y-159283400D01*
G04 #@! TO.C,C55*
X79488000Y-153047000D02*
X81266000Y-153047000D01*
X79488000Y-153809000D02*
X79488000Y-153047000D01*
X81266000Y-153809000D02*
X79488000Y-153809000D01*
X81266000Y-153047000D02*
X81266000Y-153809000D01*
G04 #@! TO.C,C56*
X107010200Y-155752800D02*
X107010200Y-153974800D01*
X107772200Y-155752800D02*
X107010200Y-155752800D01*
X107772200Y-153974800D02*
X107772200Y-155752800D01*
X107010200Y-153974800D02*
X107772200Y-153974800D01*
G04 #@! TO.C,C57*
X76454000Y-150317200D02*
X76454000Y-148539200D01*
X77216000Y-150317200D02*
X76454000Y-150317200D01*
X77216000Y-148539200D02*
X77216000Y-150317200D01*
X76454000Y-148539200D02*
X77216000Y-148539200D01*
G04 #@! TO.C,C58*
X71233000Y-156222000D02*
X71995000Y-156222000D01*
X71995000Y-156222000D02*
X71995000Y-158000000D01*
X71995000Y-158000000D02*
X71233000Y-158000000D01*
X71233000Y-158000000D02*
X71233000Y-156222000D01*
G04 #@! TO.C,C59*
X78853000Y-155333000D02*
X80631000Y-155333000D01*
X78853000Y-156095000D02*
X78853000Y-155333000D01*
X80631000Y-156095000D02*
X78853000Y-156095000D01*
X80631000Y-155333000D02*
X80631000Y-156095000D01*
G04 #@! TO.C,C60*
X74154000Y-151015000D02*
X75932000Y-151015000D01*
X74154000Y-151777000D02*
X74154000Y-151015000D01*
X75932000Y-151777000D02*
X74154000Y-151777000D01*
X75932000Y-151015000D02*
X75932000Y-151777000D01*
G04 #@! TO.C,C61*
X75982800Y-157212600D02*
X75982800Y-155434600D01*
X76744800Y-157212600D02*
X75982800Y-157212600D01*
X76744800Y-155434600D02*
X76744800Y-157212600D01*
X75982800Y-155434600D02*
X76744800Y-155434600D01*
G04 #@! TO.C,C62*
X74662000Y-159651000D02*
X76440000Y-159651000D01*
X74662000Y-160413000D02*
X74662000Y-159651000D01*
X76440000Y-160413000D02*
X74662000Y-160413000D01*
X76440000Y-159651000D02*
X76440000Y-160413000D01*
G04 #@! TO.C,C63*
X73468200Y-161352800D02*
X73468200Y-163130800D01*
X72706200Y-161352800D02*
X73468200Y-161352800D01*
X72706200Y-163130800D02*
X72706200Y-161352800D01*
X73468200Y-163130800D02*
X72706200Y-163130800D01*
G04 #@! TO.C,C64*
X71989000Y-161381000D02*
X70211000Y-161381000D01*
X71989000Y-160619000D02*
X71989000Y-161381000D01*
X70211000Y-160619000D02*
X71989000Y-160619000D01*
X70211000Y-161381000D02*
X70211000Y-160619000D01*
G04 #@! TO.C,C65*
X68947000Y-157619000D02*
X70725000Y-157619000D01*
X68947000Y-158381000D02*
X68947000Y-157619000D01*
X70725000Y-158381000D02*
X68947000Y-158381000D01*
X70725000Y-157619000D02*
X70725000Y-158381000D01*
G04 #@! TO.C,C66*
X68947000Y-155460000D02*
X70725000Y-155460000D01*
X68947000Y-156222000D02*
X68947000Y-155460000D01*
X70725000Y-156222000D02*
X68947000Y-156222000D01*
X70725000Y-155460000D02*
X70725000Y-156222000D01*
G04 #@! TO.C,C67*
X121461200Y-163407400D02*
X121461200Y-165185400D01*
X120699200Y-163407400D02*
X121461200Y-163407400D01*
X120699200Y-165185400D02*
X120699200Y-163407400D01*
X121461200Y-165185400D02*
X120699200Y-165185400D01*
G04 #@! TO.C,C68*
X127081400Y-156610400D02*
X127081400Y-154832400D01*
X127843400Y-156610400D02*
X127081400Y-156610400D01*
X127843400Y-154832400D02*
X127843400Y-156610400D01*
X127081400Y-154832400D02*
X127843400Y-154832400D01*
G04 #@! TO.C,C69*
X128199000Y-153892600D02*
X129977000Y-153892600D01*
X128199000Y-154654600D02*
X128199000Y-153892600D01*
X129977000Y-154654600D02*
X128199000Y-154654600D01*
X129977000Y-153892600D02*
X129977000Y-154654600D01*
G04 #@! TO.C,C70*
X121461200Y-165439400D02*
X121461200Y-167217400D01*
X120699200Y-165439400D02*
X121461200Y-165439400D01*
X120699200Y-167217400D02*
X120699200Y-165439400D01*
X121461200Y-167217400D02*
X120699200Y-167217400D01*
G04 #@! TO.C,C71*
X100863400Y-117668800D02*
X100863400Y-119446800D01*
X100101400Y-117668800D02*
X100863400Y-117668800D01*
X100101400Y-119446800D02*
X100101400Y-117668800D01*
X100863400Y-119446800D02*
X100101400Y-119446800D01*
G04 #@! TO.C,C72*
X99847400Y-117668800D02*
X99847400Y-119446800D01*
X99085400Y-117668800D02*
X99847400Y-117668800D01*
X99085400Y-119446800D02*
X99085400Y-117668800D01*
X99847400Y-119446800D02*
X99085400Y-119446800D01*
G04 #@! TO.C,C73*
X103784400Y-117668800D02*
X103784400Y-119446800D01*
X103022400Y-117668800D02*
X103784400Y-117668800D01*
X103022400Y-119446800D02*
X103022400Y-117668800D01*
X103784400Y-119446800D02*
X103022400Y-119446800D01*
G04 #@! TO.C,C74*
X102768400Y-117668800D02*
X102768400Y-119446800D01*
X102006400Y-117668800D02*
X102768400Y-117668800D01*
X102006400Y-119446800D02*
X102006400Y-117668800D01*
X102768400Y-119446800D02*
X102006400Y-119446800D01*
G04 #@! TO.C,C75*
X105816400Y-117668800D02*
X105816400Y-119446800D01*
X105054400Y-117668800D02*
X105816400Y-117668800D01*
X105054400Y-119446800D02*
X105054400Y-117668800D01*
X105816400Y-119446800D02*
X105054400Y-119446800D01*
G04 #@! TO.C,C76*
X106832400Y-117668800D02*
X106832400Y-119446800D01*
X106070400Y-117668800D02*
X106832400Y-117668800D01*
X106070400Y-119446800D02*
X106070400Y-117668800D01*
X106832400Y-119446800D02*
X106070400Y-119446800D01*
G04 #@! TO.C,C77*
X101244400Y-107254800D02*
X101244400Y-105476800D01*
X102006400Y-107254800D02*
X101244400Y-107254800D01*
X102006400Y-105476800D02*
X102006400Y-107254800D01*
X101244400Y-105476800D02*
X102006400Y-105476800D01*
G04 #@! TO.C,C78*
X100228400Y-107254800D02*
X100228400Y-105476800D01*
X100990400Y-107254800D02*
X100228400Y-107254800D01*
X100990400Y-105476800D02*
X100990400Y-107254800D01*
X100228400Y-105476800D02*
X100990400Y-105476800D01*
G04 #@! TO.C,C79*
X97624900Y-110874300D02*
X95846900Y-110874300D01*
X97624900Y-110112300D02*
X97624900Y-110874300D01*
X95846900Y-110112300D02*
X97624900Y-110112300D01*
X95846900Y-110874300D02*
X95846900Y-110112300D01*
G04 #@! TO.C,C80*
X96862900Y-109731300D02*
X96862900Y-107953300D01*
X97624900Y-109731300D02*
X96862900Y-109731300D01*
X97624900Y-107953300D02*
X97624900Y-109731300D01*
X96862900Y-107953300D02*
X97624900Y-107953300D01*
G04 #@! TO.C,C81*
X96989900Y-113541300D02*
X95211900Y-113541300D01*
X96989900Y-112779300D02*
X96989900Y-113541300D01*
X95211900Y-112779300D02*
X96989900Y-112779300D01*
X95211900Y-113541300D02*
X95211900Y-112779300D01*
G04 #@! TO.C,C82*
X96989900Y-112525300D02*
X95211900Y-112525300D01*
X96989900Y-111763300D02*
X96989900Y-112525300D01*
X95211900Y-111763300D02*
X96989900Y-111763300D01*
X95211900Y-112525300D02*
X95211900Y-111763300D01*
G04 #@! TO.C,C83*
X97243900Y-115700300D02*
X95465900Y-115700300D01*
X97243900Y-114938300D02*
X97243900Y-115700300D01*
X95465900Y-114938300D02*
X97243900Y-114938300D01*
X95465900Y-115700300D02*
X95465900Y-114938300D01*
G04 #@! TO.C,C84*
X106362500Y-146596100D02*
X106362500Y-148374100D01*
X105600500Y-146596100D02*
X106362500Y-146596100D01*
X105600500Y-148374100D02*
X105600500Y-146596100D01*
X106362500Y-148374100D02*
X105600500Y-148374100D01*
G04 #@! TO.C,C85*
X109410500Y-146596100D02*
X109410500Y-148374100D01*
X108648500Y-146596100D02*
X109410500Y-146596100D01*
X108648500Y-148374100D02*
X108648500Y-146596100D01*
X109410500Y-148374100D02*
X108648500Y-148374100D01*
G04 #@! TO.C,C86*
X114109500Y-144310100D02*
X114109500Y-146088100D01*
X113347500Y-144310100D02*
X114109500Y-144310100D01*
X113347500Y-146088100D02*
X113347500Y-144310100D01*
X114109500Y-146088100D02*
X113347500Y-146088100D01*
G04 #@! TO.C,C87*
X113347500Y-141516100D02*
X115125500Y-141516100D01*
X113347500Y-142278100D02*
X113347500Y-141516100D01*
X115125500Y-142278100D02*
X113347500Y-142278100D01*
X115125500Y-141516100D02*
X115125500Y-142278100D01*
G04 #@! TO.C,C88*
X114109500Y-140500100D02*
X115887500Y-140500100D01*
X114109500Y-141262100D02*
X114109500Y-140500100D01*
X115887500Y-141262100D02*
X114109500Y-141262100D01*
X115887500Y-140500100D02*
X115887500Y-141262100D01*
G04 #@! TO.C,C89*
X113347500Y-139484100D02*
X115125500Y-139484100D01*
X113347500Y-140246100D02*
X113347500Y-139484100D01*
X115125500Y-140246100D02*
X113347500Y-140246100D01*
X115125500Y-139484100D02*
X115125500Y-140246100D01*
G04 #@! TO.C,C90*
X109537500Y-137198100D02*
X109537500Y-135420100D01*
X110299500Y-137198100D02*
X109537500Y-137198100D01*
X110299500Y-135420100D02*
X110299500Y-137198100D01*
X109537500Y-135420100D02*
X110299500Y-135420100D01*
G04 #@! TO.C,C91*
X110553500Y-137198100D02*
X110553500Y-135420100D01*
X111315500Y-137198100D02*
X110553500Y-137198100D01*
X111315500Y-135420100D02*
X111315500Y-137198100D01*
X110553500Y-135420100D02*
X111315500Y-135420100D01*
G04 #@! TO.C,C92*
X103949500Y-140500100D02*
X102171500Y-140500100D01*
X103949500Y-139738100D02*
X103949500Y-140500100D01*
X102171500Y-139738100D02*
X103949500Y-139738100D01*
X102171500Y-140500100D02*
X102171500Y-139738100D01*
G04 #@! TO.C,C93*
X103949500Y-141516100D02*
X102171500Y-141516100D01*
X103949500Y-140754100D02*
X103949500Y-141516100D01*
X102171500Y-140754100D02*
X103949500Y-140754100D01*
X102171500Y-141516100D02*
X102171500Y-140754100D01*
G04 #@! TO.C,C94*
X103949500Y-143929100D02*
X102171500Y-143929100D01*
X103949500Y-143167100D02*
X103949500Y-143929100D01*
X102171500Y-143167100D02*
X103949500Y-143167100D01*
X102171500Y-143929100D02*
X102171500Y-143167100D01*
G04 #@! TO.C,C95*
X91567000Y-123079000D02*
X93345000Y-123079000D01*
X91567000Y-123841000D02*
X91567000Y-123079000D01*
X93345000Y-123841000D02*
X91567000Y-123841000D01*
X93345000Y-123079000D02*
X93345000Y-123841000D01*
G04 #@! TO.C,C96*
X94691200Y-123079000D02*
X96469200Y-123079000D01*
X94691200Y-123841000D02*
X94691200Y-123079000D01*
X96469200Y-123841000D02*
X94691200Y-123841000D01*
X96469200Y-123079000D02*
X96469200Y-123841000D01*
G04 #@! TO.C,C97*
X96799400Y-117668800D02*
X96799400Y-119446800D01*
X96037400Y-117668800D02*
X96799400Y-117668800D01*
X96037400Y-119446800D02*
X96037400Y-117668800D01*
X96799400Y-119446800D02*
X96037400Y-119446800D01*
G04 #@! TO.C,C98*
X97815400Y-117668800D02*
X97815400Y-119446800D01*
X97053400Y-117668800D02*
X97815400Y-117668800D01*
X97053400Y-119446800D02*
X97053400Y-117668800D01*
X97815400Y-119446800D02*
X97053400Y-119446800D01*
G04 #@! TO.C,C99*
X107378500Y-147612100D02*
X107378500Y-149390100D01*
X106616500Y-147612100D02*
X107378500Y-147612100D01*
X106616500Y-149390100D02*
X106616500Y-147612100D01*
X107378500Y-149390100D02*
X106616500Y-149390100D01*
G04 #@! TO.C,C100*
X98831400Y-117668800D02*
X98831400Y-119446800D01*
X98069400Y-117668800D02*
X98831400Y-117668800D01*
X98069400Y-119446800D02*
X98069400Y-117668800D01*
X98831400Y-119446800D02*
X98069400Y-119446800D01*
G04 #@! TO.C,C101*
X99758500Y-123320300D02*
X101536500Y-123320300D01*
X99758500Y-124082300D02*
X99758500Y-123320300D01*
X101536500Y-124082300D02*
X99758500Y-124082300D01*
X101536500Y-123320300D02*
X101536500Y-124082300D01*
G04 #@! TO.C,C102*
X108394500Y-147612100D02*
X108394500Y-149390100D01*
X107632500Y-147612100D02*
X108394500Y-147612100D01*
X107632500Y-149390100D02*
X107632500Y-147612100D01*
X108394500Y-149390100D02*
X107632500Y-149390100D01*
G04 #@! TO.C,C103*
X102882700Y-123320300D02*
X104660700Y-123320300D01*
X102882700Y-124082300D02*
X102882700Y-123320300D01*
X104660700Y-124082300D02*
X102882700Y-124082300D01*
X104660700Y-123320300D02*
X104660700Y-124082300D01*
G04 #@! TO.C,C104*
X110426500Y-147612100D02*
X110426500Y-149390100D01*
X109664500Y-147612100D02*
X110426500Y-147612100D01*
X109664500Y-149390100D02*
X109664500Y-147612100D01*
X110426500Y-149390100D02*
X109664500Y-149390100D01*
G04 #@! TO.C,C105*
X88067000Y-126130400D02*
X86238200Y-126130400D01*
X88067000Y-122574400D02*
X88067000Y-126130400D01*
X86238200Y-122574400D02*
X88067000Y-122574400D01*
X86238200Y-126130400D02*
X86238200Y-122574400D01*
G04 #@! TO.C,C106*
X111569500Y-137198100D02*
X111569500Y-135420100D01*
X112331500Y-137198100D02*
X111569500Y-137198100D01*
X112331500Y-135420100D02*
X112331500Y-137198100D01*
X111569500Y-135420100D02*
X112331500Y-135420100D01*
G04 #@! TO.C,C107*
X104089200Y-123053600D02*
X104089200Y-121275600D01*
X104851200Y-123053600D02*
X104089200Y-123053600D01*
X104851200Y-121275600D02*
X104851200Y-123053600D01*
X104089200Y-121275600D02*
X104851200Y-121275600D01*
G04 #@! TO.C,C108*
X102819200Y-123053600D02*
X102819200Y-121275600D01*
X103581200Y-123053600D02*
X102819200Y-123053600D01*
X103581200Y-121275600D02*
X103581200Y-123053600D01*
X102819200Y-121275600D02*
X103581200Y-121275600D01*
G04 #@! TO.C,C109*
X100965000Y-123053600D02*
X100965000Y-121275600D01*
X101727000Y-123053600D02*
X100965000Y-123053600D01*
X101727000Y-121275600D02*
X101727000Y-123053600D01*
X100965000Y-121275600D02*
X101727000Y-121275600D01*
G04 #@! TO.C,C110*
X99695000Y-123053600D02*
X99695000Y-121275600D01*
X100457000Y-123053600D02*
X99695000Y-123053600D01*
X100457000Y-121275600D02*
X100457000Y-123053600D01*
X99695000Y-121275600D02*
X100457000Y-121275600D01*
G04 #@! TO.C,C111*
X111442500Y-147612100D02*
X111442500Y-149390100D01*
X110680500Y-147612100D02*
X111442500Y-147612100D01*
X110680500Y-149390100D02*
X110680500Y-147612100D01*
X111442500Y-149390100D02*
X110680500Y-149390100D01*
G04 #@! TO.C,C112*
X114109500Y-137452100D02*
X114109500Y-139230100D01*
X113347500Y-137452100D02*
X114109500Y-137452100D01*
X113347500Y-139230100D02*
X113347500Y-137452100D01*
X114109500Y-139230100D02*
X113347500Y-139230100D01*
G04 #@! TO.C,C113*
X123532200Y-164577000D02*
X123532200Y-166355000D01*
X122770200Y-164577000D02*
X123532200Y-164577000D01*
X122770200Y-166355000D02*
X122770200Y-164577000D01*
X123532200Y-166355000D02*
X122770200Y-166355000D01*
G04 #@! TO.C,C114*
X117157500Y-137452100D02*
X117157500Y-139230100D01*
X116395500Y-137452100D02*
X117157500Y-137452100D01*
X116395500Y-139230100D02*
X116395500Y-137452100D01*
X117157500Y-139230100D02*
X116395500Y-139230100D01*
G04 #@! TO.C,C115*
X123703200Y-161995200D02*
X121925200Y-161995200D01*
X123703200Y-161233200D02*
X123703200Y-161995200D01*
X121925200Y-161233200D02*
X123703200Y-161233200D01*
X121925200Y-161995200D02*
X121925200Y-161233200D01*
G04 #@! TO.C,C116*
X121747400Y-160928400D02*
X119969400Y-160928400D01*
X121747400Y-160166400D02*
X121747400Y-160928400D01*
X119969400Y-160166400D02*
X121747400Y-160166400D01*
X119969400Y-160928400D02*
X119969400Y-160166400D01*
G04 #@! TO.C,C118*
X161789000Y-155481000D02*
X160011000Y-155481000D01*
X161789000Y-154719000D02*
X161789000Y-155481000D01*
X160011000Y-154719000D02*
X161789000Y-154719000D01*
X160011000Y-155481000D02*
X160011000Y-154719000D01*
G04 #@! TO.C,C119*
X128866200Y-159370000D02*
X128866200Y-157592000D01*
X129628200Y-159370000D02*
X128866200Y-159370000D01*
X129628200Y-157592000D02*
X129628200Y-159370000D01*
X128866200Y-157592000D02*
X129628200Y-157592000D01*
G04 #@! TO.C,C120*
X131247000Y-161512600D02*
X131247000Y-159734600D01*
X132009000Y-161512600D02*
X131247000Y-161512600D01*
X132009000Y-159734600D02*
X132009000Y-161512600D01*
X131247000Y-159734600D02*
X132009000Y-159734600D01*
G04 #@! TO.C,C121*
X122915800Y-163087400D02*
X121137800Y-163087400D01*
X122915800Y-162325400D02*
X122915800Y-163087400D01*
X121137800Y-162325400D02*
X122915800Y-162325400D01*
X121137800Y-163087400D02*
X121137800Y-162325400D01*
G04 #@! TO.C,C122*
X126725800Y-158693200D02*
X124947800Y-158693200D01*
X126725800Y-157931200D02*
X126725800Y-158693200D01*
X124947800Y-157931200D02*
X126725800Y-157931200D01*
X124947800Y-158693200D02*
X124947800Y-157931200D01*
G04 #@! TO.C,C123*
X108102400Y-112677700D02*
X109880400Y-112677700D01*
X108102400Y-113439700D02*
X108102400Y-112677700D01*
X109880400Y-113439700D02*
X108102400Y-113439700D01*
X109880400Y-112677700D02*
X109880400Y-113439700D01*
G04 #@! TO.C,C124*
X108102400Y-111661700D02*
X109880400Y-111661700D01*
X108102400Y-112423700D02*
X108102400Y-111661700D01*
X109880400Y-112423700D02*
X108102400Y-112423700D01*
X109880400Y-111661700D02*
X109880400Y-112423700D01*
G04 #@! TO.C,C125*
X174356000Y-118174200D02*
X172578000Y-118174200D01*
X174356000Y-117412200D02*
X174356000Y-118174200D01*
X172578000Y-117412200D02*
X174356000Y-117412200D01*
X172578000Y-118174200D02*
X172578000Y-117412200D01*
G04 #@! TO.C,C126*
X167752000Y-118326600D02*
X167752000Y-116497800D01*
X171308000Y-118326600D02*
X167752000Y-118326600D01*
X171308000Y-116497800D02*
X171308000Y-118326600D01*
X167752000Y-116497800D02*
X171308000Y-116497800D01*
G04 #@! TO.C,C127*
X167752000Y-116167600D02*
X167752000Y-114338800D01*
X171308000Y-116167600D02*
X167752000Y-116167600D01*
X171308000Y-114338800D02*
X171308000Y-116167600D01*
X167752000Y-114338800D02*
X171308000Y-114338800D01*
G04 #@! TO.C,C128*
X151205490Y-124177375D02*
X149948254Y-122920139D01*
X151744306Y-123638559D02*
X151205490Y-124177375D01*
X150487070Y-122381323D02*
X151744306Y-123638559D01*
X149948254Y-122920139D02*
X150487070Y-122381323D01*
G04 #@! TO.C,C129*
X144290692Y-126242834D02*
X143033456Y-124985598D01*
X144829508Y-125704018D02*
X144290692Y-126242834D01*
X143572272Y-124446782D02*
X144829508Y-125704018D01*
X143033456Y-124985598D02*
X143572272Y-124446782D01*
G04 #@! TO.C,C130*
X137914711Y-132618816D02*
X136657475Y-131361580D01*
X138453527Y-132080000D02*
X137914711Y-132618816D01*
X137196291Y-130822764D02*
X138453527Y-132080000D01*
X136657475Y-131361580D02*
X137196291Y-130822764D01*
G04 #@! TO.C,C131*
X133787000Y-137382600D02*
X132009000Y-137382600D01*
X133787000Y-136620600D02*
X133787000Y-137382600D01*
X132009000Y-136620600D02*
X133787000Y-136620600D01*
X132009000Y-137382600D02*
X132009000Y-136620600D01*
G04 #@! TO.C,C132*
X135396226Y-145354590D02*
X134138990Y-146611826D01*
X134857410Y-144815774D02*
X135396226Y-145354590D01*
X133600174Y-146073010D02*
X134857410Y-144815774D01*
X134138990Y-146611826D02*
X133600174Y-146073010D01*
G04 #@! TO.C,C133*
X141327209Y-151118143D02*
X140069973Y-152375379D01*
X140788393Y-150579327D02*
X141327209Y-151118143D01*
X139531157Y-151836563D02*
X140788393Y-150579327D01*
X140069973Y-152375379D02*
X139531157Y-151836563D01*
G04 #@! TO.C,C134*
X145907139Y-155698074D02*
X144649903Y-156955310D01*
X145368323Y-155159258D02*
X145907139Y-155698074D01*
X144111087Y-156416494D02*
X145368323Y-155159258D01*
X144649903Y-156955310D02*
X144111087Y-156416494D01*
G04 #@! TO.C,C135*
X153450554Y-154800048D02*
X154707790Y-156057284D01*
X152911738Y-155338864D02*
X153450554Y-154800048D01*
X154168974Y-156596100D02*
X152911738Y-155338864D01*
X154707790Y-156057284D02*
X154168974Y-156596100D01*
G04 #@! TO.C,C136*
X159108115Y-149142486D02*
X160365351Y-150399722D01*
X158569299Y-149681302D02*
X159108115Y-149142486D01*
X159826535Y-150938538D02*
X158569299Y-149681302D01*
X160365351Y-150399722D02*
X159826535Y-150938538D01*
G04 #@! TO.C,C137*
X160544956Y-147705645D02*
X161802192Y-148962881D01*
X160006140Y-148244461D02*
X160544956Y-147705645D01*
X161263376Y-149501697D02*
X160006140Y-148244461D01*
X161802192Y-148962881D02*
X161263376Y-149501697D01*
G04 #@! TO.C,C138*
X162610415Y-145640186D02*
X163867651Y-146897422D01*
X162071599Y-146179002D02*
X162610415Y-145640186D01*
X163328835Y-147436238D02*
X162071599Y-146179002D01*
X163867651Y-146897422D02*
X163328835Y-147436238D01*
G04 #@! TO.C,C139*
X164047256Y-144203345D02*
X165304492Y-145460581D01*
X163508440Y-144742161D02*
X164047256Y-144203345D01*
X164765676Y-145999397D02*
X163508440Y-144742161D01*
X165304492Y-145460581D02*
X164765676Y-145999397D01*
G04 #@! TO.C,C140*
X164586072Y-135582299D02*
X165843308Y-136839535D01*
X164047256Y-136121115D02*
X164586072Y-135582299D01*
X165304492Y-137378351D02*
X164047256Y-136121115D01*
X165843308Y-136839535D02*
X165304492Y-137378351D01*
G04 #@! TO.C,C141*
X156414038Y-127949082D02*
X157671274Y-126691846D01*
X156952854Y-128487898D02*
X156414038Y-127949082D01*
X158210090Y-127230662D02*
X156952854Y-128487898D01*
X157671274Y-126691846D02*
X158210090Y-127230662D01*
G04 #@! TO.C,C142*
X159197917Y-130912566D02*
X160455153Y-129655330D01*
X159736733Y-131451382D02*
X159197917Y-130912566D01*
X160993969Y-130194146D02*
X159736733Y-131451382D01*
X160455153Y-129655330D02*
X160993969Y-130194146D01*
G04 #@! TO.C,C143*
X173568600Y-110300200D02*
X175397400Y-110300200D01*
X173568600Y-113856200D02*
X173568600Y-110300200D01*
X175397400Y-113856200D02*
X173568600Y-113856200D01*
X175397400Y-110300200D02*
X175397400Y-113856200D01*
G04 #@! TO.C,C144*
X154508200Y-160959800D02*
X152730200Y-160959800D01*
X154508200Y-160197800D02*
X154508200Y-160959800D01*
X152730200Y-160197800D02*
X154508200Y-160197800D01*
X152730200Y-160959800D02*
X152730200Y-160197800D01*
G04 #@! TO.C,C145*
X171308000Y-107734800D02*
X171308000Y-109563600D01*
X167752000Y-107734800D02*
X171308000Y-107734800D01*
X167752000Y-109563600D02*
X167752000Y-107734800D01*
X171308000Y-109563600D02*
X167752000Y-109563600D01*
G04 #@! TO.C,C146*
X171308000Y-105575800D02*
X171308000Y-107404600D01*
X167752000Y-105575800D02*
X171308000Y-105575800D01*
X167752000Y-107404600D02*
X167752000Y-105575800D01*
X171308000Y-107404600D02*
X167752000Y-107404600D01*
G04 #@! TO.C,C147*
X173213000Y-111189200D02*
X173213000Y-112967200D01*
X172451000Y-111189200D02*
X173213000Y-111189200D01*
X172451000Y-112967200D02*
X172451000Y-111189200D01*
X173213000Y-112967200D02*
X172451000Y-112967200D01*
G04 #@! TO.C,C148*
X138049000Y-117271800D02*
X138049000Y-119049800D01*
X137287000Y-117271800D02*
X138049000Y-117271800D01*
X137287000Y-119049800D02*
X137287000Y-117271800D01*
X138049000Y-119049800D02*
X137287000Y-119049800D01*
G04 #@! TO.C,C149*
X137698600Y-111322200D02*
X139476600Y-111322200D01*
X137698600Y-112084200D02*
X137698600Y-111322200D01*
X139476600Y-112084200D02*
X137698600Y-112084200D01*
X139476600Y-111322200D02*
X139476600Y-112084200D01*
G04 #@! TO.C,C150*
X130429000Y-106476800D02*
X130429000Y-104698800D01*
X131191000Y-106476800D02*
X130429000Y-106476800D01*
X131191000Y-104698800D02*
X131191000Y-106476800D01*
X130429000Y-104698800D02*
X131191000Y-104698800D01*
G04 #@! TO.C,C151*
X116713000Y-107492800D02*
X117475000Y-107492800D01*
X117475000Y-107492800D02*
X117475000Y-109270800D01*
X117475000Y-109270800D02*
X116713000Y-109270800D01*
X116713000Y-109270800D02*
X116713000Y-107492800D01*
G04 #@! TO.C,C152*
X125303400Y-127629000D02*
X125303400Y-128391000D01*
X125303400Y-128391000D02*
X123525400Y-128391000D01*
X123525400Y-128391000D02*
X123525400Y-127629000D01*
X123525400Y-127629000D02*
X125303400Y-127629000D01*
G04 #@! TO.C,C153*
X115443000Y-117398800D02*
X113665000Y-117398800D01*
X115443000Y-116636800D02*
X115443000Y-117398800D01*
X113665000Y-116636800D02*
X115443000Y-116636800D01*
X113665000Y-117398800D02*
X113665000Y-116636800D01*
G04 #@! TO.C,C154*
X119385200Y-127070200D02*
X117607200Y-127070200D01*
X119385200Y-126308200D02*
X119385200Y-127070200D01*
X117607200Y-126308200D02*
X119385200Y-126308200D01*
X117607200Y-127070200D02*
X117607200Y-126308200D01*
G04 #@! TO.C,C155*
X179078000Y-116885600D02*
X179078000Y-118714400D01*
X175522000Y-116885600D02*
X179078000Y-116885600D01*
X175522000Y-118714400D02*
X175522000Y-116885600D01*
X179078000Y-118714400D02*
X175522000Y-118714400D01*
G04 #@! TO.C,C156*
X123652400Y-159379000D02*
X121874400Y-159379000D01*
X123652400Y-158617000D02*
X123652400Y-159379000D01*
X121874400Y-158617000D02*
X123652400Y-158617000D01*
X121874400Y-159379000D02*
X121874400Y-158617000D01*
G04 #@! TO.C,C157*
X163418638Y-134594471D02*
X164675874Y-133337235D01*
X163957454Y-135133287D02*
X163418638Y-134594471D01*
X165214690Y-133876051D02*
X163957454Y-135133287D01*
X164675874Y-133337235D02*
X165214690Y-133876051D01*
G04 #@! TO.C,C158*
X164496269Y-129565528D02*
X165753505Y-130822764D01*
X163957453Y-130104344D02*
X164496269Y-129565528D01*
X165214689Y-131361580D02*
X163957453Y-130104344D01*
X165753505Y-130822764D02*
X165214689Y-131361580D01*
G04 #@! TO.C,C159*
X131882000Y-151352600D02*
X130104000Y-151352600D01*
X131882000Y-150590600D02*
X131882000Y-151352600D01*
X130104000Y-150590600D02*
X131882000Y-150590600D01*
X130104000Y-151352600D02*
X130104000Y-150590600D01*
G04 #@! TO.C,C160*
X76440000Y-162191000D02*
X74662000Y-162191000D01*
X76440000Y-161429000D02*
X76440000Y-162191000D01*
X74662000Y-161429000D02*
X76440000Y-161429000D01*
X74662000Y-162191000D02*
X74662000Y-161429000D01*
G04 #@! TO.C,C161*
X78486700Y-167295800D02*
X78486700Y-169073800D01*
X77724700Y-167295800D02*
X78486700Y-167295800D01*
X77724700Y-169073800D02*
X77724700Y-167295800D01*
X78486700Y-169073800D02*
X77724700Y-169073800D01*
G04 #@! TO.C,C162*
X75805000Y-162699000D02*
X77583000Y-162699000D01*
X75805000Y-163461000D02*
X75805000Y-162699000D01*
X77583000Y-163461000D02*
X75805000Y-163461000D01*
X77583000Y-162699000D02*
X77583000Y-163461000D01*
G04 #@! TO.C,C163*
X69709000Y-151396000D02*
X71487000Y-151396000D01*
X69709000Y-152158000D02*
X69709000Y-151396000D01*
X71487000Y-152158000D02*
X69709000Y-152158000D01*
X71487000Y-151396000D02*
X71487000Y-152158000D01*
G04 #@! TO.C,C164*
X161111000Y-151519000D02*
X162889000Y-151519000D01*
X161111000Y-152281000D02*
X161111000Y-151519000D01*
X162889000Y-152281000D02*
X161111000Y-152281000D01*
X162889000Y-151519000D02*
X162889000Y-152281000D01*
G04 #@! TO.C,C165*
X135590400Y-167176800D02*
X133812400Y-167176800D01*
X135590400Y-166414800D02*
X135590400Y-167176800D01*
X133812400Y-166414800D02*
X135590400Y-166414800D01*
X133812400Y-167176800D02*
X133812400Y-166414800D01*
G04 #@! TO.C,C166*
X120096400Y-165246400D02*
X120096400Y-167024400D01*
X119334400Y-165246400D02*
X120096400Y-165246400D01*
X119334400Y-167024400D02*
X119334400Y-165246400D01*
X120096400Y-167024400D02*
X119334400Y-167024400D01*
G04 #@! TO.C,C167*
X82174200Y-119221600D02*
X82174200Y-120999600D01*
X81412200Y-119221600D02*
X82174200Y-119221600D01*
X81412200Y-120999600D02*
X81412200Y-119221600D01*
X82174200Y-120999600D02*
X81412200Y-120999600D01*
G04 #@! TO.C,C168*
X140645000Y-127883000D02*
X138867000Y-127883000D01*
X140645000Y-127121000D02*
X140645000Y-127883000D01*
X138867000Y-127121000D02*
X140645000Y-127121000D01*
X138867000Y-127883000D02*
X138867000Y-127121000D01*
G04 #@! TO.C,C169*
X126492000Y-170281600D02*
X126492000Y-169519600D01*
X126492000Y-169519600D02*
X128270000Y-169519600D01*
X128270000Y-169519600D02*
X128270000Y-170281600D01*
X128270000Y-170281600D02*
X126492000Y-170281600D01*
G04 #@! TO.C,C170*
X122119000Y-167311000D02*
X122881000Y-167311000D01*
X122881000Y-167311000D02*
X122881000Y-169089000D01*
X122881000Y-169089000D02*
X122119000Y-169089000D01*
X122119000Y-169089000D02*
X122119000Y-167311000D01*
G04 #@! TO.C,C171*
X73181000Y-165911000D02*
X73181000Y-167689000D01*
X72419000Y-165911000D02*
X73181000Y-165911000D01*
X72419000Y-167689000D02*
X72419000Y-165911000D01*
X73181000Y-167689000D02*
X72419000Y-167689000D01*
G04 #@! TO.C,D1*
X65819000Y-162389000D02*
X65819000Y-160611000D01*
X66581000Y-162389000D02*
X65819000Y-162389000D01*
X66581000Y-160611000D02*
X66581000Y-162389000D01*
X65819000Y-160611000D02*
X66581000Y-160611000D01*
G04 #@! TO.C,D3*
X172649000Y-166262400D02*
X172649000Y-164484400D01*
X173411000Y-166262400D02*
X172649000Y-166262400D01*
X173411000Y-164484400D02*
X173411000Y-166262400D01*
X172649000Y-164484400D02*
X173411000Y-164484400D01*
G04 #@! TO.C,D9*
X176566800Y-151381000D02*
X174788800Y-151381000D01*
X176566800Y-150619000D02*
X176566800Y-151381000D01*
X174788800Y-150619000D02*
X176566800Y-150619000D01*
X174788800Y-151381000D02*
X174788800Y-150619000D01*
G04 #@! TO.C,FB1*
X172778000Y-121135600D02*
X172778000Y-122964400D01*
X169222000Y-121135600D02*
X172778000Y-121135600D01*
X169222000Y-122964400D02*
X169222000Y-121135600D01*
X172778000Y-122964400D02*
X169222000Y-122964400D01*
G04 #@! TO.C,FB2*
X85699600Y-121615200D02*
X85699600Y-123444000D01*
X82143600Y-121615200D02*
X85699600Y-121615200D01*
X82143600Y-123444000D02*
X82143600Y-121615200D01*
X85699600Y-123444000D02*
X82143600Y-123444000D01*
G04 #@! TO.C,FB3*
X172778000Y-126885600D02*
X172778000Y-128714400D01*
X169222000Y-126885600D02*
X172778000Y-126885600D01*
X169222000Y-128714400D02*
X169222000Y-126885600D01*
X172778000Y-128714400D02*
X169222000Y-128714400D01*
G04 #@! TO.C,J10*
X115200000Y-131500000D02*
X115200000Y-127500000D01*
X112800000Y-131500000D02*
X115200000Y-131500000D01*
X112800000Y-127500000D02*
X112800000Y-131500000D01*
X115200000Y-127500000D02*
X112800000Y-127500000D01*
G04 #@! TO.C,L1*
X94271400Y-161954600D02*
X96049400Y-161954600D01*
X94271400Y-162716600D02*
X94271400Y-161954600D01*
X96049400Y-162716600D02*
X94271400Y-162716600D01*
X96049400Y-161954600D02*
X96049400Y-162716600D01*
G04 #@! TO.C,L2*
X98081400Y-161167200D02*
X99300600Y-161167200D01*
X98081400Y-158424000D02*
X98081400Y-161167200D01*
X99300600Y-158424000D02*
X98081400Y-158424000D01*
X99300600Y-161167200D02*
X99300600Y-158424000D01*
G04 #@! TO.C,L3*
X99300600Y-155376000D02*
X98081400Y-155376000D01*
X99300600Y-158119200D02*
X99300600Y-155376000D01*
X98081400Y-158119200D02*
X99300600Y-158119200D01*
X98081400Y-155376000D02*
X98081400Y-158119200D01*
G04 #@! TO.C,L4*
X97802000Y-157382600D02*
X97802000Y-159160600D01*
X97040000Y-157382600D02*
X97802000Y-157382600D01*
X97040000Y-159160600D02*
X97040000Y-157382600D01*
X97802000Y-159160600D02*
X97040000Y-159160600D01*
G04 #@! TO.C,L5*
X74509600Y-153529600D02*
X74509600Y-152310400D01*
X71766400Y-153529600D02*
X74509600Y-153529600D01*
X71766400Y-152310400D02*
X71766400Y-153529600D01*
X74509600Y-152310400D02*
X71766400Y-152310400D01*
G04 #@! TO.C,L6*
X106616500Y-149644100D02*
X108394500Y-149644100D01*
X106616500Y-150406100D02*
X106616500Y-149644100D01*
X108394500Y-150406100D02*
X106616500Y-150406100D01*
X108394500Y-149644100D02*
X108394500Y-150406100D01*
G04 #@! TO.C,L7*
X106616500Y-146596100D02*
X108394500Y-146596100D01*
X106616500Y-147358100D02*
X106616500Y-146596100D01*
X108394500Y-147358100D02*
X106616500Y-147358100D01*
X108394500Y-146596100D02*
X108394500Y-147358100D01*
G04 #@! TO.C,L8*
X109664500Y-149644100D02*
X111442500Y-149644100D01*
X109664500Y-150406100D02*
X109664500Y-149644100D01*
X111442500Y-150406100D02*
X109664500Y-150406100D01*
X111442500Y-149644100D02*
X111442500Y-150406100D01*
G04 #@! TO.C,L9*
X109664500Y-146596100D02*
X111442500Y-146596100D01*
X109664500Y-147358100D02*
X109664500Y-146596100D01*
X111442500Y-147358100D02*
X109664500Y-147358100D01*
X111442500Y-146596100D02*
X111442500Y-147358100D01*
G04 #@! TO.C,L10*
X163012360Y-113561560D02*
X167411640Y-113561560D01*
X163012360Y-117960840D02*
X163012360Y-113561560D01*
X167411640Y-117960840D02*
X163012360Y-117960840D01*
X167411640Y-113561560D02*
X167411640Y-117960840D01*
G04 #@! TO.C,L11*
X163012360Y-105941560D02*
X167411640Y-105941560D01*
X163012360Y-110340840D02*
X163012360Y-105941560D01*
X167411640Y-110340840D02*
X163012360Y-110340840D01*
X167411640Y-105941560D02*
X167411640Y-110340840D01*
G04 #@! TO.C,L12*
X77938600Y-159549400D02*
X76719400Y-159549400D01*
X77938600Y-162292600D02*
X77938600Y-159549400D01*
X76719400Y-162292600D02*
X77938600Y-162292600D01*
X76719400Y-159549400D02*
X76719400Y-162292600D01*
G04 #@! TO.C,L13*
X68790400Y-160428400D02*
X68790400Y-163171600D01*
X68790400Y-163171600D02*
X70009600Y-163171600D01*
X70009600Y-163171600D02*
X70009600Y-160428400D01*
X70009600Y-160428400D02*
X68790400Y-160428400D01*
D15*
G04 #@! TO.C,P3*
X146360000Y-116580000D02*
X143820000Y-116580000D01*
X143820000Y-121660000D02*
X143820000Y-116580000D01*
X146360000Y-121660000D02*
X143820000Y-121660000D01*
X146360000Y-116580000D02*
X146360000Y-121660000D01*
G04 #@! TO.C,P5*
X93020000Y-103880000D02*
X93020000Y-108960000D01*
X85400000Y-103880000D02*
X93020000Y-103880000D01*
X85400000Y-108960000D02*
X85400000Y-103880000D01*
X93020000Y-108960000D02*
X85400000Y-108960000D01*
X90480000Y-103245000D02*
X90480000Y-106420000D01*
X93655000Y-103245000D02*
X90480000Y-103245000D01*
X93655000Y-106420000D02*
X93655000Y-103245000D01*
X90480000Y-106420000D02*
X93655000Y-106420000D01*
D11*
G04 #@! TO.C,P6*
X97866200Y-160070800D02*
G75*
G03*
X97866200Y-160070800I-711200J0D01*
G01*
G04 #@! TO.C,P7*
X89433400Y-161163000D02*
G75*
G03*
X89433400Y-161163000I-711200J0D01*
G01*
D15*
G04 #@! TO.C,P9*
X108260000Y-126740000D02*
X108260000Y-131820000D01*
X105720000Y-126105000D02*
X105720000Y-129280000D01*
X108895000Y-126105000D02*
X105720000Y-126105000D01*
X108895000Y-129280000D02*
X108895000Y-126105000D01*
X105720000Y-129280000D02*
X108895000Y-129280000D01*
X87940000Y-126740000D02*
X108260000Y-126740000D01*
X87940000Y-131820000D02*
X87940000Y-126740000D01*
X108260000Y-131820000D02*
X87940000Y-131820000D01*
D11*
G04 #@! TO.C,P13*
X88473400Y-159175800D02*
G75*
G03*
X88473400Y-159175800I-711200J0D01*
G01*
G04 #@! TO.C,P14*
X115702200Y-143707200D02*
G75*
G03*
X115702200Y-143707200I-711200J0D01*
G01*
G04 #@! TO.C,P15*
X130886200Y-169240200D02*
G75*
G03*
X130886200Y-169240200I-711200J0D01*
G01*
G04 #@! TO.C,P17*
X87990800Y-155696000D02*
G75*
G03*
X87990800Y-155696000I-711200J0D01*
G01*
G04 #@! TO.C,P18*
X134061200Y-165100000D02*
G75*
G03*
X134061200Y-165100000I-711200J0D01*
G01*
G04 #@! TO.C,P19*
X97566600Y-161665000D02*
G75*
G03*
X97566600Y-161665000I-711200J0D01*
G01*
D15*
G04 #@! TO.C,P20*
X174300000Y-157220000D02*
X169220000Y-157220000D01*
X174935000Y-154680000D02*
X171760000Y-154680000D01*
X174935000Y-157855000D02*
X174935000Y-154680000D01*
X171760000Y-157855000D02*
X174935000Y-157855000D01*
X171760000Y-154680000D02*
X171760000Y-157855000D01*
X174300000Y-129280000D02*
X174300000Y-157220000D01*
X169220000Y-129280000D02*
X174300000Y-129280000D01*
X169220000Y-157220000D02*
X169220000Y-129280000D01*
D11*
G04 #@! TO.C,P21*
X88041600Y-157448600D02*
G75*
G03*
X88041600Y-157448600I-711200J0D01*
G01*
D15*
G04 #@! TO.C,P22*
X169220000Y-162300000D02*
X169220000Y-167380000D01*
X166680000Y-161665000D02*
X166680000Y-164840000D01*
X169855000Y-161665000D02*
X166680000Y-161665000D01*
X169855000Y-164840000D02*
X169855000Y-161665000D01*
X166680000Y-164840000D02*
X169855000Y-164840000D01*
X136200000Y-167380000D02*
X136200000Y-162300000D01*
X169220000Y-167380000D02*
X136200000Y-167380000D01*
X136200000Y-162300000D02*
X169220000Y-162300000D01*
D11*
G04 #@! TO.C,P23*
X156443800Y-123260200D02*
G75*
G03*
X156443800Y-123260200I-711200J0D01*
G01*
G04 #@! TO.C,P24*
X156438600Y-125196600D02*
G75*
G03*
X156438600Y-125196600I-711200J0D01*
G01*
D15*
G04 #@! TO.C,P25*
X135565000Y-160395000D02*
X138740000Y-160395000D01*
X136200000Y-157220000D02*
X136200000Y-159760000D01*
X135565000Y-156585000D02*
X135565000Y-160395000D01*
X138740000Y-156585000D02*
X135565000Y-156585000D01*
X138740000Y-160395000D02*
X138740000Y-156585000D01*
X151440000Y-159760000D02*
X136200000Y-159760000D01*
X151440000Y-157220000D02*
X151440000Y-159760000D01*
X136200000Y-157220000D02*
X151440000Y-157220000D01*
D11*
G04 #@! TO.C,P26*
X150595800Y-113831600D02*
X150595800Y-120181600D01*
X153999400Y-113831600D02*
X150595800Y-113831600D01*
X153999400Y-120181600D02*
X150595800Y-120181600D01*
X153999400Y-120181600D02*
X153999400Y-113831600D01*
G04 #@! TO.C,P27*
X95001200Y-148304600D02*
G75*
G03*
X95001200Y-148304600I-711200J0D01*
G01*
D15*
G04 #@! TO.C,P28*
X126040000Y-157220000D02*
X120960000Y-157220000D01*
X126675000Y-154680000D02*
X123500000Y-154680000D01*
X126675000Y-157855000D02*
X126675000Y-154680000D01*
X123500000Y-157855000D02*
X126675000Y-157855000D01*
X123500000Y-154680000D02*
X123500000Y-157855000D01*
X126040000Y-129280000D02*
X126040000Y-157220000D01*
X120960000Y-129280000D02*
X126040000Y-129280000D01*
X120960000Y-157220000D02*
X120960000Y-129280000D01*
G04 #@! TO.C,P29*
X127945000Y-134995000D02*
X131120000Y-134995000D01*
X128580000Y-131820000D02*
X128580000Y-134360000D01*
X127945000Y-131185000D02*
X127945000Y-134995000D01*
X131120000Y-131185000D02*
X127945000Y-131185000D01*
X131120000Y-134995000D02*
X131120000Y-131185000D01*
X133660000Y-134360000D02*
X128580000Y-134360000D01*
X133660000Y-131820000D02*
X133660000Y-134360000D01*
X128580000Y-131820000D02*
X133660000Y-131820000D01*
G04 #@! TO.C,P30*
X161600000Y-103880000D02*
X161600000Y-108960000D01*
X159060000Y-103245000D02*
X159060000Y-106420000D01*
X162235000Y-103245000D02*
X159060000Y-103245000D01*
X162235000Y-106420000D02*
X162235000Y-103245000D01*
X159060000Y-106420000D02*
X162235000Y-106420000D01*
X136200000Y-103880000D02*
X161600000Y-103880000D01*
X136200000Y-108960000D02*
X136200000Y-103880000D01*
X161600000Y-108960000D02*
X136200000Y-108960000D01*
D11*
G04 #@! TO.C,P31*
X97185600Y-153486200D02*
G75*
G03*
X97185600Y-153486200I-711200J0D01*
G01*
G04 #@! TO.C,P32*
X100431600Y-151130000D02*
G75*
G03*
X100431600Y-151130000I-711200J0D01*
G01*
G04 #@! TO.C,P33*
X100563800Y-153511600D02*
G75*
G03*
X100563800Y-153511600I-711200J0D01*
G01*
G04 #@! TO.C,P34*
X110469800Y-163366800D02*
G75*
G03*
X110469800Y-163366800I-711200J0D01*
G01*
G04 #@! TO.C,P35*
X110711200Y-169400000D02*
G75*
G03*
X110711200Y-169400000I-711200J0D01*
G01*
G04 #@! TO.C,P37*
X134422000Y-155746800D02*
G75*
G03*
X134422000Y-155746800I-711200J0D01*
G01*
G04 #@! TO.C,P38*
X134726800Y-150336600D02*
G75*
G03*
X134726800Y-150336600I-711200J0D01*
G01*
G04 #@! TO.C,P39*
X99039800Y-106318400D02*
G75*
G03*
X99039800Y-106318400I-711200J0D01*
G01*
G04 #@! TO.C,P40*
X137165200Y-128264000D02*
G75*
G03*
X137165200Y-128264000I-711200J0D01*
G01*
G04 #@! TO.C,P41*
X142245200Y-128518000D02*
G75*
G03*
X142245200Y-128518000I-711200J0D01*
G01*
G04 #@! TO.C,P43*
X103637200Y-161995200D02*
G75*
G03*
X103637200Y-161995200I-711200J0D01*
G01*
G04 #@! TO.C,P44*
X86771600Y-144799400D02*
G75*
G03*
X86771600Y-144799400I-711200J0D01*
G01*
G04 #@! TO.C,P45*
X77711200Y-137300000D02*
G75*
G03*
X77711200Y-137300000I-711200J0D01*
G01*
G04 #@! TO.C,P46*
X82174200Y-149295200D02*
G75*
G03*
X82174200Y-149295200I-711200J0D01*
G01*
G04 #@! TO.C,P47*
X74046200Y-141167200D02*
G75*
G03*
X74046200Y-141167200I-711200J0D01*
G01*
G04 #@! TO.C,P48*
X82834600Y-154832400D02*
G75*
G03*
X82834600Y-154832400I-711200J0D01*
G01*
G04 #@! TO.C,P49*
X78892400Y-150037800D02*
G75*
G03*
X78892400Y-150037800I-711200J0D01*
G01*
G04 #@! TO.C,P50*
X144734400Y-154349800D02*
G75*
G03*
X144734400Y-154349800I-711200J0D01*
G01*
G04 #@! TO.C,P51*
X75417800Y-166389400D02*
G75*
G03*
X75417800Y-166389400I-711200J0D01*
G01*
G04 #@! TO.C,P52*
X72694800Y-146710400D02*
G75*
G03*
X72694800Y-146710400I-711200J0D01*
G01*
G04 #@! TO.C,P53*
X132720200Y-135528400D02*
G75*
G03*
X132720200Y-135528400I-711200J0D01*
G01*
G04 #@! TO.C,P54*
X96347400Y-108833000D02*
G75*
G03*
X96347400Y-108833000I-711200J0D01*
G01*
G04 #@! TO.C,P55*
X104018200Y-145688400D02*
G75*
G03*
X104018200Y-145688400I-711200J0D01*
G01*
G04 #@! TO.C,P56*
X105262800Y-146983800D02*
G75*
G03*
X105262800Y-146983800I-711200J0D01*
G01*
G04 #@! TO.C,P57*
X120756800Y-143935800D02*
G75*
G03*
X120756800Y-143935800I-711200J0D01*
G01*
G04 #@! TO.C,P58*
X112044600Y-123463400D02*
G75*
G03*
X112044600Y-123463400I-711200J0D01*
G01*
G04 #@! TO.C,P59*
X129265800Y-152673400D02*
G75*
G03*
X129265800Y-152673400I-711200J0D01*
G01*
G04 #@! TO.C,P60*
X132263000Y-156737400D02*
G75*
G03*
X132263000Y-156737400I-711200J0D01*
G01*
G04 #@! TO.C,P61*
X112679600Y-119577200D02*
G75*
G03*
X112679600Y-119577200I-711200J0D01*
G01*
G04 #@! TO.C,P62*
X114604800Y-111455200D02*
G75*
G03*
X114604800Y-111455200I-711200J0D01*
G01*
G04 #@! TO.C,P63*
X114274600Y-109474000D02*
G75*
G03*
X114274600Y-109474000I-711200J0D01*
G01*
G04 #@! TO.C,P64*
X104648000Y-105283000D02*
G75*
G03*
X104648000Y-105283000I-711200J0D01*
G01*
G04 #@! TO.C,P65*
X112197000Y-114294000D02*
G75*
G03*
X112197000Y-114294000I-711200J0D01*
G01*
G04 #@! TO.C,P66*
X120147200Y-107461400D02*
G75*
G03*
X120147200Y-107461400I-711200J0D01*
G01*
G04 #@! TO.C,P67*
X166857800Y-138195400D02*
G75*
G03*
X166857800Y-138195400I-711200J0D01*
G01*
G04 #@! TO.C,P68*
X158882200Y-151784400D02*
G75*
G03*
X158882200Y-151784400I-711200J0D01*
G01*
G04 #@! TO.C,P69*
X159060000Y-120440800D02*
G75*
G03*
X159060000Y-120440800I-711200J0D01*
G01*
G04 #@! TO.C,P70*
X67747000Y-129838800D02*
G75*
G03*
X67747000Y-129838800I-711200J0D01*
G01*
G04 #@! TO.C,P71*
X167873800Y-129076800D02*
G75*
G03*
X167873800Y-129076800I-711200J0D01*
G01*
G04 #@! TO.C,P72*
X163352600Y-129407000D02*
G75*
G03*
X163352600Y-129407000I-711200J0D01*
G01*
G04 #@! TO.C,P73*
X140492600Y-122218800D02*
G75*
G03*
X140492600Y-122218800I-711200J0D01*
G01*
G04 #@! TO.C,P74*
X142849600Y-123088400D02*
G75*
G03*
X142849600Y-123088400I-711200J0D01*
G01*
G04 #@! TO.C,P75*
X147960200Y-115487800D02*
G75*
G03*
X147960200Y-115487800I-711200J0D01*
G01*
G04 #@! TO.C,P76*
X143108800Y-120821800D02*
G75*
G03*
X143108800Y-120821800I-711200J0D01*
G01*
G04 #@! TO.C,P77*
X142905600Y-114675000D02*
G75*
G03*
X142905600Y-114675000I-711200J0D01*
G01*
G04 #@! TO.C,P78*
X134422000Y-126562200D02*
G75*
G03*
X134422000Y-126562200I-711200J0D01*
G01*
G04 #@! TO.C,P79*
X135793600Y-133420200D02*
G75*
G03*
X135793600Y-133420200I-711200J0D01*
G01*
D15*
G04 #@! TO.C,P80*
X179380000Y-129280000D02*
X176840000Y-129280000D01*
X176840000Y-134360000D02*
X176840000Y-129280000D01*
X179380000Y-134360000D02*
X176840000Y-134360000D01*
X179380000Y-129280000D02*
X179380000Y-134360000D01*
D11*
G04 #@! TO.C,P81*
X167746800Y-158032800D02*
G75*
G03*
X167746800Y-158032800I-711200J0D01*
G01*
G04 #@! TO.C,P82*
X154970600Y-158286800D02*
G75*
G03*
X154970600Y-158286800I-711200J0D01*
G01*
G04 #@! TO.C,P83*
X112755800Y-159658400D02*
G75*
G03*
X112755800Y-159658400I-711200J0D01*
G01*
G04 #@! TO.C,P84*
X103484800Y-166999000D02*
G75*
G03*
X103484800Y-166999000I-711200J0D01*
G01*
G04 #@! TO.C,P85*
X97896800Y-148406200D02*
G75*
G03*
X97896800Y-148406200I-711200J0D01*
G01*
G04 #@! TO.C,P86*
X92283400Y-140811600D02*
G75*
G03*
X92283400Y-140811600I-711200J0D01*
G01*
G04 #@! TO.C,P87*
X75111200Y-164400000D02*
G75*
G03*
X75111200Y-164400000I-711200J0D01*
G01*
G04 #@! TO.C,P88*
X82606000Y-151809800D02*
G75*
G03*
X82606000Y-151809800I-711200J0D01*
G01*
G04 #@! TO.C,P89*
X87838400Y-161995200D02*
G75*
G03*
X87838400Y-161995200I-711200J0D01*
G01*
G04 #@! TO.C,P90*
X70160000Y-146577400D02*
G75*
G03*
X70160000Y-146577400I-711200J0D01*
G01*
G04 #@! TO.C,P91*
X105974000Y-152622600D02*
G75*
G03*
X105974000Y-152622600I-711200J0D01*
G01*
G04 #@! TO.C,P92*
X114152800Y-151581200D02*
G75*
G03*
X114152800Y-151581200I-711200J0D01*
G01*
G04 #@! TO.C,R1*
X89445400Y-151794600D02*
X89445400Y-153572600D01*
X88683400Y-151794600D02*
X89445400Y-151794600D01*
X88683400Y-153572600D02*
X88683400Y-151794600D01*
X89445400Y-153572600D02*
X88683400Y-153572600D01*
G04 #@! TO.C,R2*
X90588400Y-150016600D02*
X88810400Y-150016600D01*
X90588400Y-149254600D02*
X90588400Y-150016600D01*
X88810400Y-149254600D02*
X90588400Y-149254600D01*
X88810400Y-150016600D02*
X88810400Y-149254600D01*
G04 #@! TO.C,R3*
X90969400Y-153572600D02*
X90969400Y-151794600D01*
X91731400Y-153572600D02*
X90969400Y-153572600D01*
X91731400Y-151794600D02*
X91731400Y-153572600D01*
X90969400Y-151794600D02*
X91731400Y-151794600D01*
G04 #@! TO.C,R4*
X94754000Y-151439000D02*
X94754000Y-153217000D01*
X93992000Y-151439000D02*
X94754000Y-151439000D01*
X93992000Y-153217000D02*
X93992000Y-151439000D01*
X94754000Y-153217000D02*
X93992000Y-153217000D01*
G04 #@! TO.C,R5*
X137999790Y-130032974D02*
X139257026Y-131290210D01*
X137460974Y-130571790D02*
X137999790Y-130032974D01*
X138718210Y-131829026D02*
X137460974Y-130571790D01*
X139257026Y-131290210D02*
X138718210Y-131829026D01*
G04 #@! TO.C,R6*
X138761790Y-129270974D02*
X140019026Y-130528210D01*
X138222974Y-129809790D02*
X138761790Y-129270974D01*
X139480210Y-131067026D02*
X138222974Y-129809790D01*
X140019026Y-130528210D02*
X139480210Y-131067026D01*
G04 #@! TO.C,R7*
X67493000Y-124835000D02*
X67493000Y-123057000D01*
X68255000Y-124835000D02*
X67493000Y-124835000D01*
X68255000Y-123057000D02*
X68255000Y-124835000D01*
X67493000Y-123057000D02*
X68255000Y-123057000D01*
G04 #@! TO.C,R8*
X92202000Y-121047000D02*
X92202000Y-122825000D01*
X91440000Y-121047000D02*
X92202000Y-121047000D01*
X91440000Y-122825000D02*
X91440000Y-121047000D01*
X92202000Y-122825000D02*
X91440000Y-122825000D01*
G04 #@! TO.C,R9*
X93472000Y-121047000D02*
X93472000Y-122825000D01*
X92710000Y-121047000D02*
X93472000Y-121047000D01*
X92710000Y-122825000D02*
X92710000Y-121047000D01*
X93472000Y-122825000D02*
X92710000Y-122825000D01*
G04 #@! TO.C,R10*
X95326200Y-121047000D02*
X95326200Y-122825000D01*
X94564200Y-121047000D02*
X95326200Y-121047000D01*
X94564200Y-122825000D02*
X94564200Y-121047000D01*
X95326200Y-122825000D02*
X94564200Y-122825000D01*
G04 #@! TO.C,R11*
X146918800Y-123768200D02*
X145140800Y-123768200D01*
X146918800Y-123006200D02*
X146918800Y-123768200D01*
X145140800Y-123006200D02*
X146918800Y-123006200D01*
X145140800Y-123768200D02*
X145140800Y-123006200D01*
G04 #@! TO.C,R12*
X166781600Y-131870800D02*
X166781600Y-130092800D01*
X167543600Y-131870800D02*
X166781600Y-131870800D01*
X167543600Y-130092800D02*
X167543600Y-131870800D01*
X166781600Y-130092800D02*
X167543600Y-130092800D01*
G04 #@! TO.C,R13*
X96596200Y-121047000D02*
X96596200Y-122825000D01*
X95834200Y-121047000D02*
X96596200Y-121047000D01*
X95834200Y-122825000D02*
X95834200Y-121047000D01*
X96596200Y-122825000D02*
X95834200Y-122825000D01*
G04 #@! TO.C,R14*
X96596200Y-124095000D02*
X96596200Y-125873000D01*
X95834200Y-124095000D02*
X96596200Y-124095000D01*
X95834200Y-125873000D02*
X95834200Y-124095000D01*
X96596200Y-125873000D02*
X95834200Y-125873000D01*
G04 #@! TO.C,R15*
X95326200Y-124095000D02*
X95326200Y-125873000D01*
X94564200Y-124095000D02*
X95326200Y-124095000D01*
X94564200Y-125873000D02*
X94564200Y-124095000D01*
X95326200Y-125873000D02*
X94564200Y-125873000D01*
G04 #@! TO.C,R16*
X93472000Y-124095000D02*
X93472000Y-125873000D01*
X92710000Y-124095000D02*
X93472000Y-124095000D01*
X92710000Y-125873000D02*
X92710000Y-124095000D01*
X93472000Y-125873000D02*
X92710000Y-125873000D01*
G04 #@! TO.C,R17*
X92202000Y-124095000D02*
X92202000Y-125873000D01*
X91440000Y-124095000D02*
X92202000Y-124095000D01*
X91440000Y-125873000D02*
X91440000Y-124095000D01*
X92202000Y-125873000D02*
X91440000Y-125873000D01*
G04 #@! TO.C,R18*
X62413000Y-132963000D02*
X64191000Y-132963000D01*
X62413000Y-133725000D02*
X62413000Y-132963000D01*
X64191000Y-133725000D02*
X62413000Y-133725000D01*
X64191000Y-132963000D02*
X64191000Y-133725000D01*
G04 #@! TO.C,R19*
X68585200Y-112947800D02*
X68585200Y-111169800D01*
X69347200Y-112947800D02*
X68585200Y-112947800D01*
X69347200Y-111169800D02*
X69347200Y-112947800D01*
X68585200Y-111169800D02*
X69347200Y-111169800D01*
G04 #@! TO.C,R20*
X100393500Y-124336300D02*
X100393500Y-126114300D01*
X99631500Y-124336300D02*
X100393500Y-124336300D01*
X99631500Y-126114300D02*
X99631500Y-124336300D01*
X100393500Y-126114300D02*
X99631500Y-126114300D01*
G04 #@! TO.C,R21*
X101663500Y-124336300D02*
X101663500Y-126114300D01*
X100901500Y-124336300D02*
X101663500Y-124336300D01*
X100901500Y-126114300D02*
X100901500Y-124336300D01*
X101663500Y-126114300D02*
X100901500Y-126114300D01*
G04 #@! TO.C,R22*
X103517700Y-124336300D02*
X103517700Y-126114300D01*
X102755700Y-124336300D02*
X103517700Y-124336300D01*
X102755700Y-126114300D02*
X102755700Y-124336300D01*
X103517700Y-126114300D02*
X102755700Y-126114300D01*
G04 #@! TO.C,R23*
X104787700Y-124336300D02*
X104787700Y-126114300D01*
X104025700Y-124336300D02*
X104787700Y-124336300D01*
X104025700Y-126114300D02*
X104025700Y-124336300D01*
X104787700Y-126114300D02*
X104025700Y-126114300D01*
G04 #@! TO.C,R24*
X76581700Y-169200800D02*
X74803700Y-169200800D01*
X76581700Y-168438800D02*
X76581700Y-169200800D01*
X74803700Y-168438800D02*
X76581700Y-168438800D01*
X74803700Y-169200800D02*
X74803700Y-168438800D01*
G04 #@! TO.C,R25*
X114363500Y-138468100D02*
X116141500Y-138468100D01*
X114363500Y-139230100D02*
X114363500Y-138468100D01*
X116141500Y-139230100D02*
X114363500Y-139230100D01*
X116141500Y-138468100D02*
X116141500Y-139230100D01*
G04 #@! TO.C,R26*
X114363500Y-137452100D02*
X116141500Y-137452100D01*
X114363500Y-138214100D02*
X114363500Y-137452100D01*
X116141500Y-138214100D02*
X114363500Y-138214100D01*
X116141500Y-137452100D02*
X116141500Y-138214100D01*
G04 #@! TO.C,R27*
X133279000Y-160928400D02*
X135057000Y-160928400D01*
X133279000Y-161690400D02*
X133279000Y-160928400D01*
X135057000Y-161690400D02*
X133279000Y-161690400D01*
X135057000Y-160928400D02*
X135057000Y-161690400D01*
G04 #@! TO.C,R28*
X132542400Y-157804200D02*
X134320400Y-157804200D01*
X132542400Y-158566200D02*
X132542400Y-157804200D01*
X134320400Y-158566200D02*
X132542400Y-158566200D01*
X134320400Y-157804200D02*
X134320400Y-158566200D01*
G04 #@! TO.C,R29*
X74789000Y-148348000D02*
X73011000Y-148348000D01*
X74789000Y-147586000D02*
X74789000Y-148348000D01*
X73011000Y-147586000D02*
X74789000Y-147586000D01*
X73011000Y-148348000D02*
X73011000Y-147586000D01*
G04 #@! TO.C,R30*
X68585200Y-125901800D02*
X68585200Y-124123800D01*
X69347200Y-125901800D02*
X68585200Y-125901800D01*
X69347200Y-124123800D02*
X69347200Y-125901800D01*
X68585200Y-124123800D02*
X69347200Y-124123800D01*
G04 #@! TO.C,R31*
X127818000Y-156940600D02*
X127818000Y-158718600D01*
X127056000Y-156940600D02*
X127818000Y-156940600D01*
X127056000Y-158718600D02*
X127056000Y-156940600D01*
X127818000Y-158718600D02*
X127056000Y-158718600D01*
G04 #@! TO.C,R32*
X128935600Y-155518200D02*
X128935600Y-157296200D01*
X128173600Y-155518200D02*
X128935600Y-155518200D01*
X128173600Y-157296200D02*
X128173600Y-155518200D01*
X128935600Y-157296200D02*
X128173600Y-157296200D01*
G04 #@! TO.C,R33*
X134549000Y-166084600D02*
X134549000Y-164306600D01*
X135311000Y-166084600D02*
X134549000Y-166084600D01*
X135311000Y-164306600D02*
X135311000Y-166084600D01*
X134549000Y-164306600D02*
X135311000Y-164306600D01*
G04 #@! TO.C,R34*
X122986800Y-159740600D02*
X124764800Y-159740600D01*
X122986800Y-160502600D02*
X122986800Y-159740600D01*
X124764800Y-160502600D02*
X122986800Y-160502600D01*
X124764800Y-159740600D02*
X124764800Y-160502600D01*
G04 #@! TO.C,R35*
X179078000Y-114685600D02*
X179078000Y-116514400D01*
X175522000Y-114685600D02*
X179078000Y-114685600D01*
X175522000Y-116514400D02*
X175522000Y-114685600D01*
X179078000Y-116514400D02*
X175522000Y-116514400D01*
G04 #@! TO.C,R36*
X69911000Y-166219000D02*
X71689000Y-166219000D01*
X69911000Y-166981000D02*
X69911000Y-166219000D01*
X71689000Y-166981000D02*
X69911000Y-166981000D01*
X71689000Y-166219000D02*
X71689000Y-166981000D01*
G04 #@! TO.C,R37*
X159949000Y-124555600D02*
X161727000Y-124555600D01*
X159949000Y-125317600D02*
X159949000Y-124555600D01*
X161727000Y-125317600D02*
X159949000Y-125317600D01*
X161727000Y-124555600D02*
X161727000Y-125317600D01*
G04 #@! TO.C,R41*
X138867000Y-125851000D02*
X140645000Y-125851000D01*
X138867000Y-126613000D02*
X138867000Y-125851000D01*
X140645000Y-126613000D02*
X138867000Y-126613000D01*
X140645000Y-125851000D02*
X140645000Y-126613000D01*
G04 #@! TO.C,R46*
X174356000Y-116142200D02*
X172578000Y-116142200D01*
X174356000Y-115380200D02*
X174356000Y-116142200D01*
X172578000Y-115380200D02*
X174356000Y-115380200D01*
X172578000Y-116142200D02*
X172578000Y-115380200D01*
G04 #@! TO.C,R47*
X174356000Y-117158200D02*
X172578000Y-117158200D01*
X174356000Y-116396200D02*
X174356000Y-117158200D01*
X172578000Y-116396200D02*
X174356000Y-116396200D01*
X172578000Y-117158200D02*
X172578000Y-116396200D01*
G04 #@! TO.C,R48*
X166172000Y-150616000D02*
X164394000Y-150616000D01*
X166172000Y-149854000D02*
X166172000Y-150616000D01*
X164394000Y-149854000D02*
X166172000Y-149854000D01*
X164394000Y-150616000D02*
X164394000Y-149854000D01*
G04 #@! TO.C,R49*
X68255000Y-110103000D02*
X68255000Y-111881000D01*
X67493000Y-110103000D02*
X68255000Y-110103000D01*
X67493000Y-111881000D02*
X67493000Y-110103000D01*
X68255000Y-111881000D02*
X67493000Y-111881000D01*
G04 #@! TO.C,R51*
X160812600Y-119729600D02*
X159034600Y-119729600D01*
X160812600Y-118967600D02*
X160812600Y-119729600D01*
X159034600Y-118967600D02*
X160812600Y-118967600D01*
X159034600Y-119729600D02*
X159034600Y-118967600D01*
G04 #@! TO.C,R52*
X176769000Y-109665200D02*
X176769000Y-107887200D01*
X177531000Y-109665200D02*
X176769000Y-109665200D01*
X177531000Y-107887200D02*
X177531000Y-109665200D01*
X176769000Y-107887200D02*
X177531000Y-107887200D01*
G04 #@! TO.C,R54*
X162545000Y-111570200D02*
X164323000Y-111570200D01*
X162545000Y-112332200D02*
X162545000Y-111570200D01*
X164323000Y-112332200D02*
X162545000Y-112332200D01*
X164323000Y-111570200D02*
X164323000Y-112332200D01*
G04 #@! TO.C,R55*
X174356000Y-109792200D02*
X172578000Y-109792200D01*
X174356000Y-109030200D02*
X174356000Y-109792200D01*
X172578000Y-109030200D02*
X174356000Y-109030200D01*
X172578000Y-109792200D02*
X172578000Y-109030200D01*
G04 #@! TO.C,R56*
X174356000Y-108776200D02*
X172578000Y-108776200D01*
X174356000Y-108014200D02*
X174356000Y-108776200D01*
X172578000Y-108014200D02*
X174356000Y-108014200D01*
X172578000Y-108776200D02*
X172578000Y-108014200D01*
G04 #@! TO.C,R57*
X164786000Y-124894000D02*
X166564000Y-124894000D01*
X164786000Y-125656000D02*
X164786000Y-124894000D01*
X166564000Y-125656000D02*
X164786000Y-125656000D01*
X166564000Y-124894000D02*
X166564000Y-125656000D01*
G04 #@! TO.C,R58*
X164786000Y-124094000D02*
X166564000Y-124094000D01*
X164786000Y-124856000D02*
X164786000Y-124094000D01*
X166564000Y-124856000D02*
X164786000Y-124856000D01*
X166564000Y-124094000D02*
X166564000Y-124856000D01*
G04 #@! TO.C,R59*
X141915000Y-156762800D02*
X140137000Y-156762800D01*
X141915000Y-156000800D02*
X141915000Y-156762800D01*
X140137000Y-156000800D02*
X141915000Y-156000800D01*
X140137000Y-156762800D02*
X140137000Y-156000800D01*
G04 #@! TO.C,R62*
X159085400Y-121279000D02*
X160863400Y-121279000D01*
X159085400Y-122041000D02*
X159085400Y-121279000D01*
X160863400Y-122041000D02*
X159085400Y-122041000D01*
X160863400Y-121279000D02*
X160863400Y-122041000D01*
G04 #@! TO.C,R63*
X156570800Y-119145400D02*
X156570800Y-120923400D01*
X155808800Y-119145400D02*
X156570800Y-119145400D01*
X155808800Y-120923400D02*
X155808800Y-119145400D01*
X156570800Y-120923400D02*
X155808800Y-120923400D01*
G04 #@! TO.C,R64*
X154665800Y-122015600D02*
X154665800Y-120237600D01*
X155427800Y-122015600D02*
X154665800Y-122015600D01*
X155427800Y-120237600D02*
X155427800Y-122015600D01*
X154665800Y-120237600D02*
X155427800Y-120237600D01*
G04 #@! TO.C,R65*
X160888800Y-123209400D02*
X159110800Y-123209400D01*
X160888800Y-122447400D02*
X160888800Y-123209400D01*
X159110800Y-122447400D02*
X160888800Y-122447400D01*
X159110800Y-123209400D02*
X159110800Y-122447400D01*
G04 #@! TO.C,R66*
X157739200Y-117189600D02*
X155961200Y-117189600D01*
X157739200Y-116427600D02*
X157739200Y-117189600D01*
X155961200Y-116427600D02*
X157739200Y-116427600D01*
X155961200Y-117189600D02*
X155961200Y-116427600D01*
G04 #@! TO.C,R67*
X140645000Y-124073000D02*
X138867000Y-124073000D01*
X140645000Y-123311000D02*
X140645000Y-124073000D01*
X138867000Y-123311000D02*
X140645000Y-123311000D01*
X138867000Y-124073000D02*
X138867000Y-123311000D01*
G04 #@! TO.C,R68*
X140645000Y-125343000D02*
X138867000Y-125343000D01*
X140645000Y-124581000D02*
X140645000Y-125343000D01*
X138867000Y-124581000D02*
X140645000Y-124581000D01*
X138867000Y-125343000D02*
X138867000Y-124581000D01*
G04 #@! TO.C,R69*
X157222261Y-128757305D02*
X158479497Y-127500069D01*
X157761077Y-129296121D02*
X157222261Y-128757305D01*
X159018313Y-128038885D02*
X157761077Y-129296121D01*
X158479497Y-127500069D02*
X159018313Y-128038885D01*
G04 #@! TO.C,R72*
X62413000Y-137535000D02*
X64191000Y-137535000D01*
X62413000Y-138297000D02*
X62413000Y-137535000D01*
X64191000Y-138297000D02*
X62413000Y-138297000D01*
X64191000Y-137535000D02*
X64191000Y-138297000D01*
G04 #@! TO.C,R73*
X62413000Y-142107000D02*
X64191000Y-142107000D01*
X62413000Y-142869000D02*
X62413000Y-142107000D01*
X64191000Y-142869000D02*
X62413000Y-142869000D01*
X64191000Y-142107000D02*
X64191000Y-142869000D01*
G04 #@! TO.C,R74*
X62413000Y-146679000D02*
X64191000Y-146679000D01*
X62413000Y-147441000D02*
X62413000Y-146679000D01*
X64191000Y-147441000D02*
X62413000Y-147441000D01*
X64191000Y-146679000D02*
X64191000Y-147441000D01*
G04 #@! TO.C,R75*
X62159000Y-116326000D02*
X63937000Y-116326000D01*
X62159000Y-117088000D02*
X62159000Y-116326000D01*
X63937000Y-117088000D02*
X62159000Y-117088000D01*
X63937000Y-116326000D02*
X63937000Y-117088000D01*
G04 #@! TO.C,R76*
X62413000Y-129026000D02*
X64191000Y-129026000D01*
X62413000Y-129788000D02*
X62413000Y-129026000D01*
X64191000Y-129788000D02*
X62413000Y-129788000D01*
X64191000Y-129026000D02*
X64191000Y-129788000D01*
G04 #@! TO.C,R77*
X141224000Y-115112800D02*
X139446000Y-115112800D01*
X141224000Y-114350800D02*
X141224000Y-115112800D01*
X139446000Y-114350800D02*
X141224000Y-114350800D01*
X139446000Y-115112800D02*
X139446000Y-114350800D01*
G04 #@! TO.C,R78*
X141224000Y-116128800D02*
X139446000Y-116128800D01*
X141224000Y-115366800D02*
X141224000Y-116128800D01*
X139446000Y-115366800D02*
X141224000Y-115366800D01*
X139446000Y-116128800D02*
X139446000Y-115366800D01*
G04 #@! TO.C,R79*
X141224000Y-117144800D02*
X139446000Y-117144800D01*
X141224000Y-116382800D02*
X141224000Y-117144800D01*
X139446000Y-116382800D02*
X141224000Y-116382800D01*
X139446000Y-117144800D02*
X139446000Y-116382800D01*
G04 #@! TO.C,R80*
X141224000Y-118160800D02*
X139446000Y-118160800D01*
X141224000Y-117398800D02*
X141224000Y-118160800D01*
X139446000Y-117398800D02*
X141224000Y-117398800D01*
X139446000Y-118160800D02*
X139446000Y-117398800D01*
G04 #@! TO.C,R81*
X141224000Y-119176800D02*
X139446000Y-119176800D01*
X141224000Y-118414800D02*
X141224000Y-119176800D01*
X139446000Y-118414800D02*
X141224000Y-118414800D01*
X139446000Y-119176800D02*
X139446000Y-118414800D01*
G04 #@! TO.C,R85*
X131958200Y-168396000D02*
X131958200Y-170174000D01*
X131196200Y-168396000D02*
X131958200Y-168396000D01*
X131196200Y-170174000D02*
X131196200Y-168396000D01*
X131958200Y-170174000D02*
X131196200Y-170174000D01*
G04 #@! TO.C,R86*
X141224000Y-120192800D02*
X139446000Y-120192800D01*
X141224000Y-119430800D02*
X141224000Y-120192800D01*
X139446000Y-119430800D02*
X141224000Y-119430800D01*
X139446000Y-120192800D02*
X139446000Y-119430800D01*
G04 #@! TO.C,R87*
X141224000Y-121208800D02*
X139446000Y-121208800D01*
X141224000Y-120446800D02*
X141224000Y-121208800D01*
X139446000Y-120446800D02*
X141224000Y-120446800D01*
X139446000Y-121208800D02*
X139446000Y-120446800D01*
G04 #@! TO.C,R88*
X133964800Y-129356200D02*
X133964800Y-127578200D01*
X134726800Y-129356200D02*
X133964800Y-129356200D01*
X134726800Y-127578200D02*
X134726800Y-129356200D01*
X133964800Y-127578200D02*
X134726800Y-127578200D01*
G04 #@! TO.C,R89*
X132435600Y-129387600D02*
X132435600Y-127609600D01*
X133197600Y-129387600D02*
X132435600Y-129387600D01*
X133197600Y-127609600D02*
X133197600Y-129387600D01*
X132435600Y-127609600D02*
X133197600Y-127609600D01*
G04 #@! TO.C,R90*
X131419600Y-129387600D02*
X131419600Y-127609600D01*
X132181600Y-129387600D02*
X131419600Y-129387600D01*
X132181600Y-127609600D02*
X132181600Y-129387600D01*
X131419600Y-127609600D02*
X132181600Y-127609600D01*
G04 #@! TO.C,R91*
X130403600Y-129387600D02*
X130403600Y-127609600D01*
X131165600Y-129387600D02*
X130403600Y-129387600D01*
X131165600Y-127609600D02*
X131165600Y-129387600D01*
X130403600Y-127609600D02*
X131165600Y-127609600D01*
G04 #@! TO.C,R93*
X141915000Y-155569000D02*
X140137000Y-155569000D01*
X141915000Y-154807000D02*
X141915000Y-155569000D01*
X140137000Y-154807000D02*
X141915000Y-154807000D01*
X140137000Y-155569000D02*
X140137000Y-154807000D01*
G04 #@! TO.C,R94*
X133101200Y-162808000D02*
X131323200Y-162808000D01*
X133101200Y-162046000D02*
X133101200Y-162808000D01*
X131323200Y-162046000D02*
X133101200Y-162046000D01*
X131323200Y-162808000D02*
X131323200Y-162046000D01*
G04 #@! TO.C,R96*
X129387600Y-129387600D02*
X129387600Y-127609600D01*
X130149600Y-129387600D02*
X129387600Y-129387600D01*
X130149600Y-127609600D02*
X130149600Y-129387600D01*
X129387600Y-127609600D02*
X130149600Y-127609600D01*
G04 #@! TO.C,R98*
X128326000Y-129407000D02*
X128326000Y-127629000D01*
X129088000Y-129407000D02*
X128326000Y-129407000D01*
X129088000Y-127629000D02*
X129088000Y-129407000D01*
X128326000Y-127629000D02*
X129088000Y-127629000D01*
G04 #@! TO.C,R99*
X127310000Y-129407000D02*
X127310000Y-127629000D01*
X128072000Y-129407000D02*
X127310000Y-129407000D01*
X128072000Y-127629000D02*
X128072000Y-129407000D01*
X127310000Y-127629000D02*
X128072000Y-127629000D01*
G04 #@! TO.C,R100*
X126294000Y-129407000D02*
X126294000Y-127629000D01*
X127056000Y-129407000D02*
X126294000Y-129407000D01*
X127056000Y-127629000D02*
X127056000Y-129407000D01*
X126294000Y-127629000D02*
X127056000Y-127629000D01*
G04 #@! TO.C,R104*
X128993200Y-168387000D02*
X127215200Y-168387000D01*
X128993200Y-167625000D02*
X128993200Y-168387000D01*
X127215200Y-167625000D02*
X128993200Y-167625000D01*
X127215200Y-168387000D02*
X127215200Y-167625000D01*
G04 #@! TO.C,R105*
X131406200Y-166101000D02*
X131406200Y-164323000D01*
X132168200Y-166101000D02*
X131406200Y-166101000D01*
X132168200Y-164323000D02*
X132168200Y-166101000D01*
X131406200Y-164323000D02*
X132168200Y-164323000D01*
G04 #@! TO.C,SW1*
X66700000Y-127900000D02*
X66700000Y-127500000D01*
X66700000Y-120900000D02*
X66700000Y-121300000D01*
X60100000Y-120900000D02*
X60100000Y-127900000D01*
X63800000Y-120900000D02*
X63800000Y-127900000D01*
X66700000Y-121300000D02*
X63800000Y-121300000D01*
X66700000Y-127500000D02*
X63800000Y-127500000D01*
X66700000Y-127900000D02*
X60100000Y-127900000D01*
X60100000Y-120900000D02*
X66700000Y-120900000D01*
X59800000Y-126150000D02*
X60100000Y-126150000D01*
X59800000Y-122650000D02*
X59800000Y-126150000D01*
X60100000Y-122650000D02*
X59800000Y-122650000D01*
G04 #@! TO.C,SW2*
X66700000Y-114900000D02*
X66700000Y-114500000D01*
X66700000Y-107900000D02*
X66700000Y-108300000D01*
X60100000Y-107900000D02*
X60100000Y-114900000D01*
X63800000Y-107900000D02*
X63800000Y-114900000D01*
X66700000Y-108300000D02*
X63800000Y-108300000D01*
X66700000Y-114500000D02*
X63800000Y-114500000D01*
X66700000Y-114900000D02*
X60100000Y-114900000D01*
X60100000Y-107900000D02*
X66700000Y-107900000D01*
X59800000Y-113150000D02*
X60100000Y-113150000D01*
X59800000Y-109650000D02*
X59800000Y-113150000D01*
X60100000Y-109650000D02*
X59800000Y-109650000D01*
G04 #@! TO.C,T1*
X95810640Y-165162620D02*
X94510160Y-165162620D01*
X95810640Y-163064580D02*
X94510160Y-163064580D01*
X95232242Y-164763840D02*
G75*
G03*
X95232242Y-164763840I-71842J0D01*
G01*
X95810640Y-165162620D02*
X95810640Y-163064580D01*
X94510160Y-163064580D02*
X94510160Y-165162620D01*
G04 #@! TO.C,T2*
X101772020Y-157621360D02*
X101772020Y-158921840D01*
X99673980Y-157621360D02*
X99673980Y-158921840D01*
X101445082Y-158271600D02*
G75*
G03*
X101445082Y-158271600I-71842J0D01*
G01*
X101772020Y-157621360D02*
X99673980Y-157621360D01*
X99673980Y-158921840D02*
X101772020Y-158921840D01*
G04 #@! TO.C,T3*
X107106720Y-150749000D02*
X107904280Y-150749000D01*
X107904280Y-152349200D02*
X107805220Y-152349200D01*
X107106720Y-152349200D02*
X107505500Y-152349200D01*
X107106720Y-152349200D02*
X107106720Y-150749000D01*
X107904280Y-150749000D02*
X107904280Y-152049480D01*
G04 #@! TO.C,T4*
X110154720Y-150749000D02*
X110952280Y-150749000D01*
X110952280Y-152349200D02*
X110853220Y-152349200D01*
X110154720Y-152349200D02*
X110553500Y-152349200D01*
X110154720Y-152349200D02*
X110154720Y-150749000D01*
X110952280Y-150749000D02*
X110952280Y-152049480D01*
G04 #@! TO.C,U3*
X80781880Y-142504620D02*
X81279720Y-142504620D01*
X81279720Y-143352980D02*
X80781880Y-143352980D01*
D13*
X80179900Y-142903400D02*
X80179900Y-143005000D01*
X81881700Y-142903400D02*
X81881700Y-143005000D01*
D11*
X79964000Y-142192200D02*
X79964000Y-142801800D01*
X80827600Y-142192200D02*
X79964000Y-142192200D01*
G04 #@! TO.C,U8*
X81970600Y-137315400D02*
X81157800Y-137315400D01*
X81970600Y-138433000D02*
X81970600Y-137315400D01*
X81157800Y-138433000D02*
X81970600Y-138433000D01*
D13*
G04 #@! TO.C,U9*
X78601000Y-145554000D02*
X77101000Y-145554000D01*
X77101000Y-146754000D02*
X77101000Y-146654000D01*
X77101000Y-146354000D02*
X77101000Y-146254000D01*
X77101000Y-145954000D02*
X77101000Y-145854000D01*
X78601000Y-145854000D02*
X78601000Y-145954000D01*
X78601000Y-146254000D02*
X78601000Y-146354000D01*
X78601000Y-146654000D02*
X78601000Y-146754000D01*
X78742421Y-147254000D02*
G75*
G03*
X78742421Y-147254000I-141421J0D01*
G01*
X77101000Y-147054000D02*
X78351000Y-147054000D01*
G04 #@! TO.C,U12*
X76960000Y-153059000D02*
X76960000Y-154559000D01*
X78160000Y-154559000D02*
X78060000Y-154559000D01*
X77760000Y-154559000D02*
X77660000Y-154559000D01*
X77360000Y-154559000D02*
X77260000Y-154559000D01*
X77260000Y-153059000D02*
X77360000Y-153059000D01*
X77660000Y-153059000D02*
X77760000Y-153059000D01*
X78060000Y-153059000D02*
X78160000Y-153059000D01*
X78801421Y-153059000D02*
G75*
G03*
X78801421Y-153059000I-141421J0D01*
G01*
X78460000Y-154559000D02*
X78460000Y-153309000D01*
D11*
G04 #@! TO.C,U13*
X72685880Y-154451620D02*
G75*
G03*
X72685880Y-154451620I-101600J0D01*
G01*
X72259160Y-153951240D02*
X73508840Y-153951240D01*
X72259160Y-155952760D02*
X72259160Y-153951240D01*
X73508840Y-155952760D02*
X72259160Y-155952760D01*
X73508840Y-153951240D02*
X73508840Y-155952760D01*
D13*
G04 #@! TO.C,U14*
X73862600Y-159867600D02*
X73862600Y-158367600D01*
X72662600Y-158367600D02*
X72762600Y-158367600D01*
X73062600Y-158367600D02*
X73162600Y-158367600D01*
X73462600Y-158367600D02*
X73562600Y-158367600D01*
X73562600Y-159867600D02*
X73462600Y-159867600D01*
X73162600Y-159867600D02*
X73062600Y-159867600D01*
X72762600Y-159867600D02*
X72662600Y-159867600D01*
X72304021Y-159867600D02*
G75*
G03*
X72304021Y-159867600I-141421J0D01*
G01*
X72362600Y-158367600D02*
X72362600Y-159617600D01*
D11*
G04 #@! TO.C,U15*
X170825000Y-124075000D02*
X170825000Y-125675000D01*
X169225000Y-124075000D02*
X170825000Y-124075000D01*
X169225000Y-125675000D02*
X169225000Y-124075000D01*
X170825000Y-125675000D02*
X169225000Y-125675000D01*
X171225000Y-125975000D02*
G75*
G03*
X171225000Y-125975000I-100000J0D01*
G01*
G04 #@! TO.C,U20*
X158089600Y-161315400D02*
X163423600Y-161315400D01*
X158089600Y-155981400D02*
X158089600Y-161315400D01*
X163423600Y-155981400D02*
X158089600Y-155981400D01*
X163423600Y-161315400D02*
X163423600Y-155981400D01*
X162915600Y-160299400D02*
G75*
G03*
X162915600Y-160299400I-508000J0D01*
G01*
G04 #@! TO.C,U21*
X171031140Y-110450060D02*
X170279300Y-110450060D01*
X171031140Y-110701520D02*
X171031140Y-110450060D01*
X168028860Y-110450060D02*
X168028860Y-110701520D01*
X168780700Y-110450060D02*
X168028860Y-110450060D01*
X168028860Y-113452340D02*
X168780700Y-113452340D01*
X168028860Y-113200880D02*
X168028860Y-113452340D01*
X171528980Y-113701260D02*
G75*
G03*
X171528980Y-113701260I-248920J0D01*
G01*
X170279300Y-113452340D02*
X171031140Y-113452340D01*
X171031140Y-113200880D02*
X171031140Y-113452340D01*
D15*
G04 #@! TO.C,U23*
X164805190Y-140144270D02*
X163567710Y-141381749D01*
X163567710Y-138906791D02*
X164805190Y-140144270D01*
X149247794Y-124586874D02*
X148010315Y-125824354D01*
X150485273Y-125824354D02*
X149247794Y-124586874D01*
X133690398Y-140144270D02*
X134927878Y-141381749D01*
X134927878Y-138906791D02*
X133690398Y-140144270D01*
X149247794Y-155701666D02*
X150485273Y-154464186D01*
X148010315Y-154464186D02*
X149247794Y-155701666D01*
X162371887Y-140144270D02*
G75*
G03*
X162371887Y-140144270I-749300J0D01*
G01*
G04 #@! TO.C,U24*
X134747000Y-109016800D02*
X133245860Y-109016800D01*
X134747000Y-110517940D02*
X134747000Y-109016800D01*
X118745000Y-109016800D02*
X118745000Y-110517940D01*
X120246140Y-109016800D02*
X118745000Y-109016800D01*
X118745000Y-125018800D02*
X120246140Y-125018800D01*
X118745000Y-123517660D02*
X118745000Y-125018800D01*
X134747000Y-125018800D02*
X134747000Y-123517660D01*
X133245860Y-125018800D02*
X134747000Y-125018800D01*
X133245860Y-111267240D02*
G75*
G03*
X133245860Y-111267240I-749300J0D01*
G01*
D11*
G04 #@! TO.C,U25*
X80143320Y-158500380D02*
G75*
G03*
X80143320Y-158500380I-101600J0D01*
G01*
X80366840Y-159000760D02*
X79117160Y-159000760D01*
X80366840Y-156999240D02*
X80366840Y-159000760D01*
X79117160Y-156999240D02*
X80366840Y-156999240D01*
X79117160Y-159000760D02*
X79117160Y-156999240D01*
G04 #@! TO.C,X1*
X123425520Y-169016920D02*
X123425520Y-168519080D01*
X125924880Y-169016920D02*
X125924880Y-168519080D01*
X124774260Y-167167800D02*
X124576140Y-167167800D01*
X124774260Y-170368200D02*
X124576140Y-170368200D01*
G04 #@! TO.C,X2*
X162089561Y-131641764D02*
X162441587Y-131289738D01*
X163856875Y-133409078D02*
X164208901Y-133057052D01*
X164350789Y-131287942D02*
X164210697Y-131147850D01*
X162087765Y-133550966D02*
X161947673Y-133410874D01*
G04 #@! TO.C,X3*
X160800000Y-154400000D02*
X160800000Y-152600000D01*
X168400000Y-154400000D02*
X160800000Y-154400000D01*
X168400000Y-152600000D02*
X168400000Y-154400000D01*
X160800000Y-152600000D02*
X168400000Y-152600000D01*
G04 #@! TO.C,U4*
X90120400Y-155263600D02*
X90120400Y-155713600D01*
X90570400Y-155263600D02*
X90120400Y-155263600D01*
X90120400Y-160263600D02*
X90570400Y-160263600D01*
X90120400Y-159813600D02*
X90120400Y-160263600D01*
X95120400Y-160263600D02*
X95120400Y-159813600D01*
X94670400Y-160263600D02*
X95120400Y-160263600D01*
X94770400Y-155263600D02*
X94670400Y-155263600D01*
X95120400Y-155613600D02*
X94770400Y-155263600D01*
X95120400Y-155718600D02*
X95120400Y-155613600D01*
G04 #@! TO.C,U17*
X105648760Y-138897360D02*
X106047540Y-138897360D01*
X105648760Y-139296140D02*
X105648760Y-138897360D01*
X111648240Y-138897360D02*
X111648240Y-139296140D01*
X111249460Y-138897360D02*
X111648240Y-138897360D01*
X111648240Y-144896840D02*
X111249460Y-144896840D01*
X111648240Y-144498060D02*
X111648240Y-144896840D01*
X106047540Y-144896840D02*
X105648760Y-144498060D01*
G04 #@! TO.C,U18*
X106395520Y-115961920D02*
X106395520Y-115560600D01*
X105994200Y-115961920D02*
X106395520Y-115961920D01*
X106395520Y-108961680D02*
X105994200Y-108961680D01*
X106395520Y-109363000D02*
X106395520Y-108961680D01*
X99395280Y-108961680D02*
X99395280Y-109363000D01*
X99796600Y-108961680D02*
X99395280Y-108961680D01*
X99395280Y-115560600D02*
X99796600Y-115961920D01*
G04 #@! TD*
D17*
G04 #@! TO.C,NT3*
X84130000Y-128010000D03*
D18*
X84130000Y-125470000D03*
G04 #@! TD*
D17*
G04 #@! TO.C,NT2*
X157790000Y-112770000D03*
D18*
X160330000Y-112770000D03*
G04 #@! TD*
D17*
G04 #@! TO.C,NT1*
X145090000Y-112770000D03*
D18*
X147630000Y-112770000D03*
G04 #@! TD*
D17*
G04 #@! TO.C,P3*
X145090000Y-117850000D03*
D18*
X145090000Y-120390000D03*
G04 #@! TD*
D17*
G04 #@! TO.C,P5*
X91750000Y-105150000D03*
D18*
X91750000Y-107690000D03*
X89210000Y-105150000D03*
X89210000Y-107690000D03*
X86670000Y-105150000D03*
X86670000Y-107690000D03*
G04 #@! TD*
D17*
G04 #@! TO.C,P9*
X106990000Y-128010000D03*
D18*
X106990000Y-130550000D03*
X104450000Y-128010000D03*
X104450000Y-130550000D03*
X101910000Y-128010000D03*
X101910000Y-130550000D03*
X99370000Y-128010000D03*
X99370000Y-130550000D03*
X96830000Y-128010000D03*
X96830000Y-130550000D03*
X94290000Y-128010000D03*
X94290000Y-130550000D03*
X91750000Y-128010000D03*
X91750000Y-130550000D03*
X89210000Y-128010000D03*
X89210000Y-130550000D03*
G04 #@! TD*
D17*
G04 #@! TO.C,P20*
X173030000Y-155950000D03*
D18*
X170490000Y-155950000D03*
X173030000Y-153410000D03*
X170490000Y-153410000D03*
X173030000Y-150870000D03*
X170490000Y-150870000D03*
X173030000Y-148330000D03*
X170490000Y-148330000D03*
X173030000Y-145790000D03*
X170490000Y-145790000D03*
X173030000Y-143250000D03*
X170490000Y-143250000D03*
X173030000Y-140710000D03*
X170490000Y-140710000D03*
X173030000Y-138170000D03*
X170490000Y-138170000D03*
X173030000Y-135630000D03*
X170490000Y-135630000D03*
X173030000Y-133090000D03*
X170490000Y-133090000D03*
X173030000Y-130550000D03*
X170490000Y-130550000D03*
G04 #@! TD*
D17*
G04 #@! TO.C,P22*
X167950000Y-163570000D03*
D18*
X167950000Y-166110000D03*
X165410000Y-163570000D03*
X165410000Y-166110000D03*
X162870000Y-163570000D03*
X162870000Y-166110000D03*
X160330000Y-163570000D03*
X160330000Y-166110000D03*
X157790000Y-163570000D03*
X157790000Y-166110000D03*
X155250000Y-163570000D03*
X155250000Y-166110000D03*
X152710000Y-163570000D03*
X152710000Y-166110000D03*
X150170000Y-163570000D03*
X150170000Y-166110000D03*
X147630000Y-163570000D03*
X147630000Y-166110000D03*
X145090000Y-163570000D03*
X145090000Y-166110000D03*
X142550000Y-163570000D03*
X142550000Y-166110000D03*
X140010000Y-163570000D03*
X140010000Y-166110000D03*
X137470000Y-163570000D03*
X137470000Y-166110000D03*
G04 #@! TD*
D17*
G04 #@! TO.C,P25*
X137470000Y-158490000D03*
D18*
X140010000Y-158490000D03*
X142550000Y-158490000D03*
X145090000Y-158490000D03*
X147630000Y-158490000D03*
X150170000Y-158490000D03*
G04 #@! TD*
D17*
G04 #@! TO.C,P28*
X124770000Y-155950000D03*
D18*
X122230000Y-155950000D03*
X124770000Y-153410000D03*
X122230000Y-153410000D03*
X124770000Y-150870000D03*
X122230000Y-150870000D03*
X124770000Y-148330000D03*
X122230000Y-148330000D03*
X124770000Y-145790000D03*
X122230000Y-145790000D03*
X124770000Y-143250000D03*
X122230000Y-143250000D03*
X124770000Y-140710000D03*
X122230000Y-140710000D03*
X124770000Y-138170000D03*
X122230000Y-138170000D03*
X124770000Y-135630000D03*
X122230000Y-135630000D03*
X124770000Y-133090000D03*
X122230000Y-133090000D03*
X124770000Y-130550000D03*
X122230000Y-130550000D03*
G04 #@! TD*
D17*
G04 #@! TO.C,P29*
X129850000Y-133090000D03*
D18*
X132390000Y-133090000D03*
G04 #@! TD*
D17*
G04 #@! TO.C,P30*
X160330000Y-105150000D03*
D18*
X160330000Y-107690000D03*
X157790000Y-105150000D03*
X157790000Y-107690000D03*
X155250000Y-105150000D03*
X155250000Y-107690000D03*
X152710000Y-105150000D03*
X152710000Y-107690000D03*
X150170000Y-105150000D03*
X150170000Y-107690000D03*
X147630000Y-105150000D03*
X147630000Y-107690000D03*
X145090000Y-105150000D03*
X145090000Y-107690000D03*
X142550000Y-105150000D03*
X142550000Y-107690000D03*
X140010000Y-105150000D03*
X140010000Y-107690000D03*
X137470000Y-105150000D03*
X137470000Y-107690000D03*
G04 #@! TD*
D17*
G04 #@! TO.C,P80*
X178110000Y-130550000D03*
D18*
X178110000Y-133090000D03*
G04 #@! TD*
G36*
X122037121Y-101273602D02*
G01*
X122083614Y-101327258D01*
X122095000Y-101379600D01*
X122095000Y-106127600D01*
X122074998Y-106195721D01*
X122021342Y-106242214D01*
X121969000Y-106253600D01*
X105221000Y-106253600D01*
X105152879Y-106233598D01*
X105106386Y-106179942D01*
X105095000Y-106127600D01*
X105095000Y-101379600D01*
X105115002Y-101311479D01*
X105168658Y-101264986D01*
X105221000Y-101253600D01*
X121969000Y-101253600D01*
X122037121Y-101273602D01*
G37*
M02*
