G04 #@! TF.GenerationSoftware,KiCad,Pcbnew,6.0.7-f9a2dced07~116~ubuntu22.04.1*
G04 #@! TF.CreationDate,2022-09-29T06:22:26-04:00*
G04 #@! TF.ProjectId,hackrf-one,6861636b-7266-42d6-9f6e-652e6b696361,r8*
G04 #@! TF.SameCoordinates,Original*
G04 #@! TF.FileFunction,Profile,NP*
%FSLAX46Y46*%
G04 Gerber Fmt 4.6, Leading zero omitted, Abs format (unit mm)*
G04 Created by KiCad (PCBNEW 6.0.7-f9a2dced07~116~ubuntu22.04.1) date 2022-09-29 06:22:26*
%MOMM*%
%LPD*%
G01*
G04 APERTURE LIST*
G04 #@! TA.AperFunction,Profile*
%ADD10C,0.381000*%
G04 #@! TD*
G04 APERTURE END LIST*
D10*
X180000000Y-126825000D02*
X180000000Y-138740000D01*
X180000000Y-122075000D02*
X180000000Y-125925000D01*
X180000000Y-104000000D02*
X180000000Y-121175000D01*
X178850000Y-125925000D02*
G75*
G03*
X178850000Y-126825000I0J-450000D01*
G01*
X180000000Y-126825000D02*
X178850000Y-126825000D01*
X180000000Y-125925000D02*
X178850000Y-125925000D01*
X178850000Y-121175000D02*
G75*
G03*
X178850000Y-122075000I0J-450000D01*
G01*
X178850000Y-122075000D02*
X180000000Y-122075000D01*
X180000000Y-121175000D02*
X178850000Y-121175000D01*
X60580000Y-155940000D02*
X60440000Y-155800000D01*
X60440000Y-166200000D02*
X60580000Y-166060000D01*
X60439340Y-166199340D02*
G75*
G03*
X60000000Y-167260000I1060660J-1060660D01*
G01*
X60580660Y-166060660D02*
G75*
G03*
X61020000Y-165000000I-1060660J1060660D01*
G01*
X60000000Y-154740000D02*
G75*
G03*
X60439340Y-155800660I1500000J0D01*
G01*
X61020000Y-157000000D02*
G75*
G03*
X60580660Y-155939340I-1500000J0D01*
G01*
X180000000Y-171000000D02*
X180000000Y-169260000D01*
X179420000Y-168060000D02*
X179560000Y-168200000D01*
X180000000Y-169260000D02*
G75*
G03*
X179560660Y-168199340I-1500000J0D01*
G01*
X178980000Y-167000000D02*
G75*
G03*
X179419340Y-168060660I1500000J0D01*
G01*
X179420000Y-139940000D02*
X179560000Y-139800000D01*
X179560660Y-139800660D02*
G75*
G03*
X180000000Y-138740000I-1060660J1060660D01*
G01*
X179419340Y-139939340D02*
G75*
G03*
X178980000Y-141000000I1060660J-1060660D01*
G01*
X60000000Y-167260000D02*
X60000000Y-171000000D01*
X60000000Y-154740000D02*
X60000000Y-104000000D01*
X61020000Y-157000000D02*
X61020000Y-165000000D01*
X178980000Y-141000000D02*
X178980000Y-167000000D01*
X176000000Y-100000000D02*
X64000000Y-100000000D01*
X64000000Y-175000000D02*
X176000000Y-175000000D01*
X176000000Y-175000000D02*
G75*
G03*
X180000000Y-171000000I0J4000000D01*
G01*
X180000000Y-104000000D02*
G75*
G03*
X176000000Y-100000000I-4000000J0D01*
G01*
X60000000Y-171000000D02*
G75*
G03*
X64000000Y-175000000I4000000J0D01*
G01*
X64000000Y-100000000D02*
G75*
G03*
X60000000Y-104000000I0J-4000000D01*
G01*
M02*
