G04 #@! TF.GenerationSoftware,KiCad,Pcbnew,6.0.7-f9a2dced07~116~ubuntu22.04.1*
G04 #@! TF.CreationDate,2022-09-29T06:22:25-04:00*
G04 #@! TF.ProjectId,hackrf-one,6861636b-7266-42d6-9f6e-652e6b696361,r8*
G04 #@! TF.SameCoordinates,Original*
G04 #@! TF.FileFunction,Soldermask,Bot*
G04 #@! TF.FilePolarity,Negative*
%FSLAX46Y46*%
G04 Gerber Fmt 4.6, Leading zero omitted, Abs format (unit mm)*
G04 Created by KiCad (PCBNEW 6.0.7-f9a2dced07~116~ubuntu22.04.1) date 2022-09-29 06:22:25*
%MOMM*%
%LPD*%
G01*
G04 APERTURE LIST*
G04 Aperture macros list*
%AMRoundRect*
0 Rectangle with rounded corners*
0 $1 Rounding radius*
0 $2 $3 $4 $5 $6 $7 $8 $9 X,Y pos of 4 corners*
0 Add a 4 corners polygon primitive as box body*
4,1,4,$2,$3,$4,$5,$6,$7,$8,$9,$2,$3,0*
0 Add four circle primitives for the rounded corners*
1,1,$1+$1,$2,$3*
1,1,$1+$1,$4,$5*
1,1,$1+$1,$6,$7*
1,1,$1+$1,$8,$9*
0 Add four rect primitives between the rounded corners*
20,1,$1+$1,$2,$3,$4,$5,0*
20,1,$1+$1,$4,$5,$6,$7,0*
20,1,$1+$1,$6,$7,$8,$9,0*
20,1,$1+$1,$8,$9,$2,$3,0*%
G04 Aperture macros list end*
%ADD10RoundRect,0.076200X0.762000X-0.762000X0.762000X0.762000X-0.762000X0.762000X-0.762000X-0.762000X0*%
%ADD11C,1.676400*%
%ADD12RoundRect,0.076200X-0.762000X-0.762000X0.762000X-0.762000X0.762000X0.762000X-0.762000X0.762000X0*%
%ADD13C,0.742240*%
%ADD14C,2.000000*%
%ADD15C,1.652400*%
%ADD16C,1.552400*%
%ADD17C,5.752400*%
%ADD18C,0.752400*%
%ADD19RoundRect,0.076200X2.095000X1.332500X-2.095000X1.332500X-2.095000X-1.332500X2.095000X-1.332500X0*%
%ADD20RoundRect,0.076200X-0.762000X0.762000X-0.762000X-0.762000X0.762000X-0.762000X0.762000X0.762000X0*%
%ADD21RoundRect,0.076200X-2.095000X-1.332500X2.095000X-1.332500X2.095000X1.332500X-2.095000X1.332500X0*%
%ADD22RoundRect,0.076200X0.762000X0.762000X-0.762000X0.762000X-0.762000X-0.762000X0.762000X-0.762000X0*%
%ADD23RoundRect,0.076200X-0.533400X0.533400X-0.533400X-0.533400X0.533400X-0.533400X0.533400X0.533400X0*%
%ADD24C,1.219200*%
%ADD25C,2.152400*%
%ADD26C,0.737400*%
%ADD27C,0.736600*%
%ADD28C,0.777240*%
G04 APERTURE END LIST*
D10*
G04 #@! TO.C,NT3*
X84130000Y-128010000D03*
D11*
X84130000Y-125470000D03*
G04 #@! TD*
D12*
G04 #@! TO.C,NT2*
X157790000Y-112770000D03*
D11*
X160330000Y-112770000D03*
G04 #@! TD*
D12*
G04 #@! TO.C,NT1*
X145090000Y-112770000D03*
D11*
X147630000Y-112770000D03*
G04 #@! TD*
D13*
G04 #@! TO.C,U19*
X127469200Y-162926000D03*
X126809200Y-163586000D03*
X126809200Y-162266000D03*
X128129200Y-162266000D03*
X128129200Y-163586000D03*
G04 #@! TD*
D14*
G04 #@! TO.C,MARK1MM*
X171000000Y-102000000D03*
G04 #@! TD*
D15*
G04 #@! TO.C,J1*
X178800000Y-128125000D03*
X178800000Y-119875000D03*
D16*
X175770000Y-126490000D03*
X175770000Y-121510000D03*
G04 #@! TD*
D17*
G04 #@! TO.C,J4*
X64000000Y-104000000D03*
D18*
X64000000Y-101800000D03*
X61800000Y-104000000D03*
X64000000Y-106200000D03*
X66200000Y-104000000D03*
X65550000Y-102450000D03*
X62450000Y-102450000D03*
X62450000Y-105550000D03*
X65550000Y-105550000D03*
G04 #@! TD*
D17*
G04 #@! TO.C,J5*
X64000000Y-171000000D03*
D18*
X64000000Y-168800000D03*
X61800000Y-171000000D03*
X64000000Y-173200000D03*
X66200000Y-171000000D03*
X65550000Y-169450000D03*
X62450000Y-169450000D03*
X62450000Y-172550000D03*
X65550000Y-172550000D03*
G04 #@! TD*
D17*
G04 #@! TO.C,J6*
X176000000Y-171000000D03*
D18*
X176000000Y-168800000D03*
X173800000Y-171000000D03*
X176000000Y-173200000D03*
X178200000Y-171000000D03*
X177550000Y-169450000D03*
X174450000Y-169450000D03*
X174450000Y-172550000D03*
X177550000Y-172550000D03*
G04 #@! TD*
D17*
G04 #@! TO.C,J7*
X176000000Y-104000000D03*
D18*
X176000000Y-101800000D03*
X173800000Y-104000000D03*
X176000000Y-106200000D03*
X178200000Y-104000000D03*
X177550000Y-102450000D03*
X174450000Y-102450000D03*
X174450000Y-105550000D03*
X177550000Y-105550000D03*
G04 #@! TD*
D17*
G04 #@! TO.C,J8*
X126000000Y-104000000D03*
D18*
X126000000Y-101800000D03*
X123800000Y-104000000D03*
X126000000Y-106200000D03*
X128200000Y-104000000D03*
X127550000Y-102450000D03*
X124450000Y-102450000D03*
X124450000Y-105550000D03*
X127550000Y-105550000D03*
G04 #@! TD*
D17*
G04 #@! TO.C,J9*
X131000000Y-144000000D03*
D18*
X131000000Y-141800000D03*
X128800000Y-144000000D03*
X131000000Y-146200000D03*
X133200000Y-144000000D03*
X132550000Y-142450000D03*
X129450000Y-142450000D03*
X129450000Y-145550000D03*
X132550000Y-145550000D03*
G04 #@! TD*
D19*
G04 #@! TO.C,P2*
X176885000Y-148492500D03*
X176885000Y-141507500D03*
G04 #@! TD*
D20*
G04 #@! TO.C,P3*
X145090000Y-117850000D03*
D11*
X145090000Y-120390000D03*
G04 #@! TD*
D21*
G04 #@! TO.C,P4*
X63115000Y-157507500D03*
X63115000Y-164492500D03*
G04 #@! TD*
D22*
G04 #@! TO.C,P5*
X91750000Y-105150000D03*
D11*
X91750000Y-107690000D03*
X89210000Y-105150000D03*
X89210000Y-107690000D03*
X86670000Y-105150000D03*
X86670000Y-107690000D03*
G04 #@! TD*
D22*
G04 #@! TO.C,P9*
X106990000Y-128010000D03*
D11*
X106990000Y-130550000D03*
X104450000Y-128010000D03*
X104450000Y-130550000D03*
X101910000Y-128010000D03*
X101910000Y-130550000D03*
X99370000Y-128010000D03*
X99370000Y-130550000D03*
X96830000Y-128010000D03*
X96830000Y-130550000D03*
X94290000Y-128010000D03*
X94290000Y-130550000D03*
X91750000Y-128010000D03*
X91750000Y-130550000D03*
X89210000Y-128010000D03*
X89210000Y-130550000D03*
G04 #@! TD*
D19*
G04 #@! TO.C,P16*
X176885000Y-166492500D03*
X176885000Y-159507500D03*
G04 #@! TD*
D10*
G04 #@! TO.C,P20*
X173030000Y-155950000D03*
D11*
X170490000Y-155950000D03*
X173030000Y-153410000D03*
X170490000Y-153410000D03*
X173030000Y-150870000D03*
X170490000Y-150870000D03*
X173030000Y-148330000D03*
X170490000Y-148330000D03*
X173030000Y-145790000D03*
X170490000Y-145790000D03*
X173030000Y-143250000D03*
X170490000Y-143250000D03*
X173030000Y-140710000D03*
X170490000Y-140710000D03*
X173030000Y-138170000D03*
X170490000Y-138170000D03*
X173030000Y-135630000D03*
X170490000Y-135630000D03*
X173030000Y-133090000D03*
X170490000Y-133090000D03*
X173030000Y-130550000D03*
X170490000Y-130550000D03*
G04 #@! TD*
D22*
G04 #@! TO.C,P22*
X167950000Y-163570000D03*
D11*
X167950000Y-166110000D03*
X165410000Y-163570000D03*
X165410000Y-166110000D03*
X162870000Y-163570000D03*
X162870000Y-166110000D03*
X160330000Y-163570000D03*
X160330000Y-166110000D03*
X157790000Y-163570000D03*
X157790000Y-166110000D03*
X155250000Y-163570000D03*
X155250000Y-166110000D03*
X152710000Y-163570000D03*
X152710000Y-166110000D03*
X150170000Y-163570000D03*
X150170000Y-166110000D03*
X147630000Y-163570000D03*
X147630000Y-166110000D03*
X145090000Y-163570000D03*
X145090000Y-166110000D03*
X142550000Y-163570000D03*
X142550000Y-166110000D03*
X140010000Y-163570000D03*
X140010000Y-166110000D03*
X137470000Y-163570000D03*
X137470000Y-166110000D03*
G04 #@! TD*
D12*
G04 #@! TO.C,P25*
X137470000Y-158490000D03*
D11*
X140010000Y-158490000D03*
X142550000Y-158490000D03*
X145090000Y-158490000D03*
X147630000Y-158490000D03*
X150170000Y-158490000D03*
G04 #@! TD*
D23*
G04 #@! TO.C,P26*
X151662600Y-114466600D03*
D24*
X152932600Y-114466600D03*
X151662600Y-115736600D03*
X152932600Y-115736600D03*
X151662600Y-117006600D03*
X152932600Y-117006600D03*
X151662600Y-118276600D03*
X152932600Y-118276600D03*
X151662600Y-119546600D03*
X152932600Y-119546600D03*
G04 #@! TD*
D10*
G04 #@! TO.C,P28*
X124770000Y-155950000D03*
D11*
X122230000Y-155950000D03*
X124770000Y-153410000D03*
X122230000Y-153410000D03*
X124770000Y-150870000D03*
X122230000Y-150870000D03*
X124770000Y-148330000D03*
X122230000Y-148330000D03*
X124770000Y-145790000D03*
X122230000Y-145790000D03*
X124770000Y-143250000D03*
X122230000Y-143250000D03*
X124770000Y-140710000D03*
X122230000Y-140710000D03*
X124770000Y-138170000D03*
X122230000Y-138170000D03*
X124770000Y-135630000D03*
X122230000Y-135630000D03*
X124770000Y-133090000D03*
X122230000Y-133090000D03*
X124770000Y-130550000D03*
X122230000Y-130550000D03*
G04 #@! TD*
D12*
G04 #@! TO.C,P29*
X129850000Y-133090000D03*
D11*
X132390000Y-133090000D03*
G04 #@! TD*
D22*
G04 #@! TO.C,P30*
X160330000Y-105150000D03*
D11*
X160330000Y-107690000D03*
X157790000Y-105150000D03*
X157790000Y-107690000D03*
X155250000Y-105150000D03*
X155250000Y-107690000D03*
X152710000Y-105150000D03*
X152710000Y-107690000D03*
X150170000Y-105150000D03*
X150170000Y-107690000D03*
X147630000Y-105150000D03*
X147630000Y-107690000D03*
X145090000Y-105150000D03*
X145090000Y-107690000D03*
X142550000Y-105150000D03*
X142550000Y-107690000D03*
X140010000Y-105150000D03*
X140010000Y-107690000D03*
X137470000Y-105150000D03*
X137470000Y-107690000D03*
G04 #@! TD*
D20*
G04 #@! TO.C,P80*
X178110000Y-130550000D03*
D11*
X178110000Y-133090000D03*
G04 #@! TD*
D15*
G04 #@! TO.C,SW1*
X62700000Y-122150000D03*
X62700000Y-126650000D03*
D25*
X65190000Y-127905000D03*
X65190000Y-120895000D03*
G04 #@! TD*
D15*
G04 #@! TO.C,SW2*
X62700000Y-109150000D03*
X62700000Y-113650000D03*
D25*
X65190000Y-114905000D03*
X65190000Y-107895000D03*
G04 #@! TD*
D26*
G04 #@! TO.C,U21*
X169530000Y-111951200D03*
X169030000Y-112701200D03*
X170030000Y-112701200D03*
X170030000Y-111201200D03*
X169030000Y-111201200D03*
G04 #@! TD*
D13*
G04 #@! TO.C,U4*
X92620400Y-157763600D03*
X92620400Y-156663600D03*
X93720400Y-156663600D03*
X93720400Y-157763600D03*
X93720400Y-158863600D03*
X92620400Y-158863600D03*
X91520400Y-158863600D03*
X91520400Y-157763600D03*
X91520400Y-156663600D03*
G04 #@! TD*
D27*
G04 #@! TO.C,U17*
X108648500Y-141897100D03*
X108648500Y-143397100D03*
X107148500Y-143397100D03*
X107148500Y-141897100D03*
X107148500Y-140397100D03*
X108648500Y-140397100D03*
X110148500Y-140397100D03*
X110148500Y-141897100D03*
X110148500Y-143397100D03*
G04 #@! TD*
D28*
G04 #@! TO.C,U18*
X102895400Y-112461800D03*
X102895400Y-114111800D03*
X101245400Y-114111800D03*
X101245400Y-112461800D03*
X101245400Y-110811800D03*
X102895400Y-110811800D03*
X104545400Y-110811800D03*
X104545400Y-112461800D03*
X104545400Y-114111800D03*
G04 #@! TD*
M02*
