M48
; DRILL file {KiCad 6.0.7-f9a2dced07~116~ubuntu22.04.1} date Thu 29 Sep 2022 06:22:15 AM EDT
; FORMAT={-:-/ absolute / inch / decimal}
; #@! TF.CreationDate,2022-09-29T06:22:15-04:00
; #@! TF.GenerationSoftware,Kicad,Pcbnew,6.0.7-f9a2dced07~116~ubuntu22.04.1
; #@! TF.FileFunction,MixedPlating,1,4
FMAT,2
INCH
; #@! TA.AperFunction,Plated,PTH,ComponentDrill
T1C0.0130
; #@! TA.AperFunction,Plated,PTH,ViaDrill
T2C0.0130
; #@! TA.AperFunction,Plated,PTH,ComponentDrill
T3C0.0130
; #@! TA.AperFunction,Plated,PTH,ComponentDrill
T4C0.0138
; #@! TA.AperFunction,Plated,PTH,ComponentDrill
T5C0.0150
; #@! TA.AperFunction,Plated,PTH,ViaDrill
T6C0.0160
; #@! TA.AperFunction,Plated,PTH,ViaDrill
T7C0.0200
; #@! TA.AperFunction,Plated,PTH,ViaDrill
T8C0.0250
; #@! TA.AperFunction,Plated,PTH,ComponentDrill
T9C0.0276
; #@! TA.AperFunction,Plated,PTH,ComponentDrill
T10C0.0280
; #@! TA.AperFunction,Plated,PTH,ComponentDrill
T11C0.0354
; #@! TA.AperFunction,Plated,PTH,ComponentDrill
T12C0.0390
; #@! TA.AperFunction,Plated,PTH,ComponentDrill
T13C0.0400
; #@! TA.AperFunction,Plated,PTH,ComponentDrill
T14C0.0512
; #@! TA.AperFunction,Plated,PTH,ComponentDrill
T15C0.1260
%
G90
G05
T1
X6.6547Y-4.4371
X6.6744Y-4.4075
T2
X2.7744Y-6.1755
X2.7744Y-6.2605
X2.8644Y-6.1705
X2.8874Y-5.7845
X2.895Y-6.338
X2.9035Y-6.189
X2.9092Y-5.6731
X2.9112Y-5.6231
X2.9754Y-5.9245
X3.005Y-6.6064
X3.0302Y-5.4621
X3.0352Y-5.5881
X3.0464Y-6.1305
X3.0784Y-6.1455
X3.1434Y-6.0765
X3.166Y-5.778
X3.1752Y-5.3831
X3.1752Y-5.4281
X3.1752Y-5.4731
X3.1972Y-6.6158
X3.3352Y-5.4681
X3.3352Y-5.5931
X3.4152Y-6.3008
X3.475Y-6.156
X3.4838Y-5.6789
X3.6128Y-5.6939
X3.615Y-4.9756
X3.665Y-4.9756
X3.738Y-4.9756
X3.7805Y-5.9962
X3.7882Y-4.9758
X3.824Y-6.136
X3.8255Y-6.0062
X3.8335Y-6.1712
X3.8343Y-6.5364
X3.87Y-6.044
X3.8765Y-4.2911
X3.94Y-4.7546
X3.99Y-4.7546
X4.0335Y-4.6101
X4.063Y-4.7546
X4.096Y-5.698
X4.11Y-6.165
X4.1105Y-5.6465
X4.113Y-4.7546
X4.1175Y-5.5555
X4.124Y-5.733
X4.1607Y-6.6367
X4.233Y-5.388
X4.233Y-5.427
X4.26Y-6.128
X4.282Y-5.304
X4.4025Y-5.4405
X5.0935Y-6.5394
X5.0942Y-6.5738
X5.3662Y-4.7208
X5.4292Y-6.3508
X5.4402Y-5.8688
X5.4582Y-5.8408
X5.4652Y-6.1393
X5.4887Y-6.1668
X5.5642Y-5.7088
X5.5982Y-5.7118
X5.6352Y-5.4078
X5.6539Y-5.0409
X5.6546Y-5.9976
X5.6765Y-5.3336
X5.7092Y-5.6008
X5.7122Y-4.5578
X5.7122Y-5.3708
X5.7122Y-5.5608
X5.7132Y-5.2638
X5.7252Y-5.1918
X5.7282Y-6.0598
X5.7322Y-5.3118
X5.7442Y-5.9168
X5.7562Y-5.2178
X5.7662Y-5.3078
X5.7742Y-5.1228
X5.8002Y-5.9768
X5.8186Y-4.9143
X5.8252Y-4.8428
X5.8252Y-5.9998
X5.8502Y-5.5668
X5.8522Y-4.8108
X5.8742Y-5.5958
X5.907Y-5.1484
X5.9572Y-5.2538
X5.9772Y-6.2808
X6.0132Y-5.6858
X6.0182Y-5.7578
X6.0512Y-5.7228
X6.0542Y-6.0438
X6.0712Y-6.0728
X6.0774Y-6.0132
X6.0792Y-5.5738
X6.0802Y-5.6108
X6.0812Y-5.5038
X6.0842Y-5.5408
X6.0906Y-5.2322
X6.1882Y-5.7258
X6.2192Y-5.5788
X6.2606Y-5.5557
X6.3044Y-5.5288
X6.315Y-5.5635
X6.4994Y-4.4325
X6.5444Y-4.3625
X6.8224Y-4.5075
X6.8904Y-4.2575
T3
X6.6547Y-4.378
X6.6941Y-4.378
X6.6941Y-4.4371
T4
X3.6032Y-6.1679
X3.6032Y-6.2112
X3.6032Y-6.2545
X3.6465Y-6.1679
X3.6465Y-6.2112
X3.6465Y-6.2545
X3.6898Y-6.1679
X3.6898Y-6.2112
X3.6898Y-6.2545
X4.9925Y-6.3884
X4.9925Y-6.4404
X5.0185Y-6.4144
X5.0445Y-6.3884
X5.0445Y-6.4404
T5
X2.4331Y-4.0945
X2.4331Y-6.7323
X2.4587Y-4.0335
X2.4587Y-4.1555
X2.4587Y-6.6713
X2.4587Y-6.7933
X2.4614Y-6.1614
X2.4614Y-6.2008
X2.4614Y-6.2402
X2.4614Y-6.437
X2.4614Y-6.4764
X2.4614Y-6.5157
X2.5008Y-6.1614
X2.5008Y-6.2008
X2.5008Y-6.2402
X2.5008Y-6.437
X2.5008Y-6.4764
X2.5008Y-6.5157
X2.5197Y-4.0079
X2.5197Y-4.1811
X2.5197Y-6.6457
X2.5197Y-6.8189
X2.5402Y-6.1614
X2.5402Y-6.2008
X2.5402Y-6.2402
X2.5402Y-6.437
X2.5402Y-6.4764
X2.5402Y-6.5157
X2.5807Y-4.0335
X2.5807Y-4.1555
X2.5807Y-6.6713
X2.5807Y-6.7933
X2.6063Y-4.0945
X2.6063Y-6.7323
X3.986Y-4.3627
X3.986Y-4.4276
X3.986Y-4.4926
X4.051Y-4.3627
X4.051Y-4.4276
X4.051Y-4.4926
X4.116Y-4.3627
X4.116Y-4.4276
X4.116Y-4.4926
X4.2184Y-5.5274
X4.2184Y-5.5865
X4.2184Y-5.6456
X4.2775Y-5.5274
X4.2775Y-5.5865
X4.2775Y-5.6456
X4.3366Y-5.5274
X4.3366Y-5.5865
X4.3366Y-5.6456
X4.874Y-4.0945
X4.8996Y-4.0335
X4.8996Y-4.1555
X4.9606Y-4.0079
X4.9606Y-4.1811
X5.0217Y-4.0335
X5.0217Y-4.1555
X5.0472Y-4.0945
X5.0709Y-5.6693
X5.0965Y-5.6083
X5.0965Y-5.7303
X5.1575Y-5.5827
X5.1575Y-5.7559
X5.2185Y-5.6083
X5.2185Y-5.7303
X5.2441Y-5.6693
X6.8425Y-4.0945
X6.8425Y-6.7323
X6.8681Y-4.0335
X6.8681Y-4.1555
X6.8681Y-6.6713
X6.8681Y-6.7933
X6.9087Y-5.5315
X6.9087Y-5.5709
X6.9087Y-5.6102
X6.9087Y-5.8071
X6.9087Y-5.8465
X6.9087Y-5.8858
X6.9087Y-6.2402
X6.9087Y-6.2795
X6.9087Y-6.3189
X6.9087Y-6.5157
X6.9087Y-6.5551
X6.9087Y-6.5945
X6.9291Y-4.0079
X6.9291Y-4.1811
X6.9291Y-6.6457
X6.9291Y-6.8189
X6.948Y-5.5315
X6.948Y-5.5709
X6.948Y-5.6102
X6.948Y-5.8071
X6.948Y-5.8465
X6.948Y-5.8858
X6.948Y-6.2402
X6.948Y-6.2795
X6.948Y-6.3189
X6.948Y-6.5157
X6.948Y-6.5551
X6.948Y-6.5945
X6.9874Y-5.5315
X6.9874Y-5.5709
X6.9874Y-5.6102
X6.9874Y-5.8071
X6.9874Y-5.8465
X6.9874Y-5.8858
X6.9874Y-6.2402
X6.9874Y-6.2795
X6.9874Y-6.3189
X6.9874Y-6.5157
X6.9874Y-6.5551
X6.9874Y-6.5945
X6.9902Y-4.0335
X6.9902Y-4.1555
X6.9902Y-6.6713
X6.9902Y-6.7933
X7.0157Y-4.0945
X7.0157Y-6.7323
T6
X2.5032Y-4.6368
X3.6355Y-5.8922
X3.6355Y-5.9452
X3.6755Y-5.9452
X3.7155Y-5.9452
X3.7452Y-5.9098
X3.7805Y-5.8812
X3.796Y-4.7176
X3.8255Y-5.8962
X3.836Y-4.7176
X3.8705Y-5.9262
X3.876Y-4.7176
X3.916Y-4.7176
X3.9212Y-4.2148
X3.9268Y-4.2578
X3.956Y-4.6076
X3.956Y-4.7176
X3.9892Y-6.3158
X4.0052Y-6.4648
X4.04Y-4.7176
X4.076Y-4.7136
X4.1055Y-5.5195
X4.112Y-6.286
X4.1532Y-4.7228
X4.1607Y-6.5113
X4.1992Y-4.7288
X4.269Y-6.483
X4.4375Y-5.5305
X4.4435Y-5.5845
X4.4602Y-5.6588
X4.4725Y-5.5475
X4.546Y-5.364
X4.61Y-4.393
X4.6192Y-4.7448
X4.6232Y-4.8048
X4.699Y-6.6475
X4.736Y-6.812
X4.7462Y-4.7868
X4.8042Y-4.6878
X4.8042Y-4.8028
X4.8052Y-4.7648
X4.8062Y-4.7268
X4.8542Y-6.2188
X4.8902Y-6.3418
X4.9232Y-4.9848
X4.9642Y-5.8258
X4.9792Y-5.8908
X4.9942Y-5.9438
X5.0062Y-5.8648
X5.0082Y-4.4088
X5.0102Y-4.3698
X5.0202Y-5.8998
X5.0602Y-4.4328
X5.0692Y-4.3748
X5.0832Y-5.3108
X5.0892Y-4.4068
X5.0912Y-5.1178
X5.0972Y-5.3458
X5.1082Y-4.4398
X5.1202Y-5.3988
X5.1792Y-5.9088
X5.2052Y-5.1268
X5.2442Y-5.9538
X5.2792Y-6.2628
X5.3072Y-5.9548
X5.3082Y-6.4048
X5.3223Y-5.1069
X5.3292Y-6.4428
X5.3662Y-6.3488
X5.4302Y-5.0778
X5.4422Y-5.0198
X5.499Y-5.641
X5.592Y-5.532
X5.6182Y-5.0338
X5.6212Y-6.0358
X5.6332Y-5.8068
X5.641Y-5.537
X5.6722Y-4.5148
X5.6912Y-5.7288
X5.7022Y-5.8718
X5.7282Y-4.8168
X5.7712Y-4.8158
X5.8522Y-5.4918
X5.9062Y-5.2108
X5.9222Y-5.2468
X5.9692Y-5.3098
X6.0762Y-5.6748
X6.08Y-5.846
X6.108Y-4.5976
X6.1082Y-4.6388
X6.117Y-6.27
X6.1492Y-4.7878
X6.1632Y-6.1358
X6.1782Y-6.1008
X6.1872Y-5.1258
X6.2042Y-5.3228
X6.2082Y-4.6858
X6.2172Y-6.1048
X6.2342Y-4.5988
X6.2342Y-4.8668
X6.2358Y-5.8647
X6.2772Y-4.9368
X6.2832Y-6.0688
X6.3202Y-4.8768
X6.3572Y-4.6988
X6.3701Y-4.8583
X6.39Y-6.191
X6.417Y-6.221
X6.4472Y-5.9808
X6.49Y-5.485
X6.5082Y-5.0818
X6.5682Y-5.9148
X6.599Y-5.891
X6.6142Y-5.2108
X6.628Y-6.198
X6.665Y-5.806
X6.7934Y-4.3505
X6.8044Y-4.4675
X6.8894Y-4.3075
X6.8894Y-4.5575
X6.925Y-4.2336
T7
X2.8774Y-6.4385
X2.9234Y-6.3705
X3.5715Y-6.4792
X3.6765Y-6.4792
X3.7335Y-4.4801
X4.0015Y-5.5375
X4.081Y-4.6076
X4.2855Y-5.9445
X4.2995Y-5.9885
X4.3275Y-5.3055
X4.3385Y-5.4105
X4.5575Y-5.5065
X4.5585Y-5.5845
X5.0985Y-6.6144
X5.1885Y-6.5594
X6.2591Y-5.6646
X6.3348Y-5.2495
T8
X2.4622Y-4.6738
X2.4722Y-5.1898
X2.4722Y-5.3698
X2.4722Y-5.5488
X2.4722Y-5.7288
X2.4722Y-5.9088
X2.5122Y-5.2898
X2.5822Y-6.4098
X2.6673Y-5.3937
X2.6673Y-5.6299
X2.6673Y-5.8661
X2.6673Y-6.1024
X2.6673Y-6.5748
X2.6722Y-4.3088
X2.6722Y-4.8188
X2.7165Y-6.2598
X2.7244Y-6.0205
X2.7284Y-6.0995
X2.7284Y-6.1825
X2.7342Y-5.8268
X2.7594Y-5.9405
X2.7704Y-5.8805
X2.7894Y-6.0875
X2.7932Y-5.6721
X2.8254Y-6.2705
X2.8312Y-5.5851
X2.8346Y-5.2362
X2.8346Y-6.7323
X2.8702Y-6.5008
X2.8982Y-6.6198
X2.9324Y-5.9245
X2.9344Y-5.8605
X2.948Y-5.5
X2.9494Y-6.1135
X2.96Y-6.6064
X2.965Y-6.42
X2.987Y-5.862
X3.0034Y-6.0675
X3.025Y-5.945
X3.0604Y-6.2075
X3.065Y-5.823
X3.0702Y-5.6641
X3.0709Y-5.2362
X3.0709Y-6.7323
X3.1002Y-5.5281
X3.113Y-6.642
X3.125Y-6.5514
X3.1652Y-5.6781
X3.1802Y-4.7498
X3.2152Y-5.6781
X3.2194Y-6.2335
X3.2244Y-6.0405
X3.239Y-5.822
X3.2602Y-4.6718
X3.2702Y-5.5281
X3.2892Y-4.1898
X3.2952Y-5.6691
X3.3071Y-5.2362
X3.3071Y-6.7323
X3.3232Y-4.0778
X3.3802Y-4.3278
X3.3912Y-4.0428
X3.4048Y-5.6489
X3.4312Y-4.7898
X3.4528Y-5.4409
X3.4615Y-5.9812
X3.492Y-6.202
X3.4965Y-6.0812
X3.5065Y-6.4192
X3.5388Y-5.7589
X3.5433Y-5.2362
X3.5433Y-6.7323
X3.5865Y-6.3692
X3.6265Y-6.4792
X3.6405Y-6.0462
X3.6488Y-5.5899
X3.6655Y-6.3712
X3.7008Y-5.2854
X3.7185Y-6.5412
X3.7252Y-4.4233
X3.7485Y-4.3451
X3.7795Y-6.7323
X3.7827Y-4.5788
X3.8055Y-6.0962
X3.8427Y-4.4258
X3.8475Y-6.4062
X3.8515Y-4.5171
X3.8635Y-4.2401
X3.8682Y-4.3368
X3.8965Y-6.5962
X3.8976Y-5.2953
X3.905Y-6.42
X3.9225Y-4.1661
X3.9255Y-6.1412
X3.926Y-6.321
X3.954Y-6.096
X3.9705Y-6.3712
X3.9945Y-4.2451
X4.0157Y-6.7323
X4.016Y-6.09
X4.0365Y-5.4765
X4.0365Y-5.6915
X4.039Y-6.324
X4.0412Y-4.1668
X4.1009Y-6.5769
X4.1043Y-5.2854
X4.1529Y-6.4429
X4.156Y-4.6086
X4.1725Y-5.7475
X4.1725Y-5.8665
X4.1785Y-5.9665
X4.1874Y-6.2269
X4.2065Y-4.5711
X4.215Y-6.037
X4.229Y-4.6886
X4.2362Y-4.4458
X4.252Y-5.2362
X4.252Y-6.7323
X4.2769Y-6.6369
X4.2925Y-5.7485
X4.2925Y-5.8665
X4.3161Y-6.2076
X4.3505Y-4.4071
X4.3505Y-4.4551
X4.3775Y-5.3055
X4.4065Y-5.9665
X4.4094Y-5.0984
X4.416Y-6.223
X4.4375Y-5.6965
X4.4475Y-5.3455
X4.4775Y-5.7765
X4.4882Y-5.2362
X4.4882Y-6.7323
X4.49Y-4.567
X4.57Y-4.607
X4.5875Y-5.5465
X4.6063Y-5.7087
X4.61Y-4.345
X4.6442Y-5.0278
X4.65Y-4.247
X4.6555Y-5.3937
X4.6555Y-5.8661
X4.6555Y-6.1024
X4.6555Y-6.3386
X4.6555Y-6.5748
X4.7047Y-5.5512
X4.7052Y-6.4338
X4.707Y-6.351
X4.7142Y-6.4828
X4.73Y-4.987
X4.736Y-4.485
X4.7452Y-6.4058
X4.7669Y-6.6094
X4.7742Y-6.2598
X4.8085Y-6.5354
X4.824Y-6.689
X4.833Y-4.356
X4.8652Y-6.4148
X4.87Y-4.541
X4.8702Y-4.8588
X4.8722Y-5.6898
X4.8952Y-6.2328
X4.898Y-6.485
X4.9192Y-5.0778
X4.9485Y-6.5444
X4.971Y-4.858
X4.9735Y-6.2744
X5.0182Y-6.0698
X5.0672Y-4.4898
X5.077Y-6.689
X5.091Y-6.3
X5.0982Y-5.9438
X5.1032Y-4.8608
X5.1292Y-6.2178
X5.1432Y-6.0738
X5.1432Y-6.3468
X5.15Y-4.217
X5.1732Y-5.3938
X5.1802Y-6.7238
X5.1822Y-6.2628
X5.185Y-4.136
X5.2322Y-6.1878
X5.2382Y-6.5608
X5.2532Y-5.7788
X5.2612Y-6.3108
X5.2918Y-5.3945
X5.2961Y-5.6731
X5.3052Y-4.3363
X5.3392Y-5.6968
X5.3731Y-5.1434
X5.375Y-4.627
X5.38Y-4.677
X5.395Y-4.397
X5.4412Y-4.8698
X5.4412Y-4.9208
X5.4412Y-4.9708
X5.458Y-5.2283
X5.4862Y-6.0058
X5.4932Y-6.1098
X5.5172Y-4.3868
X5.5711Y-5.9212
X5.6112Y-6.1568
X5.6242Y-4.8924
X5.6672Y-6.1318
X5.7168Y-4.9737
X5.7514Y-6.1016
X5.8165Y-5.055
X5.8964Y-4.8677
X5.9636Y-4.9136
X5.9742Y-6.1207
X5.988Y-6.322
X6.0131Y-6.0874
X6.0732Y-5.1929
X6.0979Y-6.1723
X6.111Y-6.321
X6.1297Y-5.2495
X6.151Y-5.0656
X6.2358Y-4.9808
X6.2623Y-5.1846
X6.2712Y-5.0162
X6.2942Y-5.8108
X6.3207Y-5.9495
X6.3355Y-5.4496
X6.3461Y-5.0968
X6.3737Y-5.7268
X6.3744Y-4.4075
X6.3772Y-5.893
X6.4303Y-5.6702
X6.4367Y-5.3588
X6.4586Y-5.8116
X6.479Y-6.124
X6.5072Y-4.7368
X6.5151Y-5.2955
X6.5151Y-5.7551
X6.5328Y-5.1222
X6.5363Y-5.3591
X6.5399Y-5.2071
X6.5594Y-4.4075
X6.6112Y-4.9163
X6.6302Y-5.0318
X6.6372Y-4.8048
X6.7144Y-4.1425
X6.7144Y-4.6725
X6.7594Y-4.2575
X6.7594Y-4.5575
X6.7776Y-4.9163
X6.8122Y-6.5718
X6.8694Y-4.5075
X6.8898Y-4.6969
X6.9324Y-4.3749
X6.9372Y-5.9848
T9
X6.9201Y-4.7839
X6.9201Y-4.9799
T10
X5.971Y-4.5066
X5.971Y-4.5566
X5.971Y-4.6066
X5.971Y-4.6566
X5.971Y-4.7066
X6.021Y-4.5066
X6.021Y-4.5566
X6.021Y-4.6066
X6.021Y-4.6566
X6.021Y-4.7066
T11
X7.0394Y-4.7195
X7.0394Y-5.0443
T12
X2.4685Y-4.2972
X2.4685Y-4.4744
X2.4685Y-4.8091
X2.4685Y-4.9862
T13
X3.3122Y-4.9398
X3.3122Y-5.0398
X3.4122Y-4.1398
X3.4122Y-4.2398
X3.5122Y-4.1398
X3.5122Y-4.2398
X3.5122Y-5.0398
X3.5122Y-5.1398
X3.6122Y-4.1398
X3.6122Y-4.2398
X3.6122Y-5.0398
X3.6122Y-5.1398
X3.7122Y-5.0398
X3.7122Y-5.1398
X3.8122Y-5.0398
X3.8122Y-5.1398
X3.9122Y-5.0398
X3.9122Y-5.1398
X4.0122Y-5.0398
X4.0122Y-5.1398
X4.1122Y-5.0398
X4.1122Y-5.1398
X4.2122Y-5.0398
X4.2122Y-5.1398
X4.8122Y-5.1398
X4.8122Y-5.2398
X4.8122Y-5.3398
X4.8122Y-5.4398
X4.8122Y-5.5398
X4.8122Y-5.6398
X4.8122Y-5.7398
X4.8122Y-5.8398
X4.8122Y-5.9398
X4.8122Y-6.0398
X4.8122Y-6.1398
X4.9122Y-5.1398
X4.9122Y-5.2398
X4.9122Y-5.3398
X4.9122Y-5.4398
X4.9122Y-5.5398
X4.9122Y-5.6398
X4.9122Y-5.7398
X4.9122Y-5.8398
X4.9122Y-5.9398
X4.9122Y-6.0398
X4.9122Y-6.1398
X5.1122Y-5.2398
X5.2122Y-5.2398
X5.4122Y-4.1398
X5.4122Y-4.2398
X5.4122Y-6.2398
X5.4122Y-6.4398
X5.4122Y-6.5398
X5.5122Y-4.1398
X5.5122Y-4.2398
X5.5122Y-6.2398
X5.5122Y-6.4398
X5.5122Y-6.5398
X5.6122Y-4.1398
X5.6122Y-4.2398
X5.6122Y-6.2398
X5.6122Y-6.4398
X5.6122Y-6.5398
X5.7122Y-4.1398
X5.7122Y-4.2398
X5.7122Y-4.4398
X5.7122Y-4.6398
X5.7122Y-4.7398
X5.7122Y-6.2398
X5.7122Y-6.4398
X5.7122Y-6.5398
X5.8122Y-4.1398
X5.8122Y-4.2398
X5.8122Y-4.4398
X5.8122Y-6.2398
X5.8122Y-6.4398
X5.8122Y-6.5398
X5.9122Y-4.1398
X5.9122Y-4.2398
X5.9122Y-6.2398
X5.9122Y-6.4398
X5.9122Y-6.5398
X6.0122Y-4.1398
X6.0122Y-4.2398
X6.0122Y-6.4398
X6.0122Y-6.5398
X6.1122Y-4.1398
X6.1122Y-4.2398
X6.1122Y-6.4398
X6.1122Y-6.5398
X6.2122Y-4.1398
X6.2122Y-4.2398
X6.2122Y-4.4398
X6.2122Y-6.4398
X6.2122Y-6.5398
X6.3122Y-4.1398
X6.3122Y-4.2398
X6.3122Y-4.4398
X6.3122Y-6.4398
X6.3122Y-6.5398
X6.4122Y-6.4398
X6.4122Y-6.5398
X6.5122Y-6.4398
X6.5122Y-6.5398
X6.6122Y-6.4398
X6.6122Y-6.5398
X6.7122Y-5.1398
X6.7122Y-5.2398
X6.7122Y-5.3398
X6.7122Y-5.4398
X6.7122Y-5.5398
X6.7122Y-5.6398
X6.7122Y-5.7398
X6.7122Y-5.8398
X6.7122Y-5.9398
X6.7122Y-6.0398
X6.7122Y-6.1398
X6.8122Y-5.1398
X6.8122Y-5.2398
X6.8122Y-5.3398
X6.8122Y-5.4398
X6.8122Y-5.5398
X6.8122Y-5.6398
X6.8122Y-5.7398
X6.8122Y-5.8398
X6.8122Y-5.9398
X6.8122Y-6.0398
X6.8122Y-6.1398
X7.0122Y-5.1398
X7.0122Y-5.2398
T14
X2.5665Y-4.2478
X2.5665Y-4.5238
X2.5665Y-4.7596
X2.5665Y-5.0356
T15
X2.5197Y-4.0945
X2.5197Y-6.7323
X4.9606Y-4.0945
X5.1575Y-5.6693
X6.9291Y-4.0945
X6.9291Y-6.7323
T0
M30
